<svg width="401" height="48" viewBox="0 0 401 48" fill="none" xmlns="http://www.w3.org/2000/svg">
<mask id="path-1-inside-1_254_15190" fill="white">
<path d="M0 0H401V48H0V0Z"/>
</mask>
<path d="M0 0H401V48H0V0Z" fill="white" fill-opacity="0.01" style="mix-blend-mode:multiply"/>
<path d="M0 0V1H401V0V-1H0V0Z" fill="#E0E0E0" mask="url(#path-1-inside-1_254_15190)"/>
<rect width="16" height="16" transform="translate(369 16)" fill="white" fill-opacity="0.01" style="mix-blend-mode:multiply"/>
<path d="M377 27L372 22L372.7 21.3L377 25.6L381.3 21.3L382 22L377 27Z" fill="#161616"/>
<path d="M20.592 20.264V29H19.416V20.264H16.308V19.228H23.7V20.264H20.592ZM25.9217 20.082C25.6791 20.082 25.5017 20.026 25.3897 19.914C25.2871 19.7927 25.2357 19.6387 25.2357 19.452V19.27C25.2357 19.0833 25.2871 18.934 25.3897 18.822C25.5017 18.7007 25.6791 18.64 25.9217 18.64C26.1644 18.64 26.3371 18.7007 26.4397 18.822C26.5517 18.934 26.6077 19.0833 26.6077 19.27V19.452C26.6077 19.6387 26.5517 19.7927 26.4397 19.914C26.3371 20.026 26.1644 20.082 25.9217 20.082ZM25.3617 21.776H26.4817V29H25.3617V21.776ZM30.6177 29C30.2257 29 29.9271 28.8927 29.7217 28.678C29.5257 28.454 29.4277 28.1647 29.4277 27.81V22.756H28.2377V21.776H28.9097C29.1524 21.776 29.3157 21.7293 29.3997 21.636C29.4931 21.5333 29.5397 21.3607 29.5397 21.118V19.774H30.5477V21.776H32.1297V22.756H30.5477V28.02H32.0177V29H30.6177ZM35.2799 29C34.8879 29 34.5893 28.8927 34.3839 28.678C34.1879 28.454 34.0899 28.174 34.0899 27.838V18.64H35.2099V28.02H36.2739V29H35.2799ZM40.7804 29.168C40.2857 29.168 39.8377 29.0793 39.4364 28.902C39.0444 28.7247 38.7037 28.4727 38.4144 28.146C38.1344 27.81 37.915 27.4133 37.7564 26.956C37.607 26.4893 37.5324 25.9667 37.5324 25.388C37.5324 24.8187 37.607 24.3007 37.7564 23.834C37.915 23.3673 38.1344 22.9707 38.4144 22.644C38.7037 22.308 39.0444 22.0513 39.4364 21.874C39.8377 21.6967 40.2857 21.608 40.7804 21.608C41.2657 21.608 41.6997 21.6967 42.0824 21.874C42.465 22.0513 42.7917 22.2987 43.0624 22.616C43.333 22.924 43.5384 23.2927 43.6784 23.722C43.8277 24.1513 43.9024 24.6227 43.9024 25.136V25.668H38.7084V26.004C38.7084 26.312 38.755 26.6013 38.8484 26.872C38.951 27.1333 39.091 27.362 39.2684 27.558C39.455 27.754 39.679 27.908 39.9404 28.02C40.211 28.132 40.5144 28.188 40.8504 28.188C41.3077 28.188 41.7044 28.0807 42.0404 27.866C42.3857 27.6513 42.6517 27.3433 42.8384 26.942L43.6364 27.516C43.403 28.0107 43.039 28.412 42.5444 28.72C42.0497 29.0187 41.4617 29.168 40.7804 29.168ZM40.7804 22.546C40.4724 22.546 40.1924 22.602 39.9404 22.714C39.6884 22.8167 39.469 22.966 39.2824 23.162C39.105 23.358 38.965 23.5913 38.8624 23.862C38.7597 24.1233 38.7084 24.4127 38.7084 24.73V24.828H42.6984V24.674C42.6984 24.03 42.521 23.5167 42.1664 23.134C41.821 22.742 41.359 22.546 40.7804 22.546ZM52.1066 29.168C51.6212 29.168 51.1779 29.0793 50.7766 28.902C50.3752 28.7247 50.0299 28.4727 49.7406 28.146C49.4606 27.81 49.2412 27.4133 49.0826 26.956C48.9239 26.4893 48.8446 25.9667 48.8446 25.388C48.8446 24.8187 48.9239 24.3007 49.0826 23.834C49.2412 23.3673 49.4606 22.9707 49.7406 22.644C50.0299 22.308 50.3752 22.0513 50.7766 21.874C51.1779 21.6967 51.6212 21.608 52.1066 21.608C52.5919 21.608 53.0306 21.6967 53.4226 21.874C53.8239 22.0513 54.1692 22.308 54.4586 22.644C54.7479 22.9707 54.9719 23.3673 55.1306 23.834C55.2892 24.3007 55.3686 24.8187 55.3686 25.388C55.3686 25.9667 55.2892 26.4893 55.1306 26.956C54.9719 27.4133 54.7479 27.81 54.4586 28.146C54.1692 28.4727 53.8239 28.7247 53.4226 28.902C53.0306 29.0793 52.5919 29.168 52.1066 29.168ZM52.1066 28.174C52.7132 28.174 53.2079 27.9873 53.5906 27.614C53.9732 27.2407 54.1646 26.6713 54.1646 25.906V24.87C54.1646 24.1047 53.9732 23.5353 53.5906 23.162C53.2079 22.7887 52.7132 22.602 52.1066 22.602C51.4999 22.602 51.0052 22.7887 50.6226 23.162C50.2399 23.5353 50.0486 24.1047 50.0486 24.87V25.906C50.0486 26.6713 50.2399 27.2407 50.6226 27.614C51.0052 27.9873 51.4999 28.174 52.1066 28.174ZM57.6805 22.756H56.5045V21.776H57.6805V20.32C57.6805 19.816 57.8112 19.41 58.0725 19.102C58.3338 18.794 58.7305 18.64 59.2625 18.64H60.3545V19.62H58.8005V21.776H60.3545V22.756H58.8005V29H57.6805V22.756ZM70.7062 29C70.2862 29 69.9828 28.888 69.7962 28.664C69.6188 28.44 69.5068 28.16 69.4602 27.824H69.3902C69.2315 28.272 68.9702 28.608 68.6062 28.832C68.2422 29.056 67.8082 29.168 67.3042 29.168C66.5388 29.168 65.9415 28.972 65.5122 28.58C65.0922 28.188 64.8822 27.656 64.8822 26.984C64.8822 26.3027 65.1295 25.78 65.6242 25.416C66.1282 25.052 66.9075 24.87 67.9622 24.87H69.3902V24.156C69.3902 23.6427 69.2502 23.2507 68.9702 22.98C68.6902 22.7093 68.2608 22.574 67.6822 22.574C67.2435 22.574 66.8748 22.672 66.5762 22.868C66.2868 23.064 66.0442 23.3253 65.8482 23.652L65.1762 23.022C65.3722 22.63 65.6848 22.2987 66.1142 22.028C66.5435 21.748 67.0848 21.608 67.7382 21.608C68.6155 21.608 69.2968 21.8227 69.7822 22.252C70.2675 22.6813 70.5102 23.2787 70.5102 24.044V28.02H71.3362V29H70.7062ZM67.4862 28.216C67.7662 28.216 68.0228 28.1833 68.2562 28.118C68.4895 28.0527 68.6902 27.9593 68.8582 27.838C69.0262 27.7167 69.1568 27.5767 69.2502 27.418C69.3435 27.2593 69.3902 27.0867 69.3902 26.9V25.71H67.9062C67.2622 25.71 66.7908 25.8033 66.4922 25.99C66.2028 26.1767 66.0582 26.4473 66.0582 26.802V27.096C66.0582 27.4507 66.1842 27.726 66.4362 27.922C66.6975 28.118 67.0475 28.216 67.4862 28.216ZM75.7827 29.168C75.2787 29.168 74.826 29.0793 74.4247 28.902C74.0234 28.7247 73.6827 28.4727 73.4027 28.146C73.132 27.8193 72.922 27.4227 72.7727 26.956C72.6327 26.4893 72.5627 25.9667 72.5627 25.388C72.5627 24.8093 72.6327 24.2867 72.7727 23.82C72.922 23.3533 73.132 22.9567 73.4027 22.63C73.6827 22.3033 74.0234 22.0513 74.4247 21.874C74.826 21.6967 75.2787 21.608 75.7827 21.608C76.5014 21.608 77.0754 21.7667 77.5047 22.084C77.9434 22.392 78.27 22.798 78.4847 23.302L77.5467 23.778C77.416 23.4047 77.2014 23.1153 76.9027 22.91C76.604 22.7047 76.2307 22.602 75.7827 22.602C75.4467 22.602 75.1527 22.658 74.9007 22.77C74.6487 22.8727 74.4387 23.022 74.2707 23.218C74.1027 23.4047 73.9767 23.6333 73.8927 23.904C73.8087 24.1653 73.7667 24.4547 73.7667 24.772V26.004C73.7667 26.6387 73.9347 27.1613 74.2707 27.572C74.616 27.9733 75.12 28.174 75.7827 28.174C76.688 28.174 77.3414 27.754 77.7427 26.914L78.5547 27.46C78.3214 27.9827 77.9714 28.398 77.5047 28.706C77.0474 29.014 76.4734 29.168 75.7827 29.168ZM82.9017 29.168C82.3977 29.168 81.945 29.0793 81.5437 28.902C81.1423 28.7247 80.8017 28.4727 80.5217 28.146C80.251 27.8193 80.041 27.4227 79.8917 26.956C79.7517 26.4893 79.6817 25.9667 79.6817 25.388C79.6817 24.8093 79.7517 24.2867 79.8917 23.82C80.041 23.3533 80.251 22.9567 80.5217 22.63C80.8017 22.3033 81.1423 22.0513 81.5437 21.874C81.945 21.6967 82.3977 21.608 82.9017 21.608C83.6203 21.608 84.1943 21.7667 84.6237 22.084C85.0623 22.392 85.389 22.798 85.6037 23.302L84.6657 23.778C84.535 23.4047 84.3203 23.1153 84.0217 22.91C83.723 22.7047 83.3497 22.602 82.9017 22.602C82.5657 22.602 82.2717 22.658 82.0197 22.77C81.7677 22.8727 81.5577 23.022 81.3897 23.218C81.2217 23.4047 81.0957 23.6333 81.0117 23.904C80.9277 24.1653 80.8857 24.4547 80.8857 24.772V26.004C80.8857 26.6387 81.0537 27.1613 81.3897 27.572C81.735 27.9733 82.239 28.174 82.9017 28.174C83.807 28.174 84.4603 27.754 84.8617 26.914L85.6737 27.46C85.4403 27.9827 85.0903 28.398 84.6237 28.706C84.1663 29.014 83.5923 29.168 82.9017 29.168ZM90.0627 29.168C89.5773 29.168 89.134 29.0793 88.7327 28.902C88.3313 28.7247 87.986 28.4727 87.6967 28.146C87.4167 27.81 87.1973 27.4133 87.0387 26.956C86.88 26.4893 86.8007 25.9667 86.8007 25.388C86.8007 24.8187 86.88 24.3007 87.0387 23.834C87.1973 23.3673 87.4167 22.9707 87.6967 22.644C87.986 22.308 88.3313 22.0513 88.7327 21.874C89.134 21.6967 89.5773 21.608 90.0627 21.608C90.548 21.608 90.9867 21.6967 91.3787 21.874C91.78 22.0513 92.1253 22.308 92.4147 22.644C92.704 22.9707 92.928 23.3673 93.0867 23.834C93.2453 24.3007 93.3247 24.8187 93.3247 25.388C93.3247 25.9667 93.2453 26.4893 93.0867 26.956C92.928 27.4133 92.704 27.81 92.4147 28.146C92.1253 28.4727 91.78 28.7247 91.3787 28.902C90.9867 29.0793 90.548 29.168 90.0627 29.168ZM90.0627 28.174C90.6693 28.174 91.164 27.9873 91.5467 27.614C91.9293 27.2407 92.1207 26.6713 92.1207 25.906V24.87C92.1207 24.1047 91.9293 23.5353 91.5467 23.162C91.164 22.7887 90.6693 22.602 90.0627 22.602C89.456 22.602 88.9613 22.7887 88.5787 23.162C88.196 23.5353 88.0047 24.1047 88.0047 24.87V25.906C88.0047 26.6713 88.196 27.2407 88.5787 27.614C88.9613 27.9873 89.456 28.174 90.0627 28.174ZM95.3266 29V21.776H96.4466V23.106H96.5166C96.6473 22.7607 96.8806 22.4527 97.2166 22.182C97.5526 21.9113 98.0146 21.776 98.6026 21.776H99.0366V22.896H98.3786C97.772 22.896 97.296 23.0127 96.9506 23.246C96.6146 23.47 96.4466 23.7547 96.4466 24.1V29H95.3266ZM105.165 27.824H105.109C104.671 28.72 103.966 29.168 102.995 29.168C102.547 29.168 102.141 29.0793 101.777 28.902C101.413 28.7247 101.101 28.4727 100.839 28.146C100.587 27.8193 100.391 27.4227 100.251 26.956C100.121 26.4893 100.055 25.9667 100.055 25.388C100.055 24.8093 100.121 24.2867 100.251 23.82C100.391 23.3533 100.587 22.9567 100.839 22.63C101.101 22.3033 101.413 22.0513 101.777 21.874C102.141 21.6967 102.547 21.608 102.995 21.608C103.499 21.608 103.929 21.72 104.283 21.944C104.647 22.1587 104.923 22.4947 105.109 22.952H105.165V18.64H106.285V29H105.165V27.824ZM103.303 28.16C103.555 28.16 103.793 28.1273 104.017 28.062C104.251 27.9967 104.451 27.9033 104.619 27.782C104.787 27.6513 104.918 27.4973 105.011 27.32C105.114 27.1333 105.165 26.9233 105.165 26.69V24.002C105.165 23.806 105.114 23.624 105.011 23.456C104.918 23.2787 104.787 23.1293 104.619 23.008C104.451 22.8867 104.251 22.7933 104.017 22.728C103.793 22.6533 103.555 22.616 103.303 22.616C102.669 22.616 102.169 22.8167 101.805 23.218C101.441 23.61 101.259 24.128 101.259 24.772V26.004C101.259 26.648 101.441 27.1707 101.805 27.572C102.169 27.964 102.669 28.16 103.303 28.16ZM109.386 20.082C109.144 20.082 108.966 20.026 108.854 19.914C108.752 19.7927 108.7 19.6387 108.7 19.452V19.27C108.7 19.0833 108.752 18.934 108.854 18.822C108.966 18.7007 109.144 18.64 109.386 18.64C109.629 18.64 109.802 18.7007 109.904 18.822C110.016 18.934 110.072 19.0833 110.072 19.27V19.452C110.072 19.6387 110.016 19.7927 109.904 19.914C109.802 20.026 109.629 20.082 109.386 20.082ZM108.826 21.776H109.946V29H108.826V21.776ZM115.216 29.168C114.731 29.168 114.288 29.0793 113.886 28.902C113.485 28.7247 113.14 28.4727 112.85 28.146C112.57 27.81 112.351 27.4133 112.192 26.956C112.034 26.4893 111.954 25.9667 111.954 25.388C111.954 24.8187 112.034 24.3007 112.192 23.834C112.351 23.3673 112.57 22.9707 112.85 22.644C113.14 22.308 113.485 22.0513 113.886 21.874C114.288 21.6967 114.731 21.608 115.216 21.608C115.702 21.608 116.14 21.6967 116.532 21.874C116.934 22.0513 117.279 22.308 117.568 22.644C117.858 22.9707 118.082 23.3673 118.24 23.834C118.399 24.3007 118.478 24.8187 118.478 25.388C118.478 25.9667 118.399 26.4893 118.24 26.956C118.082 27.4133 117.858 27.81 117.568 28.146C117.279 28.4727 116.934 28.7247 116.532 28.902C116.14 29.0793 115.702 29.168 115.216 29.168ZM115.216 28.174C115.823 28.174 116.318 27.9873 116.7 27.614C117.083 27.2407 117.274 26.6713 117.274 25.906V24.87C117.274 24.1047 117.083 23.5353 116.7 23.162C116.318 22.7887 115.823 22.602 115.216 22.602C114.61 22.602 114.115 22.7887 113.732 23.162C113.35 23.5353 113.158 24.1047 113.158 24.87V25.906C113.158 26.6713 113.35 27.2407 113.732 27.614C114.115 27.9873 114.61 28.174 115.216 28.174ZM120.48 29V21.776H121.6V22.952H121.656C121.834 22.5413 122.081 22.2147 122.398 21.972C122.725 21.7293 123.159 21.608 123.7 21.608C124.447 21.608 125.035 21.8507 125.464 22.336C125.903 22.812 126.122 23.4887 126.122 24.366V29H125.002V24.562C125.002 23.2647 124.456 22.616 123.364 22.616C123.14 22.616 122.921 22.644 122.706 22.7C122.501 22.756 122.314 22.84 122.146 22.952C121.978 23.064 121.843 23.2087 121.74 23.386C121.647 23.554 121.6 23.7547 121.6 23.988V29H120.48Z" fill="#161616"/>
</svg>
