<svg width="386" height="18" viewBox="0 0 386 18" fill="none" xmlns="http://www.w3.org/2000/svg">
<rect width="94" height="18" fill="white" fill-opacity="0.01" style="mix-blend-mode:multiply"/>
<path d="M1.302 4.228H5.32C6.132 4.228 6.76667 4.45667 7.224 4.914C7.69067 5.37133 7.924 5.98267 7.924 6.748C7.924 7.112 7.87267 7.42 7.77 7.672C7.66733 7.924 7.53667 8.134 7.378 8.302C7.21933 8.46067 7.04667 8.582 6.86 8.666C6.67333 8.74067 6.50067 8.792 6.342 8.82V8.904C6.51933 8.91333 6.71533 8.96 6.93 9.044C7.154 9.128 7.364 9.26333 7.56 9.45C7.756 9.62733 7.91933 9.86067 8.05 10.15C8.19 10.43 8.26 10.7707 8.26 11.172C8.26 11.5733 8.19467 11.9467 8.064 12.292C7.94267 12.6373 7.77 12.936 7.546 13.188C7.322 13.44 7.056 13.6407 6.748 13.79C6.44 13.93 6.104 14 5.74 14H1.302V4.228ZM2.478 12.964H5.376C5.88 12.964 6.27667 12.838 6.566 12.586C6.85533 12.3247 7 11.9467 7 11.452V10.976C7 10.4813 6.85533 10.108 6.566 9.856C6.27667 9.59467 5.88 9.464 5.376 9.464H2.478V12.964ZM2.478 8.456H5.18C5.64667 8.456 6.01067 8.33933 6.272 8.106C6.53333 7.87267 6.664 7.53667 6.664 7.098V6.622C6.664 6.18333 6.53333 5.84733 6.272 5.614C6.01067 5.38067 5.64667 5.264 5.18 5.264H2.478V8.456ZM10.4965 14V6.776H11.6165V8.106H11.6865C11.8172 7.76067 12.0505 7.45267 12.3865 7.182C12.7225 6.91133 13.1845 6.776 13.7725 6.776H14.2065V7.896H13.5485C12.9418 7.896 12.4658 8.01267 12.1205 8.246C11.7845 8.47 11.6165 8.75467 11.6165 9.1V14H10.4965ZM18.4447 14.168C17.9501 14.168 17.5021 14.0793 17.1007 13.902C16.7087 13.7247 16.3681 13.4727 16.0787 13.146C15.7987 12.81 15.5794 12.4133 15.4207 11.956C15.2714 11.4893 15.1967 10.9667 15.1967 10.388C15.1967 9.81867 15.2714 9.30067 15.4207 8.834C15.5794 8.36733 15.7987 7.97067 16.0787 7.644C16.3681 7.308 16.7087 7.05133 17.1007 6.874C17.5021 6.69667 17.9501 6.608 18.4447 6.608C18.9301 6.608 19.3641 6.69667 19.7467 6.874C20.1294 7.05133 20.4561 7.29867 20.7268 7.616C20.9974 7.924 21.2027 8.29267 21.3428 8.722C21.4921 9.15133 21.5668 9.62267 21.5668 10.136V10.668H16.3727V11.004C16.3727 11.312 16.4194 11.6013 16.5127 11.872C16.6154 12.1333 16.7554 12.362 16.9327 12.558C17.1194 12.754 17.3434 12.908 17.6047 13.02C17.8754 13.132 18.1787 13.188 18.5147 13.188C18.9721 13.188 19.3687 13.0807 19.7047 12.866C20.0501 12.6513 20.3161 12.3433 20.5028 11.942L21.3007 12.516C21.0674 13.0107 20.7034 13.412 20.2088 13.72C19.7141 14.0187 19.1261 14.168 18.4447 14.168ZM18.4447 7.546C18.1367 7.546 17.8567 7.602 17.6047 7.714C17.3527 7.81667 17.1334 7.966 16.9467 8.162C16.7694 8.358 16.6294 8.59133 16.5267 8.862C16.4241 9.12333 16.3727 9.41267 16.3727 9.73V9.828H20.3627V9.674C20.3627 9.03 20.1854 8.51667 19.8307 8.134C19.4854 7.742 19.0234 7.546 18.4447 7.546ZM28.8223 14C28.4023 14 28.099 13.888 27.9123 13.664C27.735 13.44 27.623 13.16 27.5763 12.824H27.5063C27.3477 13.272 27.0863 13.608 26.7223 13.832C26.3583 14.056 25.9243 14.168 25.4203 14.168C24.655 14.168 24.0577 13.972 23.6283 13.58C23.2083 13.188 22.9983 12.656 22.9983 11.984C22.9983 11.3027 23.2457 10.78 23.7403 10.416C24.2443 10.052 25.0237 9.87 26.0783 9.87H27.5063V9.156C27.5063 8.64267 27.3663 8.25067 27.0863 7.98C26.8063 7.70933 26.377 7.574 25.7983 7.574C25.3597 7.574 24.991 7.672 24.6923 7.868C24.403 8.064 24.1603 8.32533 23.9643 8.652L23.2923 8.022C23.4883 7.63 23.801 7.29867 24.2303 7.028C24.6597 6.748 25.201 6.608 25.8543 6.608C26.7317 6.608 27.413 6.82267 27.8983 7.252C28.3837 7.68133 28.6263 8.27867 28.6263 9.044V13.02H29.4523V14H28.8223ZM25.6023 13.216C25.8823 13.216 26.139 13.1833 26.3723 13.118C26.6057 13.0527 26.8063 12.9593 26.9743 12.838C27.1423 12.7167 27.273 12.5767 27.3663 12.418C27.4597 12.2593 27.5063 12.0867 27.5063 11.9V10.71H26.0223C25.3783 10.71 24.907 10.8033 24.6083 10.99C24.319 11.1767 24.1743 11.4473 24.1743 11.802V12.096C24.1743 12.4507 24.3003 12.726 24.5523 12.922C24.8137 13.118 25.1637 13.216 25.6023 13.216ZM35.8309 12.824H35.7749C35.3362 13.72 34.6315 14.168 33.6609 14.168C33.2129 14.168 32.8069 14.0793 32.4429 13.902C32.0789 13.7247 31.7662 13.4727 31.5049 13.146C31.2529 12.8193 31.0569 12.4227 30.9169 11.956C30.7862 11.4893 30.7209 10.9667 30.7209 10.388C30.7209 9.80933 30.7862 9.28667 30.9169 8.82C31.0569 8.35333 31.2529 7.95667 31.5049 7.63C31.7662 7.30333 32.0789 7.05133 32.4429 6.874C32.8069 6.69667 33.2129 6.608 33.6609 6.608C34.1649 6.608 34.5942 6.72 34.9489 6.944C35.3129 7.15867 35.5882 7.49467 35.7749 7.952H35.8309V3.64H36.9509V14H35.8309V12.824ZM33.9689 13.16C34.2209 13.16 34.4589 13.1273 34.6829 13.062C34.9162 12.9967 35.1169 12.9033 35.2849 12.782C35.4529 12.6513 35.5835 12.4973 35.6769 12.32C35.7795 12.1333 35.8309 11.9233 35.8309 11.69V9.002C35.8309 8.806 35.7795 8.624 35.6769 8.456C35.5835 8.27867 35.4529 8.12933 35.2849 8.008C35.1169 7.88667 34.9162 7.79333 34.6829 7.728C34.4589 7.65333 34.2209 7.616 33.9689 7.616C33.3342 7.616 32.8349 7.81667 32.4709 8.218C32.1069 8.61 31.9249 9.128 31.9249 9.772V11.004C31.9249 11.648 32.1069 12.1707 32.4709 12.572C32.8349 12.964 33.3342 13.16 33.9689 13.16ZM42.18 14.168C41.676 14.168 41.2233 14.0793 40.822 13.902C40.4206 13.7247 40.08 13.4727 39.8 13.146C39.5293 12.8193 39.3193 12.4227 39.17 11.956C39.03 11.4893 38.96 10.9667 38.96 10.388C38.96 9.80933 39.03 9.28667 39.17 8.82C39.3193 8.35333 39.5293 7.95667 39.8 7.63C40.08 7.30333 40.4206 7.05133 40.822 6.874C41.2233 6.69667 41.676 6.608 42.18 6.608C42.8986 6.608 43.4726 6.76667 43.902 7.084C44.3406 7.392 44.6673 7.798 44.882 8.302L43.944 8.778C43.8133 8.40467 43.5986 8.11533 43.3 7.91C43.0013 7.70467 42.628 7.602 42.18 7.602C41.844 7.602 41.55 7.658 41.298 7.77C41.046 7.87267 40.836 8.022 40.668 8.218C40.5 8.40467 40.374 8.63333 40.29 8.904C40.206 9.16533 40.164 9.45467 40.164 9.772V11.004C40.164 11.6387 40.332 12.1613 40.668 12.572C41.0133 12.9733 41.5173 13.174 42.18 13.174C43.0853 13.174 43.7386 12.754 44.14 11.914L44.952 12.46C44.7186 12.9827 44.3686 13.398 43.902 13.706C43.4446 14.014 42.8706 14.168 42.18 14.168ZM46.693 14V6.776H47.813V8.106H47.883C48.0136 7.76067 48.247 7.45267 48.583 7.182C48.919 6.91133 49.381 6.776 49.969 6.776H50.403V7.896H49.745C49.1383 7.896 48.6623 8.01267 48.317 8.246C47.981 8.47 47.813 8.75467 47.813 9.1V14H46.693ZM56.4456 12.824H56.3896C56.3149 12.992 56.2216 13.16 56.1096 13.328C56.0069 13.4867 55.8763 13.6313 55.7176 13.762C55.5589 13.8833 55.3676 13.9813 55.1436 14.056C54.9196 14.1307 54.6583 14.168 54.3596 14.168C53.6129 14.168 53.0203 13.93 52.5816 13.454C52.1429 12.9687 51.9236 12.2873 51.9236 11.41V6.776H53.0436V11.214C53.0436 12.5113 53.5943 13.16 54.6956 13.16C54.9196 13.16 55.1343 13.132 55.3396 13.076C55.5543 13.02 55.7409 12.936 55.8996 12.824C56.0676 12.712 56.1983 12.572 56.2916 12.404C56.3943 12.2267 56.4456 12.0167 56.4456 11.774V6.776H57.5656V14H56.4456V12.824ZM60.1106 14V6.776H61.2306V7.952H61.2866C61.3706 7.76533 61.464 7.59267 61.5666 7.434C61.6786 7.266 61.8093 7.12133 61.9586 7C62.1173 6.87867 62.2993 6.78533 62.5046 6.72C62.71 6.64533 62.9526 6.608 63.2326 6.608C63.7086 6.608 64.1473 6.72467 64.5486 6.958C64.95 7.182 65.2486 7.55533 65.4446 8.078H65.4726C65.6033 7.686 65.846 7.34533 66.2006 7.056C66.5646 6.75733 67.0546 6.608 67.6706 6.608C68.408 6.608 68.982 6.85067 69.3926 7.336C69.8126 7.812 70.0226 8.48867 70.0226 9.366V14H68.9026V9.562C68.9026 8.918 68.7766 8.43267 68.5246 8.106C68.2726 7.77933 67.8713 7.616 67.3206 7.616C67.0966 7.616 66.882 7.644 66.6766 7.7C66.4806 7.756 66.3033 7.84 66.1446 7.952C65.986 8.064 65.86 8.20867 65.7666 8.386C65.6733 8.554 65.6266 8.75467 65.6266 8.988V14H64.5066V9.562C64.5066 8.918 64.3806 8.43267 64.1286 8.106C63.8766 7.77933 63.4846 7.616 62.9526 7.616C62.7286 7.616 62.514 7.644 62.3086 7.7C62.1033 7.756 61.9213 7.84 61.7626 7.952C61.604 8.064 61.4733 8.20867 61.3706 8.386C61.2773 8.554 61.2306 8.75467 61.2306 8.988V14H60.1106ZM72.4933 3.64H73.6133V7.952H73.6693C73.856 7.49467 74.1266 7.15867 74.4813 6.944C74.8453 6.72 75.2793 6.608 75.7833 6.608C76.2313 6.608 76.6373 6.69667 77.0013 6.874C77.3653 7.05133 77.6733 7.30333 77.9253 7.63C78.1866 7.95667 78.3826 8.35333 78.5133 8.82C78.6533 9.28667 78.7233 9.80933 78.7233 10.388C78.7233 10.9667 78.6533 11.4893 78.5133 11.956C78.3826 12.4227 78.1866 12.8193 77.9253 13.146C77.6733 13.4727 77.3653 13.7247 77.0013 13.902C76.6373 14.0793 76.2313 14.168 75.7833 14.168C74.8033 14.168 74.0986 13.72 73.6693 12.824H73.6133V14H72.4933V3.64ZM75.4753 13.16C76.11 13.16 76.6093 12.964 76.9733 12.572C77.3373 12.1707 77.5193 11.648 77.5193 11.004V9.772C77.5193 9.128 77.3373 8.61 76.9733 8.218C76.6093 7.81667 76.11 7.616 75.4753 7.616C75.2233 7.616 74.9806 7.65333 74.7473 7.728C74.5233 7.79333 74.3273 7.88667 74.1593 8.008C73.9913 8.12933 73.856 8.27867 73.7533 8.456C73.66 8.624 73.6133 8.806 73.6133 9.002V11.69C73.6133 11.9233 73.66 12.1333 73.7533 12.32C73.856 12.4973 73.9913 12.6513 74.1593 12.782C74.3273 12.9033 74.5233 12.9967 74.7473 13.062C74.9806 13.1273 75.2233 13.16 75.4753 13.16Z" fill="#0F62FE"/>
<path d="M88.126 16.114L91.78 3.64H92.788L89.134 16.114H88.126Z" fill="#161616"/>
<rect width="94" height="18" transform="translate(102)" fill="white" fill-opacity="0.01" style="mix-blend-mode:multiply"/>
<path d="M103.302 4.228H107.32C108.132 4.228 108.767 4.45667 109.224 4.914C109.691 5.37133 109.924 5.98267 109.924 6.748C109.924 7.112 109.873 7.42 109.77 7.672C109.667 7.924 109.537 8.134 109.378 8.302C109.219 8.46067 109.047 8.582 108.86 8.666C108.673 8.74067 108.501 8.792 108.342 8.82V8.904C108.519 8.91333 108.715 8.96 108.93 9.044C109.154 9.128 109.364 9.26333 109.56 9.45C109.756 9.62733 109.919 9.86067 110.05 10.15C110.19 10.43 110.26 10.7707 110.26 11.172C110.26 11.5733 110.195 11.9467 110.064 12.292C109.943 12.6373 109.77 12.936 109.546 13.188C109.322 13.44 109.056 13.6407 108.748 13.79C108.44 13.93 108.104 14 107.74 14H103.302V4.228ZM104.478 12.964H107.376C107.88 12.964 108.277 12.838 108.566 12.586C108.855 12.3247 109 11.9467 109 11.452V10.976C109 10.4813 108.855 10.108 108.566 9.856C108.277 9.59467 107.88 9.464 107.376 9.464H104.478V12.964ZM104.478 8.456H107.18C107.647 8.456 108.011 8.33933 108.272 8.106C108.533 7.87267 108.664 7.53667 108.664 7.098V6.622C108.664 6.18333 108.533 5.84733 108.272 5.614C108.011 5.38067 107.647 5.264 107.18 5.264H104.478V8.456ZM112.496 14V6.776H113.616V8.106H113.686C113.817 7.76067 114.05 7.45267 114.386 7.182C114.722 6.91133 115.184 6.776 115.772 6.776H116.206V7.896H115.548C114.942 7.896 114.466 8.01267 114.12 8.246C113.784 8.47 113.616 8.75467 113.616 9.1V14H112.496ZM120.445 14.168C119.95 14.168 119.502 14.0793 119.101 13.902C118.709 13.7247 118.368 13.4727 118.079 13.146C117.799 12.81 117.579 12.4133 117.421 11.956C117.271 11.4893 117.197 10.9667 117.197 10.388C117.197 9.81867 117.271 9.30067 117.421 8.834C117.579 8.36733 117.799 7.97067 118.079 7.644C118.368 7.308 118.709 7.05133 119.101 6.874C119.502 6.69667 119.95 6.608 120.445 6.608C120.93 6.608 121.364 6.69667 121.747 6.874C122.129 7.05133 122.456 7.29867 122.727 7.616C122.997 7.924 123.203 8.29267 123.343 8.722C123.492 9.15133 123.567 9.62267 123.567 10.136V10.668H118.373V11.004C118.373 11.312 118.419 11.6013 118.513 11.872C118.615 12.1333 118.755 12.362 118.933 12.558C119.119 12.754 119.343 12.908 119.605 13.02C119.875 13.132 120.179 13.188 120.515 13.188C120.972 13.188 121.369 13.0807 121.705 12.866C122.05 12.6513 122.316 12.3433 122.503 11.942L123.301 12.516C123.067 13.0107 122.703 13.412 122.209 13.72C121.714 14.0187 121.126 14.168 120.445 14.168ZM120.445 7.546C120.137 7.546 119.857 7.602 119.605 7.714C119.353 7.81667 119.133 7.966 118.947 8.162C118.769 8.358 118.629 8.59133 118.527 8.862C118.424 9.12333 118.373 9.41267 118.373 9.73V9.828H122.363V9.674C122.363 9.03 122.185 8.51667 121.831 8.134C121.485 7.742 121.023 7.546 120.445 7.546ZM130.822 14C130.402 14 130.099 13.888 129.912 13.664C129.735 13.44 129.623 13.16 129.576 12.824H129.506C129.348 13.272 129.086 13.608 128.722 13.832C128.358 14.056 127.924 14.168 127.42 14.168C126.655 14.168 126.058 13.972 125.628 13.58C125.208 13.188 124.998 12.656 124.998 11.984C124.998 11.3027 125.246 10.78 125.74 10.416C126.244 10.052 127.024 9.87 128.078 9.87H129.506V9.156C129.506 8.64267 129.366 8.25067 129.086 7.98C128.806 7.70933 128.377 7.574 127.798 7.574C127.36 7.574 126.991 7.672 126.692 7.868C126.403 8.064 126.16 8.32533 125.964 8.652L125.292 8.022C125.488 7.63 125.801 7.29867 126.23 7.028C126.66 6.748 127.201 6.608 127.854 6.608C128.732 6.608 129.413 6.82267 129.898 7.252C130.384 7.68133 130.626 8.27867 130.626 9.044V13.02H131.452V14H130.822ZM127.602 13.216C127.882 13.216 128.139 13.1833 128.372 13.118C128.606 13.0527 128.806 12.9593 128.974 12.838C129.142 12.7167 129.273 12.5767 129.366 12.418C129.46 12.2593 129.506 12.0867 129.506 11.9V10.71H128.022C127.378 10.71 126.907 10.8033 126.608 10.99C126.319 11.1767 126.174 11.4473 126.174 11.802V12.096C126.174 12.4507 126.3 12.726 126.552 12.922C126.814 13.118 127.164 13.216 127.602 13.216ZM137.831 12.824H137.775C137.336 13.72 136.632 14.168 135.661 14.168C135.213 14.168 134.807 14.0793 134.443 13.902C134.079 13.7247 133.766 13.4727 133.505 13.146C133.253 12.8193 133.057 12.4227 132.917 11.956C132.786 11.4893 132.721 10.9667 132.721 10.388C132.721 9.80933 132.786 9.28667 132.917 8.82C133.057 8.35333 133.253 7.95667 133.505 7.63C133.766 7.30333 134.079 7.05133 134.443 6.874C134.807 6.69667 135.213 6.608 135.661 6.608C136.165 6.608 136.594 6.72 136.949 6.944C137.313 7.15867 137.588 7.49467 137.775 7.952H137.831V3.64H138.951V14H137.831V12.824ZM135.969 13.16C136.221 13.16 136.459 13.1273 136.683 13.062C136.916 12.9967 137.117 12.9033 137.285 12.782C137.453 12.6513 137.584 12.4973 137.677 12.32C137.78 12.1333 137.831 11.9233 137.831 11.69V9.002C137.831 8.806 137.78 8.624 137.677 8.456C137.584 8.27867 137.453 8.12933 137.285 8.008C137.117 7.88667 136.916 7.79333 136.683 7.728C136.459 7.65333 136.221 7.616 135.969 7.616C135.334 7.616 134.835 7.81667 134.471 8.218C134.107 8.61 133.925 9.128 133.925 9.772V11.004C133.925 11.648 134.107 12.1707 134.471 12.572C134.835 12.964 135.334 13.16 135.969 13.16ZM144.18 14.168C143.676 14.168 143.223 14.0793 142.822 13.902C142.421 13.7247 142.08 13.4727 141.8 13.146C141.529 12.8193 141.319 12.4227 141.17 11.956C141.03 11.4893 140.96 10.9667 140.96 10.388C140.96 9.80933 141.03 9.28667 141.17 8.82C141.319 8.35333 141.529 7.95667 141.8 7.63C142.08 7.30333 142.421 7.05133 142.822 6.874C143.223 6.69667 143.676 6.608 144.18 6.608C144.899 6.608 145.473 6.76667 145.902 7.084C146.341 7.392 146.667 7.798 146.882 8.302L145.944 8.778C145.813 8.40467 145.599 8.11533 145.3 7.91C145.001 7.70467 144.628 7.602 144.18 7.602C143.844 7.602 143.55 7.658 143.298 7.77C143.046 7.87267 142.836 8.022 142.668 8.218C142.5 8.40467 142.374 8.63333 142.29 8.904C142.206 9.16533 142.164 9.45467 142.164 9.772V11.004C142.164 11.6387 142.332 12.1613 142.668 12.572C143.013 12.9733 143.517 13.174 144.18 13.174C145.085 13.174 145.739 12.754 146.14 11.914L146.952 12.46C146.719 12.9827 146.369 13.398 145.902 13.706C145.445 14.014 144.871 14.168 144.18 14.168ZM148.693 14V6.776H149.813V8.106H149.883C150.014 7.76067 150.247 7.45267 150.583 7.182C150.919 6.91133 151.381 6.776 151.969 6.776H152.403V7.896H151.745C151.138 7.896 150.662 8.01267 150.317 8.246C149.981 8.47 149.813 8.75467 149.813 9.1V14H148.693ZM158.446 12.824H158.39C158.315 12.992 158.222 13.16 158.11 13.328C158.007 13.4867 157.876 13.6313 157.718 13.762C157.559 13.8833 157.368 13.9813 157.144 14.056C156.92 14.1307 156.658 14.168 156.36 14.168C155.613 14.168 155.02 13.93 154.582 13.454C154.143 12.9687 153.924 12.2873 153.924 11.41V6.776H155.044V11.214C155.044 12.5113 155.594 13.16 156.696 13.16C156.92 13.16 157.134 13.132 157.34 13.076C157.554 13.02 157.741 12.936 157.9 12.824C158.068 12.712 158.198 12.572 158.292 12.404C158.394 12.2267 158.446 12.0167 158.446 11.774V6.776H159.566V14H158.446V12.824ZM162.111 14V6.776H163.231V7.952H163.287C163.371 7.76533 163.464 7.59267 163.567 7.434C163.679 7.266 163.809 7.12133 163.959 7C164.117 6.87867 164.299 6.78533 164.505 6.72C164.71 6.64533 164.953 6.608 165.233 6.608C165.709 6.608 166.147 6.72467 166.549 6.958C166.95 7.182 167.249 7.55533 167.445 8.078H167.473C167.603 7.686 167.846 7.34533 168.201 7.056C168.565 6.75733 169.055 6.608 169.671 6.608C170.408 6.608 170.982 6.85067 171.393 7.336C171.813 7.812 172.023 8.48867 172.023 9.366V14H170.903V9.562C170.903 8.918 170.777 8.43267 170.525 8.106C170.273 7.77933 169.871 7.616 169.321 7.616C169.097 7.616 168.882 7.644 168.677 7.7C168.481 7.756 168.303 7.84 168.145 7.952C167.986 8.064 167.86 8.20867 167.767 8.386C167.673 8.554 167.627 8.75467 167.627 8.988V14H166.507V9.562C166.507 8.918 166.381 8.43267 166.129 8.106C165.877 7.77933 165.485 7.616 164.953 7.616C164.729 7.616 164.514 7.644 164.309 7.7C164.103 7.756 163.921 7.84 163.763 7.952C163.604 8.064 163.473 8.20867 163.371 8.386C163.277 8.554 163.231 8.75467 163.231 8.988V14H162.111ZM174.493 3.64H175.613V7.952H175.669C175.856 7.49467 176.127 7.15867 176.481 6.944C176.845 6.72 177.279 6.608 177.783 6.608C178.231 6.608 178.637 6.69667 179.001 6.874C179.365 7.05133 179.673 7.30333 179.925 7.63C180.187 7.95667 180.383 8.35333 180.513 8.82C180.653 9.28667 180.723 9.80933 180.723 10.388C180.723 10.9667 180.653 11.4893 180.513 11.956C180.383 12.4227 180.187 12.8193 179.925 13.146C179.673 13.4727 179.365 13.7247 179.001 13.902C178.637 14.0793 178.231 14.168 177.783 14.168C176.803 14.168 176.099 13.72 175.669 12.824H175.613V14H174.493V3.64ZM177.475 13.16C178.11 13.16 178.609 12.964 178.973 12.572C179.337 12.1707 179.519 11.648 179.519 11.004V9.772C179.519 9.128 179.337 8.61 178.973 8.218C178.609 7.81667 178.11 7.616 177.475 7.616C177.223 7.616 176.981 7.65333 176.747 7.728C176.523 7.79333 176.327 7.88667 176.159 8.008C175.991 8.12933 175.856 8.27867 175.753 8.456C175.66 8.624 175.613 8.806 175.613 9.002V11.69C175.613 11.9233 175.66 12.1333 175.753 12.32C175.856 12.4973 175.991 12.6513 176.159 12.782C176.327 12.9033 176.523 12.9967 176.747 13.062C176.981 13.1273 177.223 13.16 177.475 13.16Z" fill="#0F62FE"/>
<path d="M190.126 16.114L193.78 3.64H194.788L191.134 16.114H190.126Z" fill="#161616"/>
<rect width="94" height="18" transform="translate(204)" fill="white" fill-opacity="0.01" style="mix-blend-mode:multiply"/>
<path d="M205.302 4.228H209.32C210.132 4.228 210.767 4.45667 211.224 4.914C211.691 5.37133 211.924 5.98267 211.924 6.748C211.924 7.112 211.873 7.42 211.77 7.672C211.667 7.924 211.537 8.134 211.378 8.302C211.219 8.46067 211.047 8.582 210.86 8.666C210.673 8.74067 210.501 8.792 210.342 8.82V8.904C210.519 8.91333 210.715 8.96 210.93 9.044C211.154 9.128 211.364 9.26333 211.56 9.45C211.756 9.62733 211.919 9.86067 212.05 10.15C212.19 10.43 212.26 10.7707 212.26 11.172C212.26 11.5733 212.195 11.9467 212.064 12.292C211.943 12.6373 211.77 12.936 211.546 13.188C211.322 13.44 211.056 13.6407 210.748 13.79C210.44 13.93 210.104 14 209.74 14H205.302V4.228ZM206.478 12.964H209.376C209.88 12.964 210.277 12.838 210.566 12.586C210.855 12.3247 211 11.9467 211 11.452V10.976C211 10.4813 210.855 10.108 210.566 9.856C210.277 9.59467 209.88 9.464 209.376 9.464H206.478V12.964ZM206.478 8.456H209.18C209.647 8.456 210.011 8.33933 210.272 8.106C210.533 7.87267 210.664 7.53667 210.664 7.098V6.622C210.664 6.18333 210.533 5.84733 210.272 5.614C210.011 5.38067 209.647 5.264 209.18 5.264H206.478V8.456ZM214.496 14V6.776H215.616V8.106H215.686C215.817 7.76067 216.05 7.45267 216.386 7.182C216.722 6.91133 217.184 6.776 217.772 6.776H218.206V7.896H217.548C216.942 7.896 216.466 8.01267 216.12 8.246C215.784 8.47 215.616 8.75467 215.616 9.1V14H214.496ZM222.445 14.168C221.95 14.168 221.502 14.0793 221.101 13.902C220.709 13.7247 220.368 13.4727 220.079 13.146C219.799 12.81 219.579 12.4133 219.421 11.956C219.271 11.4893 219.197 10.9667 219.197 10.388C219.197 9.81867 219.271 9.30067 219.421 8.834C219.579 8.36733 219.799 7.97067 220.079 7.644C220.368 7.308 220.709 7.05133 221.101 6.874C221.502 6.69667 221.95 6.608 222.445 6.608C222.93 6.608 223.364 6.69667 223.747 6.874C224.129 7.05133 224.456 7.29867 224.727 7.616C224.997 7.924 225.203 8.29267 225.343 8.722C225.492 9.15133 225.567 9.62267 225.567 10.136V10.668H220.373V11.004C220.373 11.312 220.419 11.6013 220.513 11.872C220.615 12.1333 220.755 12.362 220.933 12.558C221.119 12.754 221.343 12.908 221.605 13.02C221.875 13.132 222.179 13.188 222.515 13.188C222.972 13.188 223.369 13.0807 223.705 12.866C224.05 12.6513 224.316 12.3433 224.503 11.942L225.301 12.516C225.067 13.0107 224.703 13.412 224.209 13.72C223.714 14.0187 223.126 14.168 222.445 14.168ZM222.445 7.546C222.137 7.546 221.857 7.602 221.605 7.714C221.353 7.81667 221.133 7.966 220.947 8.162C220.769 8.358 220.629 8.59133 220.527 8.862C220.424 9.12333 220.373 9.41267 220.373 9.73V9.828H224.363V9.674C224.363 9.03 224.185 8.51667 223.831 8.134C223.485 7.742 223.023 7.546 222.445 7.546ZM232.822 14C232.402 14 232.099 13.888 231.912 13.664C231.735 13.44 231.623 13.16 231.576 12.824H231.506C231.348 13.272 231.086 13.608 230.722 13.832C230.358 14.056 229.924 14.168 229.42 14.168C228.655 14.168 228.058 13.972 227.628 13.58C227.208 13.188 226.998 12.656 226.998 11.984C226.998 11.3027 227.246 10.78 227.74 10.416C228.244 10.052 229.024 9.87 230.078 9.87H231.506V9.156C231.506 8.64267 231.366 8.25067 231.086 7.98C230.806 7.70933 230.377 7.574 229.798 7.574C229.36 7.574 228.991 7.672 228.692 7.868C228.403 8.064 228.16 8.32533 227.964 8.652L227.292 8.022C227.488 7.63 227.801 7.29867 228.23 7.028C228.66 6.748 229.201 6.608 229.854 6.608C230.732 6.608 231.413 6.82267 231.898 7.252C232.384 7.68133 232.626 8.27867 232.626 9.044V13.02H233.452V14H232.822ZM229.602 13.216C229.882 13.216 230.139 13.1833 230.372 13.118C230.606 13.0527 230.806 12.9593 230.974 12.838C231.142 12.7167 231.273 12.5767 231.366 12.418C231.46 12.2593 231.506 12.0867 231.506 11.9V10.71H230.022C229.378 10.71 228.907 10.8033 228.608 10.99C228.319 11.1767 228.174 11.4473 228.174 11.802V12.096C228.174 12.4507 228.3 12.726 228.552 12.922C228.814 13.118 229.164 13.216 229.602 13.216ZM239.831 12.824H239.775C239.336 13.72 238.632 14.168 237.661 14.168C237.213 14.168 236.807 14.0793 236.443 13.902C236.079 13.7247 235.766 13.4727 235.505 13.146C235.253 12.8193 235.057 12.4227 234.917 11.956C234.786 11.4893 234.721 10.9667 234.721 10.388C234.721 9.80933 234.786 9.28667 234.917 8.82C235.057 8.35333 235.253 7.95667 235.505 7.63C235.766 7.30333 236.079 7.05133 236.443 6.874C236.807 6.69667 237.213 6.608 237.661 6.608C238.165 6.608 238.594 6.72 238.949 6.944C239.313 7.15867 239.588 7.49467 239.775 7.952H239.831V3.64H240.951V14H239.831V12.824ZM237.969 13.16C238.221 13.16 238.459 13.1273 238.683 13.062C238.916 12.9967 239.117 12.9033 239.285 12.782C239.453 12.6513 239.584 12.4973 239.677 12.32C239.78 12.1333 239.831 11.9233 239.831 11.69V9.002C239.831 8.806 239.78 8.624 239.677 8.456C239.584 8.27867 239.453 8.12933 239.285 8.008C239.117 7.88667 238.916 7.79333 238.683 7.728C238.459 7.65333 238.221 7.616 237.969 7.616C237.334 7.616 236.835 7.81667 236.471 8.218C236.107 8.61 235.925 9.128 235.925 9.772V11.004C235.925 11.648 236.107 12.1707 236.471 12.572C236.835 12.964 237.334 13.16 237.969 13.16ZM246.18 14.168C245.676 14.168 245.223 14.0793 244.822 13.902C244.421 13.7247 244.08 13.4727 243.8 13.146C243.529 12.8193 243.319 12.4227 243.17 11.956C243.03 11.4893 242.96 10.9667 242.96 10.388C242.96 9.80933 243.03 9.28667 243.17 8.82C243.319 8.35333 243.529 7.95667 243.8 7.63C244.08 7.30333 244.421 7.05133 244.822 6.874C245.223 6.69667 245.676 6.608 246.18 6.608C246.899 6.608 247.473 6.76667 247.902 7.084C248.341 7.392 248.667 7.798 248.882 8.302L247.944 8.778C247.813 8.40467 247.599 8.11533 247.3 7.91C247.001 7.70467 246.628 7.602 246.18 7.602C245.844 7.602 245.55 7.658 245.298 7.77C245.046 7.87267 244.836 8.022 244.668 8.218C244.5 8.40467 244.374 8.63333 244.29 8.904C244.206 9.16533 244.164 9.45467 244.164 9.772V11.004C244.164 11.6387 244.332 12.1613 244.668 12.572C245.013 12.9733 245.517 13.174 246.18 13.174C247.085 13.174 247.739 12.754 248.14 11.914L248.952 12.46C248.719 12.9827 248.369 13.398 247.902 13.706C247.445 14.014 246.871 14.168 246.18 14.168ZM250.693 14V6.776H251.813V8.106H251.883C252.014 7.76067 252.247 7.45267 252.583 7.182C252.919 6.91133 253.381 6.776 253.969 6.776H254.403V7.896H253.745C253.138 7.896 252.662 8.01267 252.317 8.246C251.981 8.47 251.813 8.75467 251.813 9.1V14H250.693ZM260.446 12.824H260.39C260.315 12.992 260.222 13.16 260.11 13.328C260.007 13.4867 259.876 13.6313 259.718 13.762C259.559 13.8833 259.368 13.9813 259.144 14.056C258.92 14.1307 258.658 14.168 258.36 14.168C257.613 14.168 257.02 13.93 256.582 13.454C256.143 12.9687 255.924 12.2873 255.924 11.41V6.776H257.044V11.214C257.044 12.5113 257.594 13.16 258.696 13.16C258.92 13.16 259.134 13.132 259.34 13.076C259.554 13.02 259.741 12.936 259.9 12.824C260.068 12.712 260.198 12.572 260.292 12.404C260.394 12.2267 260.446 12.0167 260.446 11.774V6.776H261.566V14H260.446V12.824ZM264.111 14V6.776H265.231V7.952H265.287C265.371 7.76533 265.464 7.59267 265.567 7.434C265.679 7.266 265.809 7.12133 265.959 7C266.117 6.87867 266.299 6.78533 266.505 6.72C266.71 6.64533 266.953 6.608 267.233 6.608C267.709 6.608 268.147 6.72467 268.549 6.958C268.95 7.182 269.249 7.55533 269.445 8.078H269.473C269.603 7.686 269.846 7.34533 270.201 7.056C270.565 6.75733 271.055 6.608 271.671 6.608C272.408 6.608 272.982 6.85067 273.393 7.336C273.813 7.812 274.023 8.48867 274.023 9.366V14H272.903V9.562C272.903 8.918 272.777 8.43267 272.525 8.106C272.273 7.77933 271.871 7.616 271.321 7.616C271.097 7.616 270.882 7.644 270.677 7.7C270.481 7.756 270.303 7.84 270.145 7.952C269.986 8.064 269.86 8.20867 269.767 8.386C269.673 8.554 269.627 8.75467 269.627 8.988V14H268.507V9.562C268.507 8.918 268.381 8.43267 268.129 8.106C267.877 7.77933 267.485 7.616 266.953 7.616C266.729 7.616 266.514 7.644 266.309 7.7C266.103 7.756 265.921 7.84 265.763 7.952C265.604 8.064 265.473 8.20867 265.371 8.386C265.277 8.554 265.231 8.75467 265.231 8.988V14H264.111ZM276.493 3.64H277.613V7.952H277.669C277.856 7.49467 278.127 7.15867 278.481 6.944C278.845 6.72 279.279 6.608 279.783 6.608C280.231 6.608 280.637 6.69667 281.001 6.874C281.365 7.05133 281.673 7.30333 281.925 7.63C282.187 7.95667 282.383 8.35333 282.513 8.82C282.653 9.28667 282.723 9.80933 282.723 10.388C282.723 10.9667 282.653 11.4893 282.513 11.956C282.383 12.4227 282.187 12.8193 281.925 13.146C281.673 13.4727 281.365 13.7247 281.001 13.902C280.637 14.0793 280.231 14.168 279.783 14.168C278.803 14.168 278.099 13.72 277.669 12.824H277.613V14H276.493V3.64ZM279.475 13.16C280.11 13.16 280.609 12.964 280.973 12.572C281.337 12.1707 281.519 11.648 281.519 11.004V9.772C281.519 9.128 281.337 8.61 280.973 8.218C280.609 7.81667 280.11 7.616 279.475 7.616C279.223 7.616 278.981 7.65333 278.747 7.728C278.523 7.79333 278.327 7.88667 278.159 8.008C277.991 8.12933 277.856 8.27867 277.753 8.456C277.66 8.624 277.613 8.806 277.613 9.002V11.69C277.613 11.9233 277.66 12.1333 277.753 12.32C277.856 12.4973 277.991 12.6513 278.159 12.782C278.327 12.9033 278.523 12.9967 278.747 13.062C278.981 13.1273 279.223 13.16 279.475 13.16Z" fill="#0F62FE"/>
<path d="M292.126 16.114L295.78 3.64H296.788L293.134 16.114H292.126Z" fill="#161616"/>
<rect width="80" height="18" transform="translate(306)" fill="white" fill-opacity="0.01" style="mix-blend-mode:multiply"/>
<path d="M307.302 4.228H311.32C312.132 4.228 312.767 4.45667 313.224 4.914C313.691 5.37133 313.924 5.98267 313.924 6.748C313.924 7.112 313.873 7.42 313.77 7.672C313.667 7.924 313.537 8.134 313.378 8.302C313.219 8.46067 313.047 8.582 312.86 8.666C312.673 8.74067 312.501 8.792 312.342 8.82V8.904C312.519 8.91333 312.715 8.96 312.93 9.044C313.154 9.128 313.364 9.26333 313.56 9.45C313.756 9.62733 313.919 9.86067 314.05 10.15C314.19 10.43 314.26 10.7707 314.26 11.172C314.26 11.5733 314.195 11.9467 314.064 12.292C313.943 12.6373 313.77 12.936 313.546 13.188C313.322 13.44 313.056 13.6407 312.748 13.79C312.44 13.93 312.104 14 311.74 14H307.302V4.228ZM308.478 12.964H311.376C311.88 12.964 312.277 12.838 312.566 12.586C312.855 12.3247 313 11.9467 313 11.452V10.976C313 10.4813 312.855 10.108 312.566 9.856C312.277 9.59467 311.88 9.464 311.376 9.464H308.478V12.964ZM308.478 8.456H311.18C311.647 8.456 312.011 8.33933 312.272 8.106C312.533 7.87267 312.664 7.53667 312.664 7.098V6.622C312.664 6.18333 312.533 5.84733 312.272 5.614C312.011 5.38067 311.647 5.264 311.18 5.264H308.478V8.456ZM316.496 14V6.776H317.616V8.106H317.686C317.817 7.76067 318.05 7.45267 318.386 7.182C318.722 6.91133 319.184 6.776 319.772 6.776H320.206V7.896H319.548C318.942 7.896 318.466 8.01267 318.12 8.246C317.784 8.47 317.616 8.75467 317.616 9.1V14H316.496ZM324.445 14.168C323.95 14.168 323.502 14.0793 323.101 13.902C322.709 13.7247 322.368 13.4727 322.079 13.146C321.799 12.81 321.579 12.4133 321.421 11.956C321.271 11.4893 321.197 10.9667 321.197 10.388C321.197 9.81867 321.271 9.30067 321.421 8.834C321.579 8.36733 321.799 7.97067 322.079 7.644C322.368 7.308 322.709 7.05133 323.101 6.874C323.502 6.69667 323.95 6.608 324.445 6.608C324.93 6.608 325.364 6.69667 325.747 6.874C326.129 7.05133 326.456 7.29867 326.727 7.616C326.997 7.924 327.203 8.29267 327.343 8.722C327.492 9.15133 327.567 9.62267 327.567 10.136V10.668H322.373V11.004C322.373 11.312 322.419 11.6013 322.513 11.872C322.615 12.1333 322.755 12.362 322.933 12.558C323.119 12.754 323.343 12.908 323.605 13.02C323.875 13.132 324.179 13.188 324.515 13.188C324.972 13.188 325.369 13.0807 325.705 12.866C326.05 12.6513 326.316 12.3433 326.503 11.942L327.301 12.516C327.067 13.0107 326.703 13.412 326.209 13.72C325.714 14.0187 325.126 14.168 324.445 14.168ZM324.445 7.546C324.137 7.546 323.857 7.602 323.605 7.714C323.353 7.81667 323.133 7.966 322.947 8.162C322.769 8.358 322.629 8.59133 322.527 8.862C322.424 9.12333 322.373 9.41267 322.373 9.73V9.828H326.363V9.674C326.363 9.03 326.185 8.51667 325.831 8.134C325.485 7.742 325.023 7.546 324.445 7.546ZM334.822 14C334.402 14 334.099 13.888 333.912 13.664C333.735 13.44 333.623 13.16 333.576 12.824H333.506C333.348 13.272 333.086 13.608 332.722 13.832C332.358 14.056 331.924 14.168 331.42 14.168C330.655 14.168 330.058 13.972 329.628 13.58C329.208 13.188 328.998 12.656 328.998 11.984C328.998 11.3027 329.246 10.78 329.74 10.416C330.244 10.052 331.024 9.87 332.078 9.87H333.506V9.156C333.506 8.64267 333.366 8.25067 333.086 7.98C332.806 7.70933 332.377 7.574 331.798 7.574C331.36 7.574 330.991 7.672 330.692 7.868C330.403 8.064 330.16 8.32533 329.964 8.652L329.292 8.022C329.488 7.63 329.801 7.29867 330.23 7.028C330.66 6.748 331.201 6.608 331.854 6.608C332.732 6.608 333.413 6.82267 333.898 7.252C334.384 7.68133 334.626 8.27867 334.626 9.044V13.02H335.452V14H334.822ZM331.602 13.216C331.882 13.216 332.139 13.1833 332.372 13.118C332.606 13.0527 332.806 12.9593 332.974 12.838C333.142 12.7167 333.273 12.5767 333.366 12.418C333.46 12.2593 333.506 12.0867 333.506 11.9V10.71H332.022C331.378 10.71 330.907 10.8033 330.608 10.99C330.319 11.1767 330.174 11.4473 330.174 11.802V12.096C330.174 12.4507 330.3 12.726 330.552 12.922C330.814 13.118 331.164 13.216 331.602 13.216ZM341.831 12.824H341.775C341.336 13.72 340.632 14.168 339.661 14.168C339.213 14.168 338.807 14.0793 338.443 13.902C338.079 13.7247 337.766 13.4727 337.505 13.146C337.253 12.8193 337.057 12.4227 336.917 11.956C336.786 11.4893 336.721 10.9667 336.721 10.388C336.721 9.80933 336.786 9.28667 336.917 8.82C337.057 8.35333 337.253 7.95667 337.505 7.63C337.766 7.30333 338.079 7.05133 338.443 6.874C338.807 6.69667 339.213 6.608 339.661 6.608C340.165 6.608 340.594 6.72 340.949 6.944C341.313 7.15867 341.588 7.49467 341.775 7.952H341.831V3.64H342.951V14H341.831V12.824ZM339.969 13.16C340.221 13.16 340.459 13.1273 340.683 13.062C340.916 12.9967 341.117 12.9033 341.285 12.782C341.453 12.6513 341.584 12.4973 341.677 12.32C341.78 12.1333 341.831 11.9233 341.831 11.69V9.002C341.831 8.806 341.78 8.624 341.677 8.456C341.584 8.27867 341.453 8.12933 341.285 8.008C341.117 7.88667 340.916 7.79333 340.683 7.728C340.459 7.65333 340.221 7.616 339.969 7.616C339.334 7.616 338.835 7.81667 338.471 8.218C338.107 8.61 337.925 9.128 337.925 9.772V11.004C337.925 11.648 338.107 12.1707 338.471 12.572C338.835 12.964 339.334 13.16 339.969 13.16ZM348.18 14.168C347.676 14.168 347.223 14.0793 346.822 13.902C346.421 13.7247 346.08 13.4727 345.8 13.146C345.529 12.8193 345.319 12.4227 345.17 11.956C345.03 11.4893 344.96 10.9667 344.96 10.388C344.96 9.80933 345.03 9.28667 345.17 8.82C345.319 8.35333 345.529 7.95667 345.8 7.63C346.08 7.30333 346.421 7.05133 346.822 6.874C347.223 6.69667 347.676 6.608 348.18 6.608C348.899 6.608 349.473 6.76667 349.902 7.084C350.341 7.392 350.667 7.798 350.882 8.302L349.944 8.778C349.813 8.40467 349.599 8.11533 349.3 7.91C349.001 7.70467 348.628 7.602 348.18 7.602C347.844 7.602 347.55 7.658 347.298 7.77C347.046 7.87267 346.836 8.022 346.668 8.218C346.5 8.40467 346.374 8.63333 346.29 8.904C346.206 9.16533 346.164 9.45467 346.164 9.772V11.004C346.164 11.6387 346.332 12.1613 346.668 12.572C347.013 12.9733 347.517 13.174 348.18 13.174C349.085 13.174 349.739 12.754 350.14 11.914L350.952 12.46C350.719 12.9827 350.369 13.398 349.902 13.706C349.445 14.014 348.871 14.168 348.18 14.168ZM352.693 14V6.776H353.813V8.106H353.883C354.014 7.76067 354.247 7.45267 354.583 7.182C354.919 6.91133 355.381 6.776 355.969 6.776H356.403V7.896H355.745C355.138 7.896 354.662 8.01267 354.317 8.246C353.981 8.47 353.813 8.75467 353.813 9.1V14H352.693ZM362.446 12.824H362.39C362.315 12.992 362.222 13.16 362.11 13.328C362.007 13.4867 361.876 13.6313 361.718 13.762C361.559 13.8833 361.368 13.9813 361.144 14.056C360.92 14.1307 360.658 14.168 360.36 14.168C359.613 14.168 359.02 13.93 358.582 13.454C358.143 12.9687 357.924 12.2873 357.924 11.41V6.776H359.044V11.214C359.044 12.5113 359.594 13.16 360.696 13.16C360.92 13.16 361.134 13.132 361.34 13.076C361.554 13.02 361.741 12.936 361.9 12.824C362.068 12.712 362.198 12.572 362.292 12.404C362.394 12.2267 362.446 12.0167 362.446 11.774V6.776H363.566V14H362.446V12.824ZM366.111 14V6.776H367.231V7.952H367.287C367.371 7.76533 367.464 7.59267 367.567 7.434C367.679 7.266 367.809 7.12133 367.959 7C368.117 6.87867 368.299 6.78533 368.505 6.72C368.71 6.64533 368.953 6.608 369.233 6.608C369.709 6.608 370.147 6.72467 370.549 6.958C370.95 7.182 371.249 7.55533 371.445 8.078H371.473C371.603 7.686 371.846 7.34533 372.201 7.056C372.565 6.75733 373.055 6.608 373.671 6.608C374.408 6.608 374.982 6.85067 375.393 7.336C375.813 7.812 376.023 8.48867 376.023 9.366V14H374.903V9.562C374.903 8.918 374.777 8.43267 374.525 8.106C374.273 7.77933 373.871 7.616 373.321 7.616C373.097 7.616 372.882 7.644 372.677 7.7C372.481 7.756 372.303 7.84 372.145 7.952C371.986 8.064 371.86 8.20867 371.767 8.386C371.673 8.554 371.627 8.75467 371.627 8.988V14H370.507V9.562C370.507 8.918 370.381 8.43267 370.129 8.106C369.877 7.77933 369.485 7.616 368.953 7.616C368.729 7.616 368.514 7.644 368.309 7.7C368.103 7.756 367.921 7.84 367.763 7.952C367.604 8.064 367.473 8.20867 367.371 8.386C367.277 8.554 367.231 8.75467 367.231 8.988V14H366.111ZM378.493 3.64H379.613V7.952H379.669C379.856 7.49467 380.127 7.15867 380.481 6.944C380.845 6.72 381.279 6.608 381.783 6.608C382.231 6.608 382.637 6.69667 383.001 6.874C383.365 7.05133 383.673 7.30333 383.925 7.63C384.187 7.95667 384.383 8.35333 384.513 8.82C384.653 9.28667 384.723 9.80933 384.723 10.388C384.723 10.9667 384.653 11.4893 384.513 11.956C384.383 12.4227 384.187 12.8193 383.925 13.146C383.673 13.4727 383.365 13.7247 383.001 13.902C382.637 14.0793 382.231 14.168 381.783 14.168C380.803 14.168 380.099 13.72 379.669 12.824H379.613V14H378.493V3.64ZM381.475 13.16C382.11 13.16 382.609 12.964 382.973 12.572C383.337 12.1707 383.519 11.648 383.519 11.004V9.772C383.519 9.128 383.337 8.61 382.973 8.218C382.609 7.81667 382.11 7.616 381.475 7.616C381.223 7.616 380.981 7.65333 380.747 7.728C380.523 7.79333 380.327 7.88667 380.159 8.008C379.991 8.12933 379.856 8.27867 379.753 8.456C379.66 8.624 379.613 8.806 379.613 9.002V11.69C379.613 11.9233 379.66 12.1333 379.753 12.32C379.856 12.4973 379.991 12.6513 380.159 12.782C380.327 12.9033 380.523 12.9967 380.747 13.062C380.981 13.1273 381.223 13.16 381.475 13.16Z" fill="#161616"/>
</svg>
