<svg width="124" height="48" viewBox="0 0 124 48" fill="none" xmlns="http://www.w3.org/2000/svg">
<g clip-path="url(#clip0_254_15198)">
<rect width="124" height="48" fill="#0F62FE"/>
<g clip-path="url(#clip1_254_15198)">
<rect width="16" height="16" transform="translate(92 16)" fill="white" fill-opacity="0.01" style="mix-blend-mode:multiply"/>
<path d="M100.5 23.5V20H99.5V23.5H96V24.5H99.5V28H100.5V24.5H104V23.5H100.5Z" fill="white"/>
</g>
<path d="M17.302 19.228H21.32C22.132 19.228 22.7667 19.4567 23.224 19.914C23.6907 20.3713 23.924 20.9827 23.924 21.748C23.924 22.112 23.8727 22.42 23.77 22.672C23.6673 22.924 23.5367 23.134 23.378 23.302C23.2193 23.4607 23.0467 23.582 22.86 23.666C22.6733 23.7407 22.5007 23.792 22.342 23.82V23.904C22.5193 23.9133 22.7153 23.96 22.93 24.044C23.154 24.128 23.364 24.2633 23.56 24.45C23.756 24.6273 23.9193 24.8607 24.05 25.15C24.19 25.43 24.26 25.7707 24.26 26.172C24.26 26.5733 24.1947 26.9467 24.064 27.292C23.9427 27.6373 23.77 27.936 23.546 28.188C23.322 28.44 23.056 28.6407 22.748 28.79C22.44 28.93 22.104 29 21.74 29H17.302V19.228ZM18.478 27.964H21.376C21.88 27.964 22.2767 27.838 22.566 27.586C22.8553 27.3247 23 26.9467 23 26.452V25.976C23 25.4813 22.8553 25.108 22.566 24.856C22.2767 24.5947 21.88 24.464 21.376 24.464H18.478V27.964ZM18.478 23.456H21.18C21.6467 23.456 22.0107 23.3393 22.272 23.106C22.5333 22.8727 22.664 22.5367 22.664 22.098V21.622C22.664 21.1833 22.5333 20.8473 22.272 20.614C22.0107 20.3807 21.6467 20.264 21.18 20.264H18.478V23.456ZM30.9485 27.824H30.8925C30.8178 27.992 30.7245 28.16 30.6125 28.328C30.5098 28.4867 30.3792 28.6313 30.2205 28.762C30.0618 28.8833 29.8705 28.9813 29.6465 29.056C29.4225 29.1307 29.1612 29.168 28.8625 29.168C28.1158 29.168 27.5232 28.93 27.0845 28.454C26.6458 27.9687 26.4265 27.2873 26.4265 26.41V21.776H27.5465V26.214C27.5465 27.5113 28.0972 28.16 29.1985 28.16C29.4225 28.16 29.6372 28.132 29.8425 28.076C30.0572 28.02 30.2438 27.936 30.4025 27.824C30.5705 27.712 30.7012 27.572 30.7945 27.404C30.8972 27.2267 30.9485 27.0167 30.9485 26.774V21.776H32.0685V29H30.9485V27.824ZM36.2095 29C35.8175 29 35.5188 28.8927 35.3135 28.678C35.1175 28.454 35.0195 28.1647 35.0195 27.81V22.756H33.8295V21.776H34.5015C34.7442 21.776 34.9075 21.7293 34.9915 21.636C35.0848 21.5333 35.1315 21.3607 35.1315 21.118V19.774H36.1395V21.776H37.7215V22.756H36.1395V28.02H37.6095V29H36.2095ZM41.1547 29C40.7627 29 40.464 28.8927 40.2587 28.678C40.0627 28.454 39.9647 28.1647 39.9647 27.81V22.756H38.7747V21.776H39.4467C39.6893 21.776 39.8527 21.7293 39.9367 21.636C40.03 21.5333 40.0767 21.3607 40.0767 21.118V19.774H41.0847V21.776H42.6667V22.756H41.0847V28.02H42.5547V29H41.1547ZM47.3022 29.168C46.8169 29.168 46.3735 29.0793 45.9722 28.902C45.5709 28.7247 45.2255 28.4727 44.9362 28.146C44.6562 27.81 44.4369 27.4133 44.2782 26.956C44.1195 26.4893 44.0402 25.9667 44.0402 25.388C44.0402 24.8187 44.1195 24.3007 44.2782 23.834C44.4369 23.3673 44.6562 22.9707 44.9362 22.644C45.2255 22.308 45.5709 22.0513 45.9722 21.874C46.3735 21.6967 46.8169 21.608 47.3022 21.608C47.7875 21.608 48.2262 21.6967 48.6182 21.874C49.0195 22.0513 49.3649 22.308 49.6542 22.644C49.9435 22.9707 50.1675 23.3673 50.3262 23.834C50.4849 24.3007 50.5642 24.8187 50.5642 25.388C50.5642 25.9667 50.4849 26.4893 50.3262 26.956C50.1675 27.4133 49.9435 27.81 49.6542 28.146C49.3649 28.4727 49.0195 28.7247 48.6182 28.902C48.2262 29.0793 47.7875 29.168 47.3022 29.168ZM47.3022 28.174C47.9089 28.174 48.4035 27.9873 48.7862 27.614C49.1689 27.2407 49.3602 26.6713 49.3602 25.906V24.87C49.3602 24.1047 49.1689 23.5353 48.7862 23.162C48.4035 22.7887 47.9089 22.602 47.3022 22.602C46.6955 22.602 46.2009 22.7887 45.8182 23.162C45.4355 23.5353 45.2442 24.1047 45.2442 24.87V25.906C45.2442 26.6713 45.4355 27.2407 45.8182 27.614C46.2009 27.9873 46.6955 28.174 47.3022 28.174ZM52.5662 29V21.776H53.6862V22.952H53.7422C53.9195 22.5413 54.1668 22.2147 54.4842 21.972C54.8108 21.7293 55.2448 21.608 55.7862 21.608C56.5328 21.608 57.1208 21.8507 57.5502 22.336C57.9888 22.812 58.2082 23.4887 58.2082 24.366V29H57.0882V24.562C57.0882 23.2647 56.5422 22.616 55.4502 22.616C55.2262 22.616 55.0068 22.644 54.7922 22.7C54.5868 22.756 54.4002 22.84 54.2322 22.952C54.0642 23.064 53.9288 23.2087 53.8262 23.386C53.7328 23.554 53.6862 23.7547 53.6862 23.988V29H52.5662Z" fill="white"/>
</g>
<defs>
<clipPath id="clip0_254_15198">
<rect width="124" height="48" fill="white"/>
</clipPath>
<clipPath id="clip1_254_15198">
<rect width="16" height="16" fill="white" transform="translate(92 16)"/>
</clipPath>
</defs>
</svg>
