<svg width="126" height="44" viewBox="0 0 126 44" fill="none" xmlns="http://www.w3.org/2000/svg">
<rect width="126" height="44" fill="white" fill-opacity="0.01" style="mix-blend-mode:multiply"/>
<rect width="20" height="20" transform="translate(0 24)" fill="white" fill-opacity="0.01" style="mix-blend-mode:multiply"/>
<path d="M16.25 26.5H3.75C3.41848 26.5 3.10054 26.6317 2.86612 26.8661C2.6317 27.1005 2.5 27.4185 2.5 27.75V40.25C2.5 40.5815 2.6317 40.8995 2.86612 41.1339C3.10054 41.3683 3.41848 41.5 3.75 41.5H16.25C16.5815 41.5 16.8995 41.3683 17.1339 41.1339C17.3683 40.8995 17.5 40.5815 17.5 40.25V27.75C17.5 27.4185 17.3683 27.1005 17.1339 26.8661C16.8995 26.6317 16.5815 26.5 16.25 26.5ZM3.75 40.25V27.75H16.25V40.25H3.75Z" fill="#161616"/>
<path d="M32.746 39.168C31.5047 39.168 30.5387 38.748 29.848 37.908C29.1573 37.0587 28.812 35.8127 28.812 34.17C28.812 32.5273 29.1573 31.2673 29.848 30.39C30.5387 29.5033 31.5047 29.06 32.746 29.06C33.5673 29.06 34.2533 29.2467 34.804 29.62C35.364 29.9933 35.798 30.5207 36.106 31.202L35.154 31.776C34.958 31.272 34.6593 30.8707 34.258 30.572C33.8567 30.264 33.3527 30.11 32.746 30.11C32.326 30.11 31.948 30.1893 31.612 30.348C31.2853 30.5067 31.0053 30.7353 30.772 31.034C30.548 31.3233 30.3753 31.6733 30.254 32.084C30.1327 32.4853 30.072 32.938 30.072 33.442V34.898C30.072 35.906 30.3053 36.6947 30.772 37.264C31.2387 37.8333 31.8967 38.118 32.746 38.118C33.3713 38.118 33.894 37.9593 34.314 37.642C34.734 37.3153 35.042 36.886 35.238 36.354L36.176 36.942C35.868 37.6327 35.4247 38.1787 34.846 38.58C34.2673 38.972 33.5673 39.168 32.746 39.168ZM38.0453 28.64H39.1653V32.952H39.2213C39.3986 32.5413 39.646 32.2147 39.9633 31.972C40.29 31.7293 40.724 31.608 41.2653 31.608C42.012 31.608 42.6 31.8507 43.0293 32.336C43.468 32.812 43.6873 33.4887 43.6873 34.366V39H42.5673V34.562C42.5673 33.2647 42.0213 32.616 40.9293 32.616C40.7053 32.616 40.486 32.644 40.2713 32.7C40.066 32.756 39.8793 32.84 39.7113 32.952C39.5433 33.064 39.408 33.2087 39.3053 33.386C39.212 33.554 39.1653 33.7547 39.1653 33.988V39H38.0453V28.64ZM48.8783 39.168C48.3837 39.168 47.9357 39.0793 47.5343 38.902C47.1423 38.7247 46.8017 38.4727 46.5123 38.146C46.2323 37.81 46.013 37.4133 45.8543 36.956C45.705 36.4893 45.6303 35.9667 45.6303 35.388C45.6303 34.8187 45.705 34.3007 45.8543 33.834C46.013 33.3673 46.2323 32.9707 46.5123 32.644C46.8017 32.308 47.1423 32.0513 47.5343 31.874C47.9357 31.6967 48.3837 31.608 48.8783 31.608C49.3637 31.608 49.7977 31.6967 50.1803 31.874C50.563 32.0513 50.8897 32.2987 51.1603 32.616C51.431 32.924 51.6363 33.2927 51.7763 33.722C51.9257 34.1513 52.0003 34.6227 52.0003 35.136V35.668H46.8063V36.004C46.8063 36.312 46.853 36.6013 46.9463 36.872C47.049 37.1333 47.189 37.362 47.3663 37.558C47.553 37.754 47.777 37.908 48.0383 38.02C48.309 38.132 48.6123 38.188 48.9483 38.188C49.4057 38.188 49.8023 38.0807 50.1383 37.866C50.4837 37.6513 50.7497 37.3433 50.9363 36.942L51.7343 37.516C51.501 38.0107 51.137 38.412 50.6423 38.72C50.1477 39.0187 49.5597 39.168 48.8783 39.168ZM48.8783 32.546C48.5703 32.546 48.2903 32.602 48.0383 32.714C47.7863 32.8167 47.567 32.966 47.3803 33.162C47.203 33.358 47.063 33.5913 46.9603 33.862C46.8577 34.1233 46.8063 34.4127 46.8063 34.73V34.828H50.7963V34.674C50.7963 34.03 50.619 33.5167 50.2643 33.134C49.919 32.742 49.457 32.546 48.8783 32.546ZM56.6939 39.168C56.1899 39.168 55.7373 39.0793 55.3359 38.902C54.9346 38.7247 54.5939 38.4727 54.3139 38.146C54.0433 37.8193 53.8333 37.4227 53.6839 36.956C53.5439 36.4893 53.4739 35.9667 53.4739 35.388C53.4739 34.8093 53.5439 34.2867 53.6839 33.82C53.8333 33.3533 54.0433 32.9567 54.3139 32.63C54.5939 32.3033 54.9346 32.0513 55.3359 31.874C55.7373 31.6967 56.1899 31.608 56.6939 31.608C57.4126 31.608 57.9866 31.7667 58.4159 32.084C58.8546 32.392 59.1813 32.798 59.3959 33.302L58.4579 33.778C58.3273 33.4047 58.1126 33.1153 57.8139 32.91C57.5153 32.7047 57.1419 32.602 56.6939 32.602C56.3579 32.602 56.0639 32.658 55.8119 32.77C55.5599 32.8727 55.3499 33.022 55.1819 33.218C55.0139 33.4047 54.8879 33.6333 54.8039 33.904C54.7199 34.1653 54.6779 34.4547 54.6779 34.772V36.004C54.6779 36.6387 54.8459 37.1613 55.1819 37.572C55.5273 37.9733 56.0313 38.174 56.6939 38.174C57.5993 38.174 58.2526 37.754 58.6539 36.914L59.4659 37.46C59.2326 37.9827 58.8826 38.398 58.4159 38.706C57.9586 39.014 57.3846 39.168 56.6939 39.168ZM61.207 28.64H62.327V35.206H62.383L63.489 33.974L65.533 31.776H66.891L64.217 34.632L67.157 39H65.799L63.405 35.318L62.327 36.424V39H61.207V28.64ZM68.7498 28.64H69.8698V32.952H69.9258C70.1124 32.4947 70.3831 32.1587 70.7378 31.944C71.1018 31.72 71.5358 31.608 72.0398 31.608C72.4878 31.608 72.8938 31.6967 73.2578 31.874C73.6218 32.0513 73.9298 32.3033 74.1818 32.63C74.4431 32.9567 74.6391 33.3533 74.7698 33.82C74.9098 34.2867 74.9798 34.8093 74.9798 35.388C74.9798 35.9667 74.9098 36.4893 74.7698 36.956C74.6391 37.4227 74.4431 37.8193 74.1818 38.146C73.9298 38.4727 73.6218 38.7247 73.2578 38.902C72.8938 39.0793 72.4878 39.168 72.0398 39.168C71.0598 39.168 70.3551 38.72 69.9258 37.824H69.8698V39H68.7498V28.64ZM71.7318 38.16C72.3664 38.16 72.8658 37.964 73.2298 37.572C73.5938 37.1707 73.7758 36.648 73.7758 36.004V34.772C73.7758 34.128 73.5938 33.61 73.2298 33.218C72.8658 32.8167 72.3664 32.616 71.7318 32.616C71.4798 32.616 71.2371 32.6533 71.0038 32.728C70.7798 32.7933 70.5838 32.8867 70.4158 33.008C70.2478 33.1293 70.1124 33.2787 70.0098 33.456C69.9164 33.624 69.8698 33.806 69.8698 34.002V36.69C69.8698 36.9233 69.9164 37.1333 70.0098 37.32C70.1124 37.4973 70.2478 37.6513 70.4158 37.782C70.5838 37.9033 70.7798 37.9967 71.0038 38.062C71.2371 38.1273 71.4798 38.16 71.7318 38.16ZM79.7609 39.168C79.2755 39.168 78.8322 39.0793 78.4309 38.902C78.0295 38.7247 77.6842 38.4727 77.3949 38.146C77.1149 37.81 76.8955 37.4133 76.7369 36.956C76.5782 36.4893 76.4989 35.9667 76.4989 35.388C76.4989 34.8187 76.5782 34.3007 76.7369 33.834C76.8955 33.3673 77.1149 32.9707 77.3949 32.644C77.6842 32.308 78.0295 32.0513 78.4309 31.874C78.8322 31.6967 79.2755 31.608 79.7609 31.608C80.2462 31.608 80.6849 31.6967 81.0769 31.874C81.4782 32.0513 81.8235 32.308 82.1129 32.644C82.4022 32.9707 82.6262 33.3673 82.7849 33.834C82.9435 34.3007 83.0229 34.8187 83.0229 35.388C83.0229 35.9667 82.9435 36.4893 82.7849 36.956C82.6262 37.4133 82.4022 37.81 82.1129 38.146C81.8235 38.4727 81.4782 38.7247 81.0769 38.902C80.6849 39.0793 80.2462 39.168 79.7609 39.168ZM79.7609 38.174C80.3675 38.174 80.8622 37.9873 81.2449 37.614C81.6275 37.2407 81.8189 36.6713 81.8189 35.906V34.87C81.8189 34.1047 81.6275 33.5353 81.2449 33.162C80.8622 32.7887 80.3675 32.602 79.7609 32.602C79.1542 32.602 78.6595 32.7887 78.2769 33.162C77.8942 33.5353 77.7029 34.1047 77.7029 34.87V35.906C77.7029 36.6713 77.8942 37.2407 78.2769 37.614C78.6595 37.9873 79.1542 38.174 79.7609 38.174ZM83.9648 39L86.6388 35.36L84.0768 31.776H85.3928L87.2268 34.464H87.2688L89.1728 31.776H90.4188L87.8708 35.276L90.4748 39H89.1588L87.2828 36.172H87.2408L85.2108 39H83.9648ZM96.7751 39C96.3831 39 96.0844 38.8927 95.8791 38.678C95.6831 38.454 95.5851 38.174 95.5851 37.838V28.64H96.7051V38.02H97.7691V39H96.7751ZM104.81 39C104.39 39 104.086 38.888 103.9 38.664C103.722 38.44 103.61 38.16 103.564 37.824H103.494C103.335 38.272 103.074 38.608 102.71 38.832C102.346 39.056 101.912 39.168 101.408 39.168C100.642 39.168 100.045 38.972 99.6155 38.58C99.1955 38.188 98.9855 37.656 98.9855 36.984C98.9855 36.3027 99.2329 35.78 99.7275 35.416C100.232 35.052 101.011 34.87 102.066 34.87H103.494V34.156C103.494 33.6427 103.354 33.2507 103.074 32.98C102.794 32.7093 102.364 32.574 101.786 32.574C101.347 32.574 100.978 32.672 100.68 32.868C100.39 33.064 100.148 33.3253 99.9515 33.652L99.2795 33.022C99.4755 32.63 99.7882 32.2987 100.218 32.028C100.647 31.748 101.188 31.608 101.842 31.608C102.719 31.608 103.4 31.8227 103.886 32.252C104.371 32.6813 104.614 33.2787 104.614 34.044V38.02H105.44V39H104.81ZM101.59 38.216C101.87 38.216 102.126 38.1833 102.36 38.118C102.593 38.0527 102.794 37.9593 102.962 37.838C103.13 37.7167 103.26 37.5767 103.354 37.418C103.447 37.2593 103.494 37.0867 103.494 36.9V35.71H102.01C101.366 35.71 100.894 35.8033 100.596 35.99C100.306 36.1767 100.162 36.4473 100.162 36.802V37.096C100.162 37.4507 100.288 37.726 100.54 37.922C100.801 38.118 101.151 38.216 101.59 38.216ZM107.198 28.64H108.318V32.952H108.374C108.561 32.4947 108.831 32.1587 109.186 31.944C109.55 31.72 109.984 31.608 110.488 31.608C110.936 31.608 111.342 31.6967 111.706 31.874C112.07 32.0513 112.378 32.3033 112.63 32.63C112.891 32.9567 113.087 33.3533 113.218 33.82C113.358 34.2867 113.428 34.8093 113.428 35.388C113.428 35.9667 113.358 36.4893 113.218 36.956C113.087 37.4227 112.891 37.8193 112.63 38.146C112.378 38.4727 112.07 38.7247 111.706 38.902C111.342 39.0793 110.936 39.168 110.488 39.168C109.508 39.168 108.803 38.72 108.374 37.824H108.318V39H107.198V28.64ZM110.18 38.16C110.815 38.16 111.314 37.964 111.678 37.572C112.042 37.1707 112.224 36.648 112.224 36.004V34.772C112.224 34.128 112.042 33.61 111.678 33.218C111.314 32.8167 110.815 32.616 110.18 32.616C109.928 32.616 109.685 32.6533 109.452 32.728C109.228 32.7933 109.032 32.8867 108.864 33.008C108.696 33.1293 108.561 33.2787 108.458 33.456C108.365 33.624 108.318 33.806 108.318 34.002V36.69C108.318 36.9233 108.365 37.1333 108.458 37.32C108.561 37.4973 108.696 37.6513 108.864 37.782C109.032 37.9033 109.228 37.9967 109.452 38.062C109.685 38.1273 109.928 38.16 110.18 38.16ZM118.195 39.168C117.7 39.168 117.252 39.0793 116.851 38.902C116.459 38.7247 116.118 38.4727 115.829 38.146C115.549 37.81 115.33 37.4133 115.171 36.956C115.022 36.4893 114.947 35.9667 114.947 35.388C114.947 34.8187 115.022 34.3007 115.171 33.834C115.33 33.3673 115.549 32.9707 115.829 32.644C116.118 32.308 116.459 32.0513 116.851 31.874C117.252 31.6967 117.7 31.608 118.195 31.608C118.68 31.608 119.114 31.6967 119.497 31.874C119.88 32.0513 120.206 32.2987 120.477 32.616C120.748 32.924 120.953 33.2927 121.093 33.722C121.242 34.1513 121.317 34.6227 121.317 35.136V35.668H116.123V36.004C116.123 36.312 116.17 36.6013 116.263 36.872C116.366 37.1333 116.506 37.362 116.683 37.558C116.87 37.754 117.094 37.908 117.355 38.02C117.626 38.132 117.929 38.188 118.265 38.188C118.722 38.188 119.119 38.0807 119.455 37.866C119.8 37.6513 120.066 37.3433 120.253 36.942L121.051 37.516C120.818 38.0107 120.454 38.412 119.959 38.72C119.464 39.0187 118.876 39.168 118.195 39.168ZM118.195 32.546C117.887 32.546 117.607 32.602 117.355 32.714C117.103 32.8167 116.884 32.966 116.697 33.162C116.52 33.358 116.38 33.5913 116.277 33.862C116.174 34.1233 116.123 34.4127 116.123 34.73V34.828H120.113V34.674C120.113 34.03 119.936 33.5167 119.581 33.134C119.236 32.742 118.774 32.546 118.195 32.546ZM124.513 39C124.121 39 123.822 38.8927 123.617 38.678C123.421 38.454 123.323 38.174 123.323 37.838V28.64H124.443V38.02H125.507V39H124.513Z" fill="#161616"/>
<path d="M1.116 13V4.624H2.124V12.112H5.688V13H1.116ZM11.84 13C11.48 13 11.22 12.904 11.06 12.712C10.908 12.52 10.812 12.28 10.772 11.992H10.712C10.576 12.376 10.352 12.664 10.04 12.856C9.728 13.048 9.356 13.144 8.924 13.144C8.268 13.144 7.756 12.976 7.388 12.64C7.028 12.304 6.848 11.848 6.848 11.272C6.848 10.688 7.06 10.24 7.484 9.928C7.916 9.616 8.584 9.46 9.488 9.46H10.712V8.848C10.712 8.408 10.592 8.072 10.352 7.84C10.112 7.608 9.744 7.492 9.248 7.492C8.872 7.492 8.556 7.576 8.3 7.744C8.052 7.912 7.844 8.136 7.676 8.416L7.1 7.876C7.268 7.54 7.536 7.256 7.904 7.024C8.272 6.784 8.736 6.664 9.296 6.664C10.048 6.664 10.632 6.848 11.048 7.216C11.464 7.584 11.672 8.096 11.672 8.752V12.16H12.38V13H11.84ZM9.08 12.328C9.32 12.328 9.54 12.3 9.74 12.244C9.94 12.188 10.112 12.108 10.256 12.004C10.4 11.9 10.512 11.78 10.592 11.644C10.672 11.508 10.712 11.36 10.712 11.2V10.18H9.44C8.888 10.18 8.484 10.26 8.228 10.42C7.98 10.58 7.856 10.812 7.856 11.116V11.368C7.856 11.672 7.964 11.908 8.18 12.076C8.404 12.244 8.704 12.328 9.08 12.328ZM14.0702 4.12H15.0302V7.816H15.0782C15.2382 7.424 15.4702 7.136 15.7742 6.952C16.0862 6.76 16.4582 6.664 16.8902 6.664C17.2742 6.664 17.6222 6.74 17.9342 6.892C18.2462 7.044 18.5102 7.26 18.7262 7.54C18.9502 7.82 19.1182 8.16 19.2302 8.56C19.3502 8.96 19.4102 9.408 19.4102 9.904C19.4102 10.4 19.3502 10.848 19.2302 11.248C19.1182 11.648 18.9502 11.988 18.7262 12.268C18.5102 12.548 18.2462 12.764 17.9342 12.916C17.6222 13.068 17.2742 13.144 16.8902 13.144C16.0502 13.144 15.4462 12.76 15.0782 11.992H15.0302V13H14.0702V4.12ZM16.6262 12.28C17.1702 12.28 17.5982 12.112 17.9102 11.776C18.2222 11.432 18.3782 10.984 18.3782 10.432V9.376C18.3782 8.824 18.2222 8.38 17.9102 8.044C17.5982 7.7 17.1702 7.528 16.6262 7.528C16.4102 7.528 16.2022 7.56 16.0022 7.624C15.8102 7.68 15.6422 7.76 15.4982 7.864C15.3542 7.968 15.2382 8.096 15.1502 8.248C15.0702 8.392 15.0302 8.548 15.0302 8.716V11.02C15.0302 11.22 15.0702 11.4 15.1502 11.56C15.2382 11.712 15.3542 11.844 15.4982 11.956C15.6422 12.06 15.8102 12.14 16.0022 12.196C16.2022 12.252 16.4102 12.28 16.6262 12.28ZM23.6791 13.144C23.2551 13.144 22.8711 13.068 22.5271 12.916C22.1911 12.764 21.8991 12.548 21.6511 12.268C21.4111 11.98 21.2231 11.64 21.0871 11.248C20.9591 10.848 20.8951 10.4 20.8951 9.904C20.8951 9.416 20.9591 8.972 21.0871 8.572C21.2231 8.172 21.4111 7.832 21.6511 7.552C21.8991 7.264 22.1911 7.044 22.5271 6.892C22.8711 6.74 23.2551 6.664 23.6791 6.664C24.0951 6.664 24.4671 6.74 24.7951 6.892C25.1231 7.044 25.4031 7.256 25.6351 7.528C25.8671 7.792 26.0431 8.108 26.1631 8.476C26.2911 8.844 26.3551 9.248 26.3551 9.688V10.144H21.9031V10.432C21.9031 10.696 21.9431 10.944 22.0231 11.176C22.1111 11.4 22.2311 11.596 22.3831 11.764C22.5431 11.932 22.7351 12.064 22.9591 12.16C23.1911 12.256 23.4511 12.304 23.7391 12.304C24.1311 12.304 24.4711 12.212 24.7591 12.028C25.0551 11.844 25.2831 11.58 25.4431 11.236L26.1271 11.728C25.9271 12.152 25.6151 12.496 25.1911 12.76C24.7671 13.016 24.2631 13.144 23.6791 13.144ZM23.6791 7.468C23.4151 7.468 23.1751 7.516 22.9591 7.612C22.7431 7.7 22.5551 7.828 22.3951 7.996C22.2431 8.164 22.1231 8.364 22.0351 8.596C21.9471 8.82 21.9031 9.068 21.9031 9.34V9.424H25.3231V9.292C25.3231 8.74 25.1711 8.3 24.8671 7.972C24.5711 7.636 24.1751 7.468 23.6791 7.468ZM29.277 13C28.941 13 28.685 12.908 28.509 12.724C28.341 12.532 28.257 12.292 28.257 12.004V4.12H29.217V12.16H30.129V13H29.277Z" fill="#525252"/>
</svg>
