<svg width="432" height="48" viewBox="0 0 432 48" fill="none" xmlns="http://www.w3.org/2000/svg">
<g clip-path="url(#clip0_254_16613)">
<rect width="48" height="48" fill="white" fill-opacity="0.01" style="mix-blend-mode:multiply"/>
<g clip-path="url(#clip1_254_16613)">
<rect width="16" height="16" transform="translate(16 16)" fill="white" fill-opacity="0.01" style="mix-blend-mode:multiply"/>
<path d="M26 28L21 24L26 20V28Z" fill="#161616" fill-opacity="0.25"/>
</g>
</g>
<rect width="48" height="48" transform="translate(48)" fill="white" fill-opacity="0.01" style="mix-blend-mode:multiply"/>
<path d="M69.0767 29V27.502H71.7647V20.558H71.6387L69.5107 23.078L68.3627 22.112L70.7847 19.228H73.5707V27.502H75.8107V29H69.0767Z" fill="#161616"/>
<line x1="64" y1="46" x2="80" y2="46" stroke="#0F62FE" stroke-width="4"/>
<rect width="48" height="48" transform="translate(96)" fill="white" fill-opacity="0.01" style="mix-blend-mode:multiply"/>
<path d="M123.265 29H116.853V27.796L120.045 24.856C120.502 24.436 120.885 23.9927 121.193 23.526C121.501 23.05 121.655 22.574 121.655 22.098V21.93C121.655 21.3887 121.505 20.95 121.207 20.614C120.908 20.278 120.455 20.11 119.849 20.11C119.55 20.11 119.289 20.152 119.065 20.236C118.841 20.32 118.645 20.4367 118.477 20.586C118.318 20.7353 118.183 20.9127 118.071 21.118C117.968 21.314 117.884 21.5287 117.819 21.762L116.769 21.356C116.862 21.0667 116.988 20.7867 117.147 20.516C117.315 20.236 117.52 19.9887 117.763 19.774C118.015 19.5593 118.313 19.3867 118.659 19.256C119.013 19.1253 119.429 19.06 119.905 19.06C120.381 19.06 120.805 19.13 121.179 19.27C121.552 19.41 121.865 19.606 122.117 19.858C122.369 20.11 122.56 20.4087 122.691 20.754C122.831 21.0993 122.901 21.482 122.901 21.902C122.901 22.2847 122.845 22.6393 122.733 22.966C122.63 23.2927 122.485 23.6053 122.299 23.904C122.112 24.1933 121.883 24.478 121.613 24.758C121.351 25.038 121.067 25.318 120.759 25.598L118.127 27.964H123.265V29Z" fill="#161616"/>
<rect width="48" height="48" transform="translate(144)" fill="white" fill-opacity="0.01" style="mix-blend-mode:multiply"/>
<path d="M167.457 23.372C168.119 23.372 168.614 23.2227 168.941 22.924C169.277 22.616 169.445 22.224 169.445 21.748V21.65C169.445 21.1367 169.281 20.754 168.955 20.502C168.637 20.2407 168.217 20.11 167.695 20.11C167.191 20.11 166.78 20.222 166.463 20.446C166.145 20.6607 165.884 20.9547 165.679 21.328L164.811 20.656C164.932 20.46 165.077 20.2687 165.245 20.082C165.422 19.886 165.627 19.7133 165.861 19.564C166.094 19.4147 166.365 19.2933 166.673 19.2C166.981 19.1067 167.331 19.06 167.723 19.06C168.133 19.06 168.521 19.116 168.885 19.228C169.249 19.3307 169.561 19.4893 169.823 19.704C170.093 19.9093 170.303 20.166 170.453 20.474C170.611 20.782 170.691 21.132 170.691 21.524C170.691 21.8413 170.639 22.126 170.537 22.378C170.443 22.63 170.313 22.8493 170.145 23.036C169.977 23.2227 169.776 23.3813 169.543 23.512C169.319 23.6427 169.076 23.7407 168.815 23.806V23.862C169.076 23.918 169.328 24.0113 169.571 24.142C169.823 24.2633 170.042 24.4267 170.229 24.632C170.425 24.828 170.579 25.0707 170.691 25.36C170.812 25.64 170.873 25.962 170.873 26.326C170.873 26.746 170.793 27.1333 170.635 27.488C170.476 27.8333 170.252 28.132 169.963 28.384C169.673 28.6267 169.323 28.818 168.913 28.958C168.502 29.098 168.049 29.168 167.555 29.168C167.135 29.168 166.761 29.1213 166.435 29.028C166.108 28.9347 165.819 28.8087 165.567 28.65C165.315 28.4913 165.091 28.314 164.895 28.118C164.708 27.922 164.54 27.7167 164.391 27.502L165.273 26.83C165.394 27.026 165.525 27.2033 165.665 27.362C165.814 27.5207 165.977 27.656 166.155 27.768C166.332 27.88 166.533 27.9687 166.757 28.034C166.981 28.09 167.242 28.118 167.541 28.118C168.231 28.118 168.754 27.964 169.109 27.656C169.463 27.3387 169.641 26.8907 169.641 26.312V26.2C169.641 25.6213 169.463 25.178 169.109 24.87C168.754 24.5527 168.231 24.394 167.541 24.394H166.393V23.372H167.457Z" fill="#161616"/>
<rect width="48" height="48" transform="translate(192)" fill="white" fill-opacity="0.01" style="mix-blend-mode:multiply"/>
<path d="M217.053 29V27.082H212.335V26.046L216.423 19.228H218.173V26.102H219.587V27.082H218.173V29H217.053ZM213.441 26.102H217.053V20.138H216.983L213.441 26.102Z" fill="#161616"/>
<rect width="48" height="48" transform="translate(240)" fill="white" fill-opacity="0.01" style="mix-blend-mode:multiply"/>
<path d="M266.775 20.264H262.491L262.211 23.988H262.309C262.542 23.6613 262.803 23.4 263.093 23.204C263.391 23.008 263.797 22.91 264.311 22.91C264.731 22.91 265.118 22.98 265.473 23.12C265.827 23.26 266.135 23.4607 266.397 23.722C266.658 23.974 266.859 24.2867 266.999 24.66C267.148 25.0333 267.223 25.458 267.223 25.934C267.223 26.41 267.148 26.8487 266.999 27.25C266.849 27.642 266.63 27.9827 266.341 28.272C266.061 28.552 265.715 28.7713 265.305 28.93C264.903 29.0887 264.446 29.168 263.933 29.168C263.522 29.168 263.158 29.1213 262.841 29.028C262.533 28.9347 262.257 28.8087 262.015 28.65C261.772 28.4913 261.557 28.314 261.371 28.118C261.193 27.922 261.03 27.7167 260.881 27.502L261.763 26.83C261.884 27.026 262.01 27.2033 262.141 27.362C262.281 27.5207 262.43 27.656 262.589 27.768C262.757 27.88 262.948 27.9687 263.163 28.034C263.377 28.09 263.634 28.118 263.933 28.118C264.605 28.118 265.113 27.9407 265.459 27.586C265.804 27.2313 265.977 26.732 265.977 26.088V25.948C265.977 25.304 265.804 24.8047 265.459 24.45C265.113 24.0953 264.605 23.918 263.933 23.918C263.485 23.918 263.13 24.002 262.869 24.17C262.617 24.3287 262.388 24.52 262.183 24.744L261.189 24.604L261.539 19.228H266.775V20.264Z" fill="#161616"/>
<rect width="48" height="48" transform="translate(288)" fill="white" fill-opacity="0.01" style="mix-blend-mode:multiply"/>
<path d="M308.022 29.168C307.724 29.168 307.504 29.0933 307.364 28.944C307.234 28.7947 307.168 28.5987 307.168 28.356V28.174C307.168 27.9313 307.234 27.7353 307.364 27.586C307.504 27.4367 307.724 27.362 308.022 27.362C308.321 27.362 308.536 27.4367 308.666 27.586C308.806 27.7353 308.876 27.9313 308.876 28.174V28.356C308.876 28.5987 308.806 28.7947 308.666 28.944C308.536 29.0933 308.321 29.168 308.022 29.168ZM311.997 29.168C311.698 29.168 311.479 29.0933 311.339 28.944C311.208 28.7947 311.143 28.5987 311.143 28.356V28.174C311.143 27.9313 311.208 27.7353 311.339 27.586C311.479 27.4367 311.698 27.362 311.997 27.362C312.295 27.362 312.51 27.4367 312.641 27.586C312.781 27.7353 312.851 27.9313 312.851 28.174V28.356C312.851 28.5987 312.781 28.7947 312.641 28.944C312.51 29.0933 312.295 29.168 311.997 29.168ZM315.971 29.168C315.673 29.168 315.453 29.0933 315.313 28.944C315.183 28.7947 315.117 28.5987 315.117 28.356V28.174C315.117 27.9313 315.183 27.7353 315.313 27.586C315.453 27.4367 315.673 27.362 315.971 27.362C316.27 27.362 316.485 27.4367 316.615 27.586C316.755 27.7353 316.825 27.9313 316.825 28.174V28.356C316.825 28.5987 316.755 28.7947 316.615 28.944C316.485 29.0933 316.27 29.168 315.971 29.168Z" fill="#161616"/>
<rect width="48" height="48" transform="translate(336)" fill="white" fill-opacity="0.01" style="mix-blend-mode:multiply"/>
<path d="M355.179 23.372C355.842 23.372 356.337 23.2227 356.663 22.924C356.999 22.616 357.167 22.224 357.167 21.748V21.65C357.167 21.1367 357.004 20.754 356.677 20.502C356.36 20.2407 355.94 20.11 355.417 20.11C354.913 20.11 354.503 20.222 354.185 20.446C353.868 20.6607 353.607 20.9547 353.401 21.328L352.533 20.656C352.655 20.46 352.799 20.2687 352.967 20.082C353.145 19.886 353.35 19.7133 353.583 19.564C353.817 19.4147 354.087 19.2933 354.395 19.2C354.703 19.1067 355.053 19.06 355.445 19.06C355.856 19.06 356.243 19.116 356.607 19.228C356.971 19.3307 357.284 19.4893 357.545 19.704C357.816 19.9093 358.026 20.166 358.175 20.474C358.334 20.782 358.413 21.132 358.413 21.524C358.413 21.8413 358.362 22.126 358.259 22.378C358.166 22.63 358.035 22.8493 357.867 23.036C357.699 23.2227 357.499 23.3813 357.265 23.512C357.041 23.6427 356.799 23.7407 356.537 23.806V23.862C356.799 23.918 357.051 24.0113 357.293 24.142C357.545 24.2633 357.765 24.4267 357.951 24.632C358.147 24.828 358.301 25.0707 358.413 25.36C358.535 25.64 358.595 25.962 358.595 26.326C358.595 26.746 358.516 27.1333 358.357 27.488C358.199 27.8333 357.975 28.132 357.685 28.384C357.396 28.6267 357.046 28.818 356.635 28.958C356.225 29.098 355.772 29.168 355.277 29.168C354.857 29.168 354.484 29.1213 354.157 29.028C353.831 28.9347 353.541 28.8087 353.289 28.65C353.037 28.4913 352.813 28.314 352.617 28.118C352.431 27.922 352.263 27.7167 352.113 27.502L352.995 26.83C353.117 27.026 353.247 27.2033 353.387 27.362C353.537 27.5207 353.7 27.656 353.877 27.768C354.055 27.88 354.255 27.9687 354.479 28.034C354.703 28.09 354.965 28.118 355.263 28.118C355.954 28.118 356.477 27.964 356.831 27.656C357.186 27.3387 357.363 26.8907 357.363 26.312V26.2C357.363 25.6213 357.186 25.178 356.831 24.87C356.477 24.5527 355.954 24.394 355.263 24.394H354.115V23.372H355.179ZM364.28 29.168C363.113 29.168 362.259 28.7247 361.718 27.838C361.186 26.9513 360.92 25.71 360.92 24.114C360.92 22.518 361.186 21.2767 361.718 20.39C362.259 19.5033 363.113 19.06 364.28 19.06C365.447 19.06 366.296 19.5033 366.828 20.39C367.369 21.2767 367.64 22.518 367.64 24.114C367.64 25.71 367.369 26.9513 366.828 27.838C366.296 28.7247 365.447 29.168 364.28 29.168ZM364.28 28.146C364.663 28.146 364.989 28.0667 365.26 27.908C365.531 27.7493 365.75 27.5253 365.918 27.236C366.086 26.9467 366.207 26.606 366.282 26.214C366.366 25.822 366.408 25.388 366.408 24.912V23.316C366.408 22.84 366.366 22.406 366.282 22.014C366.207 21.622 366.086 21.2813 365.918 20.992C365.75 20.7027 365.531 20.4787 365.26 20.32C364.989 20.1613 364.663 20.082 364.28 20.082C363.897 20.082 363.571 20.1613 363.3 20.32C363.029 20.4787 362.81 20.7027 362.642 20.992C362.474 21.2813 362.348 21.622 362.264 22.014C362.189 22.406 362.152 22.84 362.152 23.316V24.912C362.152 25.388 362.189 25.822 362.264 26.214C362.348 26.606 362.474 26.9467 362.642 27.236C362.81 27.5253 363.029 27.7493 363.3 27.908C363.571 28.0667 363.897 28.146 364.28 28.146Z" fill="#161616"/>
<g clip-path="url(#clip2_254_16613)">
<rect width="48" height="48" transform="translate(384)" fill="white" fill-opacity="0.01" style="mix-blend-mode:multiply"/>
<g clip-path="url(#clip3_254_16613)">
<rect width="16" height="16" transform="translate(400 16)" fill="white" fill-opacity="0.01" style="mix-blend-mode:multiply"/>
<path d="M406 20L411 24L406 28V20Z" fill="#161616"/>
</g>
</g>
<defs>
<clipPath id="clip0_254_16613">
<rect width="48" height="48" fill="white"/>
</clipPath>
<clipPath id="clip1_254_16613">
<rect width="16" height="16" fill="white" transform="translate(16 16)"/>
</clipPath>
<clipPath id="clip2_254_16613">
<rect width="48" height="48" fill="white" transform="translate(384)"/>
</clipPath>
<clipPath id="clip3_254_16613">
<rect width="16" height="16" fill="white" transform="translate(400 16)"/>
</clipPath>
</defs>
</svg>
