<svg width="358" height="64" viewBox="0 0 358 64" fill="none" xmlns="http://www.w3.org/2000/svg">
<mask id="path-1-inside-1_254_16797" fill="white">
<path d="M0 0H358V64H0V0Z"/>
</mask>
<path d="M0 0H358V64H0V0Z" fill="#F4F4F4"/>
<path d="M358 64V63H0V64V65H358V64Z" fill="#8D8D8D" mask="url(#path-1-inside-1_254_16797)"/>
<path d="M17.302 47V37.228H21.194C22.0713 37.228 22.7433 37.48 23.21 37.984C23.686 38.4787 23.924 39.16 23.924 40.028C23.924 40.896 23.686 41.582 23.21 42.086C22.7433 42.5807 22.0713 42.828 21.194 42.828H18.478V47H17.302ZM18.478 41.792H21.194C21.6607 41.792 22.02 41.6707 22.272 41.428C22.5333 41.1853 22.664 40.84 22.664 40.392V39.664C22.664 39.216 22.5333 38.8707 22.272 38.628C22.02 38.3853 21.6607 38.264 21.194 38.264H18.478V41.792ZM27.0302 47C26.6382 47 26.3396 46.8927 26.1342 46.678C25.9382 46.454 25.8402 46.174 25.8402 45.838V36.64H26.9602V46.02H28.0242V47H27.0302ZM35.0647 47C34.6447 47 34.3414 46.888 34.1547 46.664C33.9774 46.44 33.8654 46.16 33.8187 45.824H33.7487C33.59 46.272 33.3287 46.608 32.9647 46.832C32.6007 47.056 32.1667 47.168 31.6627 47.168C30.8974 47.168 30.3 46.972 29.8707 46.58C29.4507 46.188 29.2407 45.656 29.2407 44.984C29.2407 44.3027 29.488 43.78 29.9827 43.416C30.4867 43.052 31.266 42.87 32.3207 42.87H33.7487V42.156C33.7487 41.6427 33.6087 41.2507 33.3287 40.98C33.0487 40.7093 32.6194 40.574 32.0407 40.574C31.602 40.574 31.2334 40.672 30.9347 40.868C30.6454 41.064 30.4027 41.3253 30.2067 41.652L29.5347 41.022C29.7307 40.63 30.0434 40.2987 30.4727 40.028C30.902 39.748 31.4434 39.608 32.0967 39.608C32.974 39.608 33.6554 39.8227 34.1407 40.252C34.626 40.6813 34.8687 41.2787 34.8687 42.044V46.02H35.6947V47H35.0647ZM31.8447 46.216C32.1247 46.216 32.3814 46.1833 32.6147 46.118C32.848 46.0527 33.0487 45.9593 33.2167 45.838C33.3847 45.7167 33.5154 45.5767 33.6087 45.418C33.702 45.2593 33.7487 45.0867 33.7487 44.9V43.71H32.2647C31.6207 43.71 31.1494 43.8033 30.8507 43.99C30.5614 44.1767 30.4167 44.4473 30.4167 44.802V45.096C30.4167 45.4507 30.5427 45.726 30.7947 45.922C31.056 46.118 31.406 46.216 31.8447 46.216ZM40.1412 47.168C39.6372 47.168 39.1845 47.0793 38.7832 46.902C38.3819 46.7247 38.0412 46.4727 37.7612 46.146C37.4905 45.8193 37.2805 45.4227 37.1312 44.956C36.9912 44.4893 36.9212 43.9667 36.9212 43.388C36.9212 42.8093 36.9912 42.2867 37.1312 41.82C37.2805 41.3533 37.4905 40.9567 37.7612 40.63C38.0412 40.3033 38.3819 40.0513 38.7832 39.874C39.1845 39.6967 39.6372 39.608 40.1412 39.608C40.8599 39.608 41.4339 39.7667 41.8632 40.084C42.3019 40.392 42.6285 40.798 42.8432 41.302L41.9052 41.778C41.7745 41.4047 41.5599 41.1153 41.2612 40.91C40.9625 40.7047 40.5892 40.602 40.1412 40.602C39.8052 40.602 39.5112 40.658 39.2592 40.77C39.0072 40.8727 38.7972 41.022 38.6292 41.218C38.4612 41.4047 38.3352 41.6333 38.2512 41.904C38.1672 42.1653 38.1252 42.4547 38.1252 42.772V44.004C38.1252 44.6387 38.2932 45.1613 38.6292 45.572C38.9745 45.9733 39.4785 46.174 40.1412 46.174C41.0465 46.174 41.6999 45.754 42.1012 44.914L42.9132 45.46C42.6799 45.9827 42.3299 46.398 41.8632 46.706C41.4059 47.014 40.8319 47.168 40.1412 47.168ZM47.2882 47.168C46.7935 47.168 46.3455 47.0793 45.9442 46.902C45.5522 46.7247 45.2115 46.4727 44.9222 46.146C44.6422 45.81 44.4229 45.4133 44.2642 44.956C44.1149 44.4893 44.0402 43.9667 44.0402 43.388C44.0402 42.8187 44.1149 42.3007 44.2642 41.834C44.4229 41.3673 44.6422 40.9707 44.9222 40.644C45.2115 40.308 45.5522 40.0513 45.9442 39.874C46.3455 39.6967 46.7935 39.608 47.2882 39.608C47.7735 39.608 48.2075 39.6967 48.5902 39.874C48.9729 40.0513 49.2995 40.2987 49.5702 40.616C49.8409 40.924 50.0462 41.2927 50.1862 41.722C50.3355 42.1513 50.4102 42.6227 50.4102 43.136V43.668H45.2162V44.004C45.2162 44.312 45.2629 44.6013 45.3562 44.872C45.4589 45.1333 45.5989 45.362 45.7762 45.558C45.9629 45.754 46.1869 45.908 46.4482 46.02C46.7189 46.132 47.0222 46.188 47.3582 46.188C47.8155 46.188 48.2122 46.0807 48.5482 45.866C48.8935 45.6513 49.1595 45.3433 49.3462 44.942L50.1442 45.516C49.9109 46.0107 49.5469 46.412 49.0522 46.72C48.5575 47.0187 47.9695 47.168 47.2882 47.168ZM47.2882 40.546C46.9802 40.546 46.7002 40.602 46.4482 40.714C46.1962 40.8167 45.9769 40.966 45.7902 41.162C45.6129 41.358 45.4729 41.5913 45.3702 41.862C45.2675 42.1233 45.2162 42.4127 45.2162 42.73V42.828H49.2062V42.674C49.2062 42.03 49.0289 41.5167 48.6742 41.134C48.3289 40.742 47.8669 40.546 47.2882 40.546ZM52.4158 36.64H53.5358V40.952H53.5918C53.7691 40.5413 54.0164 40.2147 54.3338 39.972C54.6604 39.7293 55.0944 39.608 55.6358 39.608C56.3824 39.608 56.9704 39.8507 57.3998 40.336C57.8384 40.812 58.0578 41.4887 58.0578 42.366V47H56.9378V42.562C56.9378 41.2647 56.3918 40.616 55.2998 40.616C55.0758 40.616 54.8564 40.644 54.6418 40.7C54.4364 40.756 54.2498 40.84 54.0818 40.952C53.9138 41.064 53.7784 41.2087 53.6758 41.386C53.5824 41.554 53.5358 41.7547 53.5358 41.988V47H52.4158V36.64ZM63.2628 47.168C62.7775 47.168 62.3341 47.0793 61.9328 46.902C61.5315 46.7247 61.1861 46.4727 60.8968 46.146C60.6168 45.81 60.3975 45.4133 60.2388 44.956C60.0801 44.4893 60.0008 43.9667 60.0008 43.388C60.0008 42.8187 60.0801 42.3007 60.2388 41.834C60.3975 41.3673 60.6168 40.9707 60.8968 40.644C61.1861 40.308 61.5315 40.0513 61.9328 39.874C62.3341 39.6967 62.7775 39.608 63.2628 39.608C63.7481 39.608 64.1868 39.6967 64.5788 39.874C64.9801 40.0513 65.3255 40.308 65.6148 40.644C65.9041 40.9707 66.1281 41.3673 66.2868 41.834C66.4455 42.3007 66.5248 42.8187 66.5248 43.388C66.5248 43.9667 66.4455 44.4893 66.2868 44.956C66.1281 45.4133 65.9041 45.81 65.6148 46.146C65.3255 46.4727 64.9801 46.7247 64.5788 46.902C64.1868 47.0793 63.7481 47.168 63.2628 47.168ZM63.2628 46.174C63.8695 46.174 64.3641 45.9873 64.7468 45.614C65.1295 45.2407 65.3208 44.6713 65.3208 43.906V42.87C65.3208 42.1047 65.1295 41.5353 64.7468 41.162C64.3641 40.7887 63.8695 40.602 63.2628 40.602C62.6561 40.602 62.1615 40.7887 61.7788 41.162C61.3961 41.5353 61.2048 42.1047 61.2048 42.87V43.906C61.2048 44.6713 61.3961 45.2407 61.7788 45.614C62.1615 45.9873 62.6561 46.174 63.2628 46.174ZM69.7168 47C69.3248 47 69.0261 46.8927 68.8208 46.678C68.6248 46.454 68.5268 46.174 68.5268 45.838V36.64H69.6468V46.02H70.7108V47H69.7168ZM77.1212 45.824H77.0652C76.6266 46.72 75.9219 47.168 74.9512 47.168C74.5032 47.168 74.0972 47.0793 73.7332 46.902C73.3692 46.7247 73.0566 46.4727 72.7952 46.146C72.5432 45.8193 72.3472 45.4227 72.2072 44.956C72.0766 44.4893 72.0112 43.9667 72.0112 43.388C72.0112 42.8093 72.0766 42.2867 72.2072 41.82C72.3472 41.3533 72.5432 40.9567 72.7952 40.63C73.0566 40.3033 73.3692 40.0513 73.7332 39.874C74.0972 39.6967 74.5032 39.608 74.9512 39.608C75.4552 39.608 75.8846 39.72 76.2392 39.944C76.6032 40.1587 76.8786 40.4947 77.0652 40.952H77.1212V36.64H78.2412V47H77.1212V45.824ZM75.2592 46.16C75.5112 46.16 75.7492 46.1273 75.9732 46.062C76.2066 45.9967 76.4072 45.9033 76.5752 45.782C76.7432 45.6513 76.8739 45.4973 76.9672 45.32C77.0699 45.1333 77.1212 44.9233 77.1212 44.69V42.002C77.1212 41.806 77.0699 41.624 76.9672 41.456C76.8739 41.2787 76.7432 41.1293 76.5752 41.008C76.4072 40.8867 76.2066 40.7933 75.9732 40.728C75.7492 40.6533 75.5112 40.616 75.2592 40.616C74.6246 40.616 74.1252 40.8167 73.7612 41.218C73.3972 41.61 73.2152 42.128 73.2152 42.772V44.004C73.2152 44.648 73.3972 45.1707 73.7612 45.572C74.1252 45.964 74.6246 46.16 75.2592 46.16ZM83.4983 47.168C83.0037 47.168 82.5557 47.0793 82.1543 46.902C81.7623 46.7247 81.4217 46.4727 81.1323 46.146C80.8523 45.81 80.633 45.4133 80.4743 44.956C80.325 44.4893 80.2503 43.9667 80.2503 43.388C80.2503 42.8187 80.325 42.3007 80.4743 41.834C80.633 41.3673 80.8523 40.9707 81.1323 40.644C81.4217 40.308 81.7623 40.0513 82.1543 39.874C82.5557 39.6967 83.0037 39.608 83.4983 39.608C83.9837 39.608 84.4177 39.6967 84.8003 39.874C85.183 40.0513 85.5097 40.2987 85.7803 40.616C86.051 40.924 86.2563 41.2927 86.3963 41.722C86.5457 42.1513 86.6203 42.6227 86.6203 43.136V43.668H81.4263V44.004C81.4263 44.312 81.473 44.6013 81.5663 44.872C81.669 45.1333 81.809 45.362 81.9863 45.558C82.173 45.754 82.397 45.908 82.6583 46.02C82.929 46.132 83.2323 46.188 83.5683 46.188C84.0257 46.188 84.4223 46.0807 84.7583 45.866C85.1037 45.6513 85.3697 45.3433 85.5563 44.942L86.3543 45.516C86.121 46.0107 85.757 46.412 85.2623 46.72C84.7677 47.0187 84.1797 47.168 83.4983 47.168ZM83.4983 40.546C83.1903 40.546 82.9103 40.602 82.6583 40.714C82.4063 40.8167 82.187 40.966 82.0003 41.162C81.823 41.358 81.683 41.5913 81.5803 41.862C81.4777 42.1233 81.4263 42.4127 81.4263 42.73V42.828H85.4163V42.674C85.4163 42.03 85.239 41.5167 84.8843 41.134C84.539 40.742 84.077 40.546 83.4983 40.546ZM88.6259 47V39.776H89.7459V41.106H89.8159C89.9466 40.7607 90.1799 40.4527 90.5159 40.182C90.8519 39.9113 91.3139 39.776 91.9019 39.776H92.3359V40.896H91.6779C91.0713 40.896 90.5953 41.0127 90.2499 41.246C89.9139 41.47 89.7459 41.7547 89.7459 42.1V47H88.6259ZM98.9912 47C98.5992 47 98.3005 46.8927 98.0952 46.678C97.8992 46.454 97.8012 46.1647 97.8012 45.81V40.756H96.6112V39.776H97.2832C97.5258 39.776 97.6892 39.7293 97.7732 39.636C97.8665 39.5333 97.9132 39.3607 97.9132 39.118V37.774H98.9212V39.776H100.503V40.756H98.9212V46.02H100.391V47H98.9912ZM105.125 47.168C104.63 47.168 104.182 47.0793 103.781 46.902C103.389 46.7247 103.048 46.4727 102.759 46.146C102.479 45.81 102.259 45.4133 102.101 44.956C101.951 44.4893 101.877 43.9667 101.877 43.388C101.877 42.8187 101.951 42.3007 102.101 41.834C102.259 41.3673 102.479 40.9707 102.759 40.644C103.048 40.308 103.389 40.0513 103.781 39.874C104.182 39.6967 104.63 39.608 105.125 39.608C105.61 39.608 106.044 39.6967 106.427 39.874C106.809 40.0513 107.136 40.2987 107.407 40.616C107.677 40.924 107.883 41.2927 108.023 41.722C108.172 42.1513 108.247 42.6227 108.247 43.136V43.668H103.053V44.004C103.053 44.312 103.099 44.6013 103.193 44.872C103.295 45.1333 103.435 45.362 103.613 45.558C103.799 45.754 104.023 45.908 104.285 46.02C104.555 46.132 104.859 46.188 105.195 46.188C105.652 46.188 106.049 46.0807 106.385 45.866C106.73 45.6513 106.996 45.3433 107.183 44.942L107.981 45.516C107.747 46.0107 107.383 46.412 106.889 46.72C106.394 47.0187 105.806 47.168 105.125 47.168ZM105.125 40.546C104.817 40.546 104.537 40.602 104.285 40.714C104.033 40.8167 103.813 40.966 103.627 41.162C103.449 41.358 103.309 41.5913 103.207 41.862C103.104 42.1233 103.053 42.4127 103.053 42.73V42.828H107.043V42.674C107.043 42.03 106.865 41.5167 106.511 41.134C106.165 40.742 105.703 40.546 105.125 40.546ZM109.192 47L111.866 43.36L109.304 39.776H110.62L112.454 42.464H112.496L114.4 39.776H115.646L113.098 43.276L115.702 47H114.386L112.51 44.172H112.468L110.438 47H109.192ZM118.94 47C118.548 47 118.249 46.8927 118.044 46.678C117.848 46.454 117.75 46.1647 117.75 45.81V40.756H116.56V39.776H117.232C117.475 39.776 117.638 39.7293 117.722 39.636C117.815 39.5333 117.862 39.3607 117.862 39.118V37.774H118.87V39.776H120.452V40.756H118.87V46.02H120.34V47H118.94Z" fill="#A8A8A8"/>
<rect width="16" height="16" transform="translate(330 35)" fill="white" fill-opacity="0.01" style="mix-blend-mode:multiply"/>
<path d="M344.5 48.7929L340.724 45.0169C341.631 43.9276 342.084 42.5304 341.987 41.116C341.891 39.7015 341.253 38.3788 340.206 37.4229C339.159 36.467 337.783 35.9515 336.366 35.9837C334.949 36.0159 333.598 36.5933 332.596 37.5958C331.593 38.5983 331.016 39.9487 330.984 41.366C330.952 42.7833 331.467 44.1586 332.423 45.2055C333.379 46.2525 334.702 46.8907 336.116 46.9872C337.53 47.0838 338.928 46.6313 340.017 45.7239L343.793 49.5L344.5 48.7929ZM332 41.5C332 40.61 332.264 39.74 332.758 38.9999C333.253 38.2599 333.956 37.6831 334.778 37.3425C335.6 37.0019 336.505 36.9128 337.378 37.0865C338.251 37.2601 339.053 37.6887 339.682 38.318C340.311 38.9474 340.74 39.7492 340.914 40.6221C341.087 41.495 340.998 42.3998 340.657 43.2221C340.317 44.0443 339.74 44.7471 339 45.2416C338.26 45.7361 337.39 46 336.5 46C335.307 45.9987 334.163 45.5241 333.319 44.6805C332.476 43.8369 332.001 42.6931 332 41.5Z" fill="#161616"/>
<path d="M19.468 26.144C18.788 26.144 18.208 26.016 17.728 25.76C17.248 25.496 16.84 25.136 16.504 24.68L17.248 24.056C17.544 24.448 17.872 24.748 18.232 24.956C18.592 25.156 19.016 25.256 19.504 25.256C20.104 25.256 20.56 25.112 20.872 24.824C21.192 24.536 21.352 24.152 21.352 23.672C21.352 23.272 21.232 22.964 20.992 22.748C20.752 22.532 20.356 22.36 19.804 22.232L19.12 22.076C18.352 21.9 17.764 21.636 17.356 21.284C16.956 20.924 16.756 20.42 16.756 19.772C16.756 19.404 16.824 19.076 16.96 18.788C17.096 18.5 17.284 18.26 17.524 18.068C17.772 17.876 18.064 17.732 18.4 17.636C18.744 17.532 19.12 17.48 19.528 17.48C20.16 17.48 20.7 17.596 21.148 17.828C21.604 18.06 21.988 18.4 22.3 18.848L21.544 19.4C21.312 19.08 21.032 18.828 20.704 18.644C20.376 18.46 19.968 18.368 19.48 18.368C18.944 18.368 18.52 18.484 18.208 18.716C17.904 18.94 17.752 19.28 17.752 19.736C17.752 20.136 17.88 20.44 18.136 20.648C18.4 20.848 18.796 21.008 19.324 21.128L20.008 21.284C20.832 21.468 21.428 21.748 21.796 22.124C22.164 22.5 22.348 23 22.348 23.624C22.348 24.008 22.28 24.356 22.144 24.668C22.016 24.98 21.828 25.244 21.58 25.46C21.332 25.676 21.028 25.844 20.668 25.964C20.316 26.084 19.916 26.144 19.468 26.144ZM26.6407 26.144C26.2167 26.144 25.8327 26.068 25.4887 25.916C25.1527 25.764 24.8607 25.548 24.6127 25.268C24.3727 24.98 24.1847 24.64 24.0487 24.248C23.9207 23.848 23.8567 23.4 23.8567 22.904C23.8567 22.416 23.9207 21.972 24.0487 21.572C24.1847 21.172 24.3727 20.832 24.6127 20.552C24.8607 20.264 25.1527 20.044 25.4887 19.892C25.8327 19.74 26.2167 19.664 26.6407 19.664C27.0567 19.664 27.4287 19.74 27.7567 19.892C28.0847 20.044 28.3647 20.256 28.5967 20.528C28.8287 20.792 29.0047 21.108 29.1247 21.476C29.2527 21.844 29.3167 22.248 29.3167 22.688V23.144H24.8647V23.432C24.8647 23.696 24.9047 23.944 24.9847 24.176C25.0727 24.4 25.1927 24.596 25.3447 24.764C25.5047 24.932 25.6967 25.064 25.9207 25.16C26.1527 25.256 26.4127 25.304 26.7007 25.304C27.0927 25.304 27.4327 25.212 27.7207 25.028C28.0167 24.844 28.2447 24.58 28.4047 24.236L29.0887 24.728C28.8887 25.152 28.5767 25.496 28.1527 25.76C27.7287 26.016 27.2247 26.144 26.6407 26.144ZM26.6407 20.468C26.3767 20.468 26.1367 20.516 25.9207 20.612C25.7047 20.7 25.5167 20.828 25.3567 20.996C25.2047 21.164 25.0847 21.364 24.9967 21.596C24.9087 21.82 24.8647 22.068 24.8647 22.34V22.424H28.2847V22.292C28.2847 21.74 28.1327 21.3 27.8287 20.972C27.5327 20.636 27.1367 20.468 26.6407 20.468ZM35.7186 26C35.3586 26 35.0986 25.904 34.9386 25.712C34.7866 25.52 34.6906 25.28 34.6506 24.992H34.5906C34.4546 25.376 34.2306 25.664 33.9186 25.856C33.6066 26.048 33.2346 26.144 32.8026 26.144C32.1466 26.144 31.6346 25.976 31.2666 25.64C30.9066 25.304 30.7266 24.848 30.7266 24.272C30.7266 23.688 30.9386 23.24 31.3626 22.928C31.7946 22.616 32.4626 22.46 33.3666 22.46H34.5906V21.848C34.5906 21.408 34.4706 21.072 34.2306 20.84C33.9906 20.608 33.6226 20.492 33.1266 20.492C32.7506 20.492 32.4346 20.576 32.1786 20.744C31.9306 20.912 31.7226 21.136 31.5546 21.416L30.9786 20.876C31.1466 20.54 31.4146 20.256 31.7826 20.024C32.1506 19.784 32.6146 19.664 33.1746 19.664C33.9266 19.664 34.5106 19.848 34.9266 20.216C35.3426 20.584 35.5506 21.096 35.5506 21.752V25.16H36.2586V26H35.7186ZM32.9586 25.328C33.1986 25.328 33.4186 25.3 33.6186 25.244C33.8186 25.188 33.9906 25.108 34.1346 25.004C34.2786 24.9 34.3906 24.78 34.4706 24.644C34.5506 24.508 34.5906 24.36 34.5906 24.2V23.18H33.3186C32.7666 23.18 32.3626 23.26 32.1066 23.42C31.8586 23.58 31.7346 23.812 31.7346 24.116V24.368C31.7346 24.672 31.8426 24.908 32.0586 25.076C32.2826 25.244 32.5826 25.328 32.9586 25.328ZM37.9487 26V19.808H38.9087V20.948H38.9687C39.0807 20.652 39.2807 20.388 39.5687 20.156C39.8567 19.924 40.2527 19.808 40.7567 19.808H41.1287V20.768H40.5647C40.0447 20.768 39.6367 20.868 39.3407 21.068C39.0527 21.26 38.9087 21.504 38.9087 21.8V26H37.9487ZM44.9204 26.144C44.4884 26.144 44.1004 26.068 43.7564 25.916C43.4124 25.764 43.1204 25.548 42.8804 25.268C42.6484 24.988 42.4684 24.648 42.3404 24.248C42.2204 23.848 42.1604 23.4 42.1604 22.904C42.1604 22.408 42.2204 21.96 42.3404 21.56C42.4684 21.16 42.6484 20.82 42.8804 20.54C43.1204 20.26 43.4124 20.044 43.7564 19.892C44.1004 19.74 44.4884 19.664 44.9204 19.664C45.5364 19.664 46.0284 19.8 46.3964 20.072C46.7724 20.336 47.0524 20.684 47.2364 21.116L46.4324 21.524C46.3204 21.204 46.1364 20.956 45.8804 20.78C45.6244 20.604 45.3044 20.516 44.9204 20.516C44.6324 20.516 44.3804 20.564 44.1644 20.66C43.9484 20.748 43.7684 20.876 43.6244 21.044C43.4804 21.204 43.3724 21.4 43.3004 21.632C43.2284 21.856 43.1924 22.104 43.1924 22.376V23.432C43.1924 23.976 43.3364 24.424 43.6244 24.776C43.9204 25.12 44.3524 25.292 44.9204 25.292C45.6964 25.292 46.2564 24.932 46.6004 24.212L47.2964 24.68C47.0964 25.128 46.7964 25.484 46.3964 25.748C46.0044 26.012 45.5124 26.144 44.9204 26.144ZM48.9716 17.12H49.9316V20.816H49.9796C50.1316 20.464 50.3436 20.184 50.6156 19.976C50.8956 19.768 51.2676 19.664 51.7316 19.664C52.3716 19.664 52.8756 19.872 53.2436 20.288C53.6196 20.696 53.8076 21.276 53.8076 22.028V26H52.8476V22.196C52.8476 21.084 52.3796 20.528 51.4436 20.528C51.2516 20.528 51.0636 20.552 50.8796 20.6C50.7036 20.648 50.5436 20.72 50.3996 20.816C50.2556 20.912 50.1396 21.036 50.0516 21.188C49.9716 21.332 49.9316 21.504 49.9316 21.704V26H48.9716V17.12Z" fill="#525252"/>
</svg>
