<svg width="480" height="334" viewBox="0 0 480 334" fill="none" xmlns="http://www.w3.org/2000/svg">
<mask id="path-1-inside-1_254_16990" fill="white">
<path d="M0 0H480V34H0V0Z"/>
</mask>
<path d="M0 0H480V34H0V0Z" fill="white" fill-opacity="0.01" style="mix-blend-mode:multiply"/>
<path d="M480 34V33H0V34V35H480V34Z" fill="#E0E0E0" mask="url(#path-1-inside-1_254_16990)"/>
<g clip-path="url(#clip0_254_16990)">
<path d="M23.07 17.87H18.996V22H17.148V12.228H18.996V16.232H23.07V12.228H24.918V22H23.07V17.87ZM30.2125 22.168C29.6712 22.168 29.1858 22.0793 28.7565 21.902C28.3365 21.7153 27.9772 21.4587 27.6785 21.132C27.3892 20.796 27.1652 20.3947 27.0065 19.928C26.8478 19.452 26.7685 18.92 26.7685 18.332C26.7685 17.7533 26.8432 17.2307 26.9925 16.764C27.1512 16.2973 27.3752 15.9007 27.6645 15.574C27.9538 15.238 28.3085 14.9813 28.7285 14.804C29.1485 14.6173 29.6245 14.524 30.1565 14.524C30.7258 14.524 31.2205 14.622 31.6405 14.818C32.0605 15.014 32.4058 15.28 32.6765 15.616C32.9472 15.952 33.1478 16.344 33.2785 16.792C33.4185 17.2307 33.4885 17.702 33.4885 18.206V18.794H28.6305V18.976C28.6305 19.508 28.7798 19.9373 29.0785 20.264C29.3772 20.5813 29.8205 20.74 30.4085 20.74C30.8565 20.74 31.2205 20.6467 31.5005 20.46C31.7898 20.2733 32.0465 20.0353 32.2705 19.746L33.2365 20.824C32.9378 21.244 32.5272 21.5753 32.0045 21.818C31.4912 22.0513 30.8938 22.168 30.2125 22.168ZM30.1845 15.868C29.7085 15.868 29.3305 16.0267 29.0505 16.344C28.7705 16.6613 28.6305 17.072 28.6305 17.576V17.688H31.6265V17.562C31.6265 17.058 31.5005 16.652 31.2485 16.344C31.0058 16.0267 30.6512 15.868 30.1845 15.868ZM40.6011 22C40.2091 22 39.8965 21.888 39.6631 21.664C39.4391 21.4307 39.2991 21.1227 39.2431 20.74H39.1591C39.0378 21.216 38.7905 21.5753 38.4171 21.818C38.0438 22.0513 37.5818 22.168 37.0311 22.168C36.2845 22.168 35.7105 21.972 35.3091 21.58C34.9078 21.188 34.7071 20.6653 34.7071 20.012C34.7071 19.256 34.9778 18.696 35.5191 18.332C36.0605 17.9587 36.8305 17.772 37.8291 17.772H39.0751V17.24C39.0751 16.8293 38.9678 16.512 38.7531 16.288C38.5385 16.064 38.1931 15.952 37.7171 15.952C37.2971 15.952 36.9565 16.0453 36.6951 16.232C36.4431 16.4093 36.2285 16.624 36.0511 16.876L34.9871 15.924C35.2578 15.504 35.6171 15.168 36.0651 14.916C36.5131 14.6547 37.1058 14.524 37.8431 14.524C38.8325 14.524 39.5838 14.748 40.0971 15.196C40.6105 15.644 40.8671 16.288 40.8671 17.128V20.572H41.5951V22H40.6011ZM37.6331 20.866C38.0345 20.866 38.3751 20.7773 38.6551 20.6C38.9351 20.4227 39.0751 20.1613 39.0751 19.816V18.85H37.9271C36.9938 18.85 36.5271 19.1487 36.5271 19.746V19.984C36.5271 20.2827 36.6205 20.5067 36.8071 20.656C37.0031 20.796 37.2785 20.866 37.6331 20.866ZM47.7415 20.782H47.6715C47.5408 21.202 47.2935 21.538 46.9295 21.79C46.5655 22.042 46.1408 22.168 45.6555 22.168C44.7315 22.168 44.0221 21.8367 43.5275 21.174C43.0421 20.5113 42.7995 19.564 42.7995 18.332C42.7995 17.1093 43.0421 16.1713 43.5275 15.518C44.0221 14.8553 44.7315 14.524 45.6555 14.524C46.1408 14.524 46.5655 14.65 46.9295 14.902C47.2935 15.1447 47.5408 15.476 47.6715 15.896H47.7415V11.64H49.5335V22H47.7415V20.782ZM46.2295 20.684C46.6588 20.684 47.0181 20.5813 47.3075 20.376C47.5968 20.1707 47.7415 19.8767 47.7415 19.494V17.17C47.7415 16.8153 47.5968 16.5307 47.3075 16.316C47.0181 16.1013 46.6588 15.994 46.2295 15.994C45.7628 15.994 45.3848 16.1527 45.0955 16.47C44.8155 16.778 44.6755 17.1933 44.6755 17.716V18.976C44.6755 19.4987 44.8155 19.914 45.0955 20.222C45.3848 20.53 45.7628 20.684 46.2295 20.684ZM54.714 22.168C54.1727 22.168 53.6873 22.0793 53.258 21.902C52.838 21.7153 52.4787 21.4587 52.18 21.132C51.8907 20.796 51.6667 20.3947 51.508 19.928C51.3493 19.452 51.27 18.92 51.27 18.332C51.27 17.7533 51.3447 17.2307 51.494 16.764C51.6527 16.2973 51.8767 15.9007 52.166 15.574C52.4553 15.238 52.81 14.9813 53.23 14.804C53.65 14.6173 54.126 14.524 54.658 14.524C55.2273 14.524 55.722 14.622 56.142 14.818C56.562 15.014 56.9073 15.28 57.178 15.616C57.4487 15.952 57.6493 16.344 57.78 16.792C57.92 17.2307 57.99 17.702 57.99 18.206V18.794H53.132V18.976C53.132 19.508 53.2813 19.9373 53.58 20.264C53.8787 20.5813 54.322 20.74 54.91 20.74C55.358 20.74 55.722 20.6467 56.002 20.46C56.2913 20.2733 56.548 20.0353 56.772 19.746L57.738 20.824C57.4393 21.244 57.0287 21.5753 56.506 21.818C55.9927 22.0513 55.3953 22.168 54.714 22.168ZM54.686 15.868C54.21 15.868 53.832 16.0267 53.552 16.344C53.272 16.6613 53.132 17.072 53.132 17.576V17.688H56.128V17.562C56.128 17.058 56.002 16.652 55.75 16.344C55.5073 16.0267 55.1527 15.868 54.686 15.868ZM59.7266 22V14.692H61.5186V16.204H61.5886C61.6353 16.008 61.7053 15.8213 61.7986 15.644C61.9013 15.4573 62.032 15.294 62.1906 15.154C62.3493 15.014 62.536 14.902 62.7506 14.818C62.9746 14.734 63.2313 14.692 63.5206 14.692H63.9126V16.386H63.3526C62.746 16.386 62.2886 16.4747 61.9806 16.652C61.6726 16.8293 61.5186 17.1187 61.5186 17.52V22H59.7266Z" fill="#161616"/>
</g>
<g clip-path="url(#clip1_254_16990)">
<path d="M119.07 17.87H114.996V22H113.148V12.228H114.996V16.232H119.07V12.228H120.918V22H119.07V17.87ZM126.213 22.168C125.671 22.168 125.186 22.0793 124.756 21.902C124.336 21.7153 123.977 21.4587 123.678 21.132C123.389 20.796 123.165 20.3947 123.006 19.928C122.848 19.452 122.768 18.92 122.768 18.332C122.768 17.7533 122.843 17.2307 122.992 16.764C123.151 16.2973 123.375 15.9007 123.664 15.574C123.954 15.238 124.308 14.9813 124.728 14.804C125.148 14.6173 125.624 14.524 126.157 14.524C126.726 14.524 127.221 14.622 127.641 14.818C128.061 15.014 128.406 15.28 128.677 15.616C128.947 15.952 129.148 16.344 129.278 16.792C129.419 17.2307 129.489 17.702 129.489 18.206V18.794H124.63V18.976C124.63 19.508 124.78 19.9373 125.079 20.264C125.377 20.5813 125.821 20.74 126.409 20.74C126.856 20.74 127.22 20.6467 127.5 20.46C127.79 20.2733 128.047 20.0353 128.271 19.746L129.237 20.824C128.938 21.244 128.527 21.5753 128.005 21.818C127.491 22.0513 126.894 22.168 126.213 22.168ZM126.185 15.868C125.709 15.868 125.33 16.0267 125.05 16.344C124.77 16.6613 124.63 17.072 124.63 17.576V17.688H127.626V17.562C127.626 17.058 127.501 16.652 127.249 16.344C127.006 16.0267 126.651 15.868 126.185 15.868ZM136.601 22C136.209 22 135.896 21.888 135.663 21.664C135.439 21.4307 135.299 21.1227 135.243 20.74H135.159C135.038 21.216 134.79 21.5753 134.417 21.818C134.044 22.0513 133.582 22.168 133.031 22.168C132.284 22.168 131.71 21.972 131.309 21.58C130.908 21.188 130.707 20.6653 130.707 20.012C130.707 19.256 130.978 18.696 131.519 18.332C132.06 17.9587 132.83 17.772 133.829 17.772H135.075V17.24C135.075 16.8293 134.968 16.512 134.753 16.288C134.538 16.064 134.193 15.952 133.717 15.952C133.297 15.952 132.956 16.0453 132.695 16.232C132.443 16.4093 132.228 16.624 132.051 16.876L130.987 15.924C131.258 15.504 131.617 15.168 132.065 14.916C132.513 14.6547 133.106 14.524 133.843 14.524C134.832 14.524 135.584 14.748 136.097 15.196C136.61 15.644 136.867 16.288 136.867 17.128V20.572H137.595V22H136.601ZM133.633 20.866C134.034 20.866 134.375 20.7773 134.655 20.6C134.935 20.4227 135.075 20.1613 135.075 19.816V18.85H133.927C132.994 18.85 132.527 19.1487 132.527 19.746V19.984C132.527 20.2827 132.62 20.5067 132.807 20.656C133.003 20.796 133.278 20.866 133.633 20.866ZM143.741 20.782H143.671C143.541 21.202 143.293 21.538 142.929 21.79C142.565 22.042 142.141 22.168 141.655 22.168C140.731 22.168 140.022 21.8367 139.527 21.174C139.042 20.5113 138.799 19.564 138.799 18.332C138.799 17.1093 139.042 16.1713 139.527 15.518C140.022 14.8553 140.731 14.524 141.655 14.524C142.141 14.524 142.565 14.65 142.929 14.902C143.293 15.1447 143.541 15.476 143.671 15.896H143.741V11.64H145.533V22H143.741V20.782ZM142.229 20.684C142.659 20.684 143.018 20.5813 143.307 20.376C143.597 20.1707 143.741 19.8767 143.741 19.494V17.17C143.741 16.8153 143.597 16.5307 143.307 16.316C143.018 16.1013 142.659 15.994 142.229 15.994C141.763 15.994 141.385 16.1527 141.095 16.47C140.815 16.778 140.675 17.1933 140.675 17.716V18.976C140.675 19.4987 140.815 19.914 141.095 20.222C141.385 20.53 141.763 20.684 142.229 20.684ZM150.714 22.168C150.173 22.168 149.687 22.0793 149.258 21.902C148.838 21.7153 148.479 21.4587 148.18 21.132C147.891 20.796 147.667 20.3947 147.508 19.928C147.349 19.452 147.27 18.92 147.27 18.332C147.27 17.7533 147.345 17.2307 147.494 16.764C147.653 16.2973 147.877 15.9007 148.166 15.574C148.455 15.238 148.81 14.9813 149.23 14.804C149.65 14.6173 150.126 14.524 150.658 14.524C151.227 14.524 151.722 14.622 152.142 14.818C152.562 15.014 152.907 15.28 153.178 15.616C153.449 15.952 153.649 16.344 153.78 16.792C153.92 17.2307 153.99 17.702 153.99 18.206V18.794H149.132V18.976C149.132 19.508 149.281 19.9373 149.58 20.264C149.879 20.5813 150.322 20.74 150.91 20.74C151.358 20.74 151.722 20.6467 152.002 20.46C152.291 20.2733 152.548 20.0353 152.772 19.746L153.738 20.824C153.439 21.244 153.029 21.5753 152.506 21.818C151.993 22.0513 151.395 22.168 150.714 22.168ZM150.686 15.868C150.21 15.868 149.832 16.0267 149.552 16.344C149.272 16.6613 149.132 17.072 149.132 17.576V17.688H152.128V17.562C152.128 17.058 152.002 16.652 151.75 16.344C151.507 16.0267 151.153 15.868 150.686 15.868ZM155.727 22V14.692H157.519V16.204H157.589C157.635 16.008 157.705 15.8213 157.799 15.644C157.901 15.4573 158.032 15.294 158.191 15.154C158.349 15.014 158.536 14.902 158.751 14.818C158.975 14.734 159.231 14.692 159.521 14.692H159.913V16.386H159.353C158.746 16.386 158.289 16.4747 157.981 16.652C157.673 16.8293 157.519 17.1187 157.519 17.52V22H155.727Z" fill="#161616"/>
</g>
<g clip-path="url(#clip2_254_16990)">
<path d="M215.07 17.87H210.996V22H209.148V12.228H210.996V16.232H215.07V12.228H216.918V22H215.07V17.87ZM222.213 22.168C221.671 22.168 221.186 22.0793 220.756 21.902C220.336 21.7153 219.977 21.4587 219.678 21.132C219.389 20.796 219.165 20.3947 219.006 19.928C218.848 19.452 218.768 18.92 218.768 18.332C218.768 17.7533 218.843 17.2307 218.992 16.764C219.151 16.2973 219.375 15.9007 219.664 15.574C219.954 15.238 220.308 14.9813 220.728 14.804C221.148 14.6173 221.624 14.524 222.157 14.524C222.726 14.524 223.221 14.622 223.641 14.818C224.061 15.014 224.406 15.28 224.677 15.616C224.947 15.952 225.148 16.344 225.278 16.792C225.419 17.2307 225.489 17.702 225.489 18.206V18.794H220.63V18.976C220.63 19.508 220.78 19.9373 221.079 20.264C221.377 20.5813 221.821 20.74 222.409 20.74C222.856 20.74 223.22 20.6467 223.5 20.46C223.79 20.2733 224.047 20.0353 224.271 19.746L225.237 20.824C224.938 21.244 224.527 21.5753 224.005 21.818C223.491 22.0513 222.894 22.168 222.213 22.168ZM222.185 15.868C221.709 15.868 221.33 16.0267 221.05 16.344C220.77 16.6613 220.63 17.072 220.63 17.576V17.688H223.626V17.562C223.626 17.058 223.501 16.652 223.249 16.344C223.006 16.0267 222.651 15.868 222.185 15.868ZM232.601 22C232.209 22 231.896 21.888 231.663 21.664C231.439 21.4307 231.299 21.1227 231.243 20.74H231.159C231.038 21.216 230.79 21.5753 230.417 21.818C230.044 22.0513 229.582 22.168 229.031 22.168C228.284 22.168 227.71 21.972 227.309 21.58C226.908 21.188 226.707 20.6653 226.707 20.012C226.707 19.256 226.978 18.696 227.519 18.332C228.06 17.9587 228.83 17.772 229.829 17.772H231.075V17.24C231.075 16.8293 230.968 16.512 230.753 16.288C230.538 16.064 230.193 15.952 229.717 15.952C229.297 15.952 228.956 16.0453 228.695 16.232C228.443 16.4093 228.228 16.624 228.051 16.876L226.987 15.924C227.258 15.504 227.617 15.168 228.065 14.916C228.513 14.6547 229.106 14.524 229.843 14.524C230.832 14.524 231.584 14.748 232.097 15.196C232.61 15.644 232.867 16.288 232.867 17.128V20.572H233.595V22H232.601ZM229.633 20.866C230.034 20.866 230.375 20.7773 230.655 20.6C230.935 20.4227 231.075 20.1613 231.075 19.816V18.85H229.927C228.994 18.85 228.527 19.1487 228.527 19.746V19.984C228.527 20.2827 228.62 20.5067 228.807 20.656C229.003 20.796 229.278 20.866 229.633 20.866ZM239.741 20.782H239.671C239.541 21.202 239.293 21.538 238.929 21.79C238.565 22.042 238.141 22.168 237.655 22.168C236.731 22.168 236.022 21.8367 235.527 21.174C235.042 20.5113 234.799 19.564 234.799 18.332C234.799 17.1093 235.042 16.1713 235.527 15.518C236.022 14.8553 236.731 14.524 237.655 14.524C238.141 14.524 238.565 14.65 238.929 14.902C239.293 15.1447 239.541 15.476 239.671 15.896H239.741V11.64H241.533V22H239.741V20.782ZM238.229 20.684C238.659 20.684 239.018 20.5813 239.307 20.376C239.597 20.1707 239.741 19.8767 239.741 19.494V17.17C239.741 16.8153 239.597 16.5307 239.307 16.316C239.018 16.1013 238.659 15.994 238.229 15.994C237.763 15.994 237.385 16.1527 237.095 16.47C236.815 16.778 236.675 17.1933 236.675 17.716V18.976C236.675 19.4987 236.815 19.914 237.095 20.222C237.385 20.53 237.763 20.684 238.229 20.684ZM246.714 22.168C246.173 22.168 245.687 22.0793 245.258 21.902C244.838 21.7153 244.479 21.4587 244.18 21.132C243.891 20.796 243.667 20.3947 243.508 19.928C243.349 19.452 243.27 18.92 243.27 18.332C243.27 17.7533 243.345 17.2307 243.494 16.764C243.653 16.2973 243.877 15.9007 244.166 15.574C244.455 15.238 244.81 14.9813 245.23 14.804C245.65 14.6173 246.126 14.524 246.658 14.524C247.227 14.524 247.722 14.622 248.142 14.818C248.562 15.014 248.907 15.28 249.178 15.616C249.449 15.952 249.649 16.344 249.78 16.792C249.92 17.2307 249.99 17.702 249.99 18.206V18.794H245.132V18.976C245.132 19.508 245.281 19.9373 245.58 20.264C245.879 20.5813 246.322 20.74 246.91 20.74C247.358 20.74 247.722 20.6467 248.002 20.46C248.291 20.2733 248.548 20.0353 248.772 19.746L249.738 20.824C249.439 21.244 249.029 21.5753 248.506 21.818C247.993 22.0513 247.395 22.168 246.714 22.168ZM246.686 15.868C246.21 15.868 245.832 16.0267 245.552 16.344C245.272 16.6613 245.132 17.072 245.132 17.576V17.688H248.128V17.562C248.128 17.058 248.002 16.652 247.75 16.344C247.507 16.0267 247.153 15.868 246.686 15.868ZM251.727 22V14.692H253.519V16.204H253.589C253.635 16.008 253.705 15.8213 253.799 15.644C253.901 15.4573 254.032 15.294 254.191 15.154C254.349 15.014 254.536 14.902 254.751 14.818C254.975 14.734 255.231 14.692 255.521 14.692H255.913V16.386H255.353C254.746 16.386 254.289 16.4747 253.981 16.652C253.673 16.8293 253.519 17.1187 253.519 17.52V22H251.727Z" fill="#161616"/>
</g>
<g clip-path="url(#clip3_254_16990)">
<path d="M311.07 17.87H306.996V22H305.148V12.228H306.996V16.232H311.07V12.228H312.918V22H311.07V17.87ZM318.213 22.168C317.671 22.168 317.186 22.0793 316.756 21.902C316.336 21.7153 315.977 21.4587 315.678 21.132C315.389 20.796 315.165 20.3947 315.006 19.928C314.848 19.452 314.768 18.92 314.768 18.332C314.768 17.7533 314.843 17.2307 314.992 16.764C315.151 16.2973 315.375 15.9007 315.664 15.574C315.954 15.238 316.308 14.9813 316.728 14.804C317.148 14.6173 317.624 14.524 318.157 14.524C318.726 14.524 319.221 14.622 319.641 14.818C320.061 15.014 320.406 15.28 320.677 15.616C320.947 15.952 321.148 16.344 321.278 16.792C321.419 17.2307 321.489 17.702 321.489 18.206V18.794H316.63V18.976C316.63 19.508 316.78 19.9373 317.079 20.264C317.377 20.5813 317.821 20.74 318.409 20.74C318.856 20.74 319.22 20.6467 319.5 20.46C319.79 20.2733 320.047 20.0353 320.271 19.746L321.237 20.824C320.938 21.244 320.527 21.5753 320.005 21.818C319.491 22.0513 318.894 22.168 318.213 22.168ZM318.185 15.868C317.709 15.868 317.33 16.0267 317.05 16.344C316.77 16.6613 316.63 17.072 316.63 17.576V17.688H319.626V17.562C319.626 17.058 319.501 16.652 319.249 16.344C319.006 16.0267 318.651 15.868 318.185 15.868ZM328.601 22C328.209 22 327.896 21.888 327.663 21.664C327.439 21.4307 327.299 21.1227 327.243 20.74H327.159C327.038 21.216 326.79 21.5753 326.417 21.818C326.044 22.0513 325.582 22.168 325.031 22.168C324.284 22.168 323.71 21.972 323.309 21.58C322.908 21.188 322.707 20.6653 322.707 20.012C322.707 19.256 322.978 18.696 323.519 18.332C324.06 17.9587 324.83 17.772 325.829 17.772H327.075V17.24C327.075 16.8293 326.968 16.512 326.753 16.288C326.538 16.064 326.193 15.952 325.717 15.952C325.297 15.952 324.956 16.0453 324.695 16.232C324.443 16.4093 324.228 16.624 324.051 16.876L322.987 15.924C323.258 15.504 323.617 15.168 324.065 14.916C324.513 14.6547 325.106 14.524 325.843 14.524C326.832 14.524 327.584 14.748 328.097 15.196C328.61 15.644 328.867 16.288 328.867 17.128V20.572H329.595V22H328.601ZM325.633 20.866C326.034 20.866 326.375 20.7773 326.655 20.6C326.935 20.4227 327.075 20.1613 327.075 19.816V18.85H325.927C324.994 18.85 324.527 19.1487 324.527 19.746V19.984C324.527 20.2827 324.62 20.5067 324.807 20.656C325.003 20.796 325.278 20.866 325.633 20.866ZM335.741 20.782H335.671C335.541 21.202 335.293 21.538 334.929 21.79C334.565 22.042 334.141 22.168 333.655 22.168C332.731 22.168 332.022 21.8367 331.527 21.174C331.042 20.5113 330.799 19.564 330.799 18.332C330.799 17.1093 331.042 16.1713 331.527 15.518C332.022 14.8553 332.731 14.524 333.655 14.524C334.141 14.524 334.565 14.65 334.929 14.902C335.293 15.1447 335.541 15.476 335.671 15.896H335.741V11.64H337.533V22H335.741V20.782ZM334.229 20.684C334.659 20.684 335.018 20.5813 335.307 20.376C335.597 20.1707 335.741 19.8767 335.741 19.494V17.17C335.741 16.8153 335.597 16.5307 335.307 16.316C335.018 16.1013 334.659 15.994 334.229 15.994C333.763 15.994 333.385 16.1527 333.095 16.47C332.815 16.778 332.675 17.1933 332.675 17.716V18.976C332.675 19.4987 332.815 19.914 333.095 20.222C333.385 20.53 333.763 20.684 334.229 20.684ZM342.714 22.168C342.173 22.168 341.687 22.0793 341.258 21.902C340.838 21.7153 340.479 21.4587 340.18 21.132C339.891 20.796 339.667 20.3947 339.508 19.928C339.349 19.452 339.27 18.92 339.27 18.332C339.27 17.7533 339.345 17.2307 339.494 16.764C339.653 16.2973 339.877 15.9007 340.166 15.574C340.455 15.238 340.81 14.9813 341.23 14.804C341.65 14.6173 342.126 14.524 342.658 14.524C343.227 14.524 343.722 14.622 344.142 14.818C344.562 15.014 344.907 15.28 345.178 15.616C345.449 15.952 345.649 16.344 345.78 16.792C345.92 17.2307 345.99 17.702 345.99 18.206V18.794H341.132V18.976C341.132 19.508 341.281 19.9373 341.58 20.264C341.879 20.5813 342.322 20.74 342.91 20.74C343.358 20.74 343.722 20.6467 344.002 20.46C344.291 20.2733 344.548 20.0353 344.772 19.746L345.738 20.824C345.439 21.244 345.029 21.5753 344.506 21.818C343.993 22.0513 343.395 22.168 342.714 22.168ZM342.686 15.868C342.21 15.868 341.832 16.0267 341.552 16.344C341.272 16.6613 341.132 17.072 341.132 17.576V17.688H344.128V17.562C344.128 17.058 344.002 16.652 343.75 16.344C343.507 16.0267 343.153 15.868 342.686 15.868ZM347.727 22V14.692H349.519V16.204H349.589C349.635 16.008 349.705 15.8213 349.799 15.644C349.901 15.4573 350.032 15.294 350.191 15.154C350.349 15.014 350.536 14.902 350.751 14.818C350.975 14.734 351.231 14.692 351.521 14.692H351.913V16.386H351.353C350.746 16.386 350.289 16.4747 349.981 16.652C349.673 16.8293 349.519 17.1187 349.519 17.52V22H347.727Z" fill="#161616"/>
</g>
<g clip-path="url(#clip4_254_16990)">
<path d="M407.07 17.87H402.996V22H401.148V12.228H402.996V16.232H407.07V12.228H408.918V22H407.07V17.87ZM414.213 22.168C413.671 22.168 413.186 22.0793 412.756 21.902C412.336 21.7153 411.977 21.4587 411.678 21.132C411.389 20.796 411.165 20.3947 411.006 19.928C410.848 19.452 410.768 18.92 410.768 18.332C410.768 17.7533 410.843 17.2307 410.992 16.764C411.151 16.2973 411.375 15.9007 411.664 15.574C411.954 15.238 412.308 14.9813 412.728 14.804C413.148 14.6173 413.624 14.524 414.157 14.524C414.726 14.524 415.221 14.622 415.641 14.818C416.061 15.014 416.406 15.28 416.677 15.616C416.947 15.952 417.148 16.344 417.278 16.792C417.419 17.2307 417.489 17.702 417.489 18.206V18.794H412.63V18.976C412.63 19.508 412.78 19.9373 413.079 20.264C413.377 20.5813 413.821 20.74 414.409 20.74C414.856 20.74 415.22 20.6467 415.5 20.46C415.79 20.2733 416.047 20.0353 416.271 19.746L417.237 20.824C416.938 21.244 416.527 21.5753 416.005 21.818C415.491 22.0513 414.894 22.168 414.213 22.168ZM414.185 15.868C413.709 15.868 413.33 16.0267 413.05 16.344C412.77 16.6613 412.63 17.072 412.63 17.576V17.688H415.626V17.562C415.626 17.058 415.501 16.652 415.249 16.344C415.006 16.0267 414.651 15.868 414.185 15.868ZM424.601 22C424.209 22 423.896 21.888 423.663 21.664C423.439 21.4307 423.299 21.1227 423.243 20.74H423.159C423.038 21.216 422.79 21.5753 422.417 21.818C422.044 22.0513 421.582 22.168 421.031 22.168C420.284 22.168 419.71 21.972 419.309 21.58C418.908 21.188 418.707 20.6653 418.707 20.012C418.707 19.256 418.978 18.696 419.519 18.332C420.06 17.9587 420.83 17.772 421.829 17.772H423.075V17.24C423.075 16.8293 422.968 16.512 422.753 16.288C422.538 16.064 422.193 15.952 421.717 15.952C421.297 15.952 420.956 16.0453 420.695 16.232C420.443 16.4093 420.228 16.624 420.051 16.876L418.987 15.924C419.258 15.504 419.617 15.168 420.065 14.916C420.513 14.6547 421.106 14.524 421.843 14.524C422.832 14.524 423.584 14.748 424.097 15.196C424.61 15.644 424.867 16.288 424.867 17.128V20.572H425.595V22H424.601ZM421.633 20.866C422.034 20.866 422.375 20.7773 422.655 20.6C422.935 20.4227 423.075 20.1613 423.075 19.816V18.85H421.927C420.994 18.85 420.527 19.1487 420.527 19.746V19.984C420.527 20.2827 420.62 20.5067 420.807 20.656C421.003 20.796 421.278 20.866 421.633 20.866ZM431.741 20.782H431.671C431.541 21.202 431.293 21.538 430.929 21.79C430.565 22.042 430.141 22.168 429.655 22.168C428.731 22.168 428.022 21.8367 427.527 21.174C427.042 20.5113 426.799 19.564 426.799 18.332C426.799 17.1093 427.042 16.1713 427.527 15.518C428.022 14.8553 428.731 14.524 429.655 14.524C430.141 14.524 430.565 14.65 430.929 14.902C431.293 15.1447 431.541 15.476 431.671 15.896H431.741V11.64H433.533V22H431.741V20.782ZM430.229 20.684C430.659 20.684 431.018 20.5813 431.307 20.376C431.597 20.1707 431.741 19.8767 431.741 19.494V17.17C431.741 16.8153 431.597 16.5307 431.307 16.316C431.018 16.1013 430.659 15.994 430.229 15.994C429.763 15.994 429.385 16.1527 429.095 16.47C428.815 16.778 428.675 17.1933 428.675 17.716V18.976C428.675 19.4987 428.815 19.914 429.095 20.222C429.385 20.53 429.763 20.684 430.229 20.684ZM438.714 22.168C438.173 22.168 437.687 22.0793 437.258 21.902C436.838 21.7153 436.479 21.4587 436.18 21.132C435.891 20.796 435.667 20.3947 435.508 19.928C435.349 19.452 435.27 18.92 435.27 18.332C435.27 17.7533 435.345 17.2307 435.494 16.764C435.653 16.2973 435.877 15.9007 436.166 15.574C436.455 15.238 436.81 14.9813 437.23 14.804C437.65 14.6173 438.126 14.524 438.658 14.524C439.227 14.524 439.722 14.622 440.142 14.818C440.562 15.014 440.907 15.28 441.178 15.616C441.449 15.952 441.649 16.344 441.78 16.792C441.92 17.2307 441.99 17.702 441.99 18.206V18.794H437.132V18.976C437.132 19.508 437.281 19.9373 437.58 20.264C437.879 20.5813 438.322 20.74 438.91 20.74C439.358 20.74 439.722 20.6467 440.002 20.46C440.291 20.2733 440.548 20.0353 440.772 19.746L441.738 20.824C441.439 21.244 441.029 21.5753 440.506 21.818C439.993 22.0513 439.395 22.168 438.714 22.168ZM438.686 15.868C438.21 15.868 437.832 16.0267 437.552 16.344C437.272 16.6613 437.132 17.072 437.132 17.576V17.688H440.128V17.562C440.128 17.058 440.002 16.652 439.75 16.344C439.507 16.0267 439.153 15.868 438.686 15.868ZM443.727 22V14.692H445.519V16.204H445.589C445.635 16.008 445.705 15.8213 445.799 15.644C445.901 15.4573 446.032 15.294 446.191 15.154C446.349 15.014 446.536 14.902 446.751 14.818C446.975 14.734 447.231 14.692 447.521 14.692H447.913V16.386H447.353C446.746 16.386 446.289 16.4747 445.981 16.652C445.673 16.8293 445.519 17.1187 445.519 17.52V22H443.727Z" fill="#161616"/>
</g>
<mask id="path-8-inside-2_254_16990" fill="white">
<path d="M0 34H480V94H0V34Z"/>
</mask>
<path d="M0 34H480V94H0V34Z" fill="white" fill-opacity="0.01" style="mix-blend-mode:multiply"/>
<path d="M480 94V93H0V94V95H480V94Z" fill="#E0E0E0" mask="url(#path-8-inside-2_254_16990)"/>
<g clip-path="url(#clip5_254_16990)">
<path d="M18.478 65H17.302V55.228H21.194C22.0527 55.228 22.72 55.466 23.196 55.942C23.6813 56.418 23.924 57.104 23.924 58C23.924 58.7187 23.756 59.3113 23.42 59.778C23.0933 60.2353 22.608 60.5387 21.964 60.688L24.204 65H22.874L20.76 60.8H18.478V65ZM21.194 59.792C21.6607 59.792 22.02 59.6707 22.272 59.428C22.5333 59.1853 22.664 58.84 22.664 58.392V57.664C22.664 57.216 22.5333 56.8707 22.272 56.628C22.02 56.3853 21.6607 56.264 21.194 56.264H18.478V59.792H21.194ZM28.83 65.168C28.3447 65.168 27.9013 65.0793 27.5 64.902C27.0987 64.7247 26.7533 64.4727 26.464 64.146C26.184 63.81 25.9647 63.4133 25.806 62.956C25.6473 62.4893 25.568 61.9667 25.568 61.388C25.568 60.8187 25.6473 60.3007 25.806 59.834C25.9647 59.3673 26.184 58.9707 26.464 58.644C26.7533 58.308 27.0987 58.0513 27.5 57.874C27.9013 57.6967 28.3447 57.608 28.83 57.608C29.3153 57.608 29.754 57.6967 30.146 57.874C30.5473 58.0513 30.8927 58.308 31.182 58.644C31.4713 58.9707 31.6953 59.3673 31.854 59.834C32.0127 60.3007 32.092 60.8187 32.092 61.388C32.092 61.9667 32.0127 62.4893 31.854 62.956C31.6953 63.4133 31.4713 63.81 31.182 64.146C30.8927 64.4727 30.5473 64.7247 30.146 64.902C29.754 65.0793 29.3153 65.168 28.83 65.168ZM28.83 64.174C29.4367 64.174 29.9313 63.9873 30.314 63.614C30.6967 63.2407 30.888 62.6713 30.888 61.906V60.87C30.888 60.1047 30.6967 59.5353 30.314 59.162C29.9313 58.7887 29.4367 58.602 28.83 58.602C28.2233 58.602 27.7287 58.7887 27.346 59.162C26.9633 59.5353 26.772 60.1047 26.772 60.87V61.906C26.772 62.6713 26.9633 63.2407 27.346 63.614C27.7287 63.9873 28.2233 64.174 28.83 64.174ZM33.2696 57.776H34.3616L35.1316 60.898L35.9016 64.062H35.9296L36.8116 60.898L37.7216 57.776H38.7156L39.6536 60.898L40.5496 64.062H40.5776L41.3196 60.898L42.1036 57.776H43.1536L41.2356 65H39.8496L38.8416 61.528L38.2116 59.33H38.1836L37.5676 61.528L36.5596 65H35.2016L33.2696 57.776Z" fill="#525252"/>
</g>
<g clip-path="url(#clip6_254_16990)">
<path d="M114.478 65H113.302V55.228H117.194C118.053 55.228 118.72 55.466 119.196 55.942C119.681 56.418 119.924 57.104 119.924 58C119.924 58.7187 119.756 59.3113 119.42 59.778C119.093 60.2353 118.608 60.5387 117.964 60.688L120.204 65H118.874L116.76 60.8H114.478V65ZM117.194 59.792C117.661 59.792 118.02 59.6707 118.272 59.428C118.533 59.1853 118.664 58.84 118.664 58.392V57.664C118.664 57.216 118.533 56.8707 118.272 56.628C118.02 56.3853 117.661 56.264 117.194 56.264H114.478V59.792H117.194ZM124.83 65.168C124.345 65.168 123.901 65.0793 123.5 64.902C123.099 64.7247 122.753 64.4727 122.464 64.146C122.184 63.81 121.965 63.4133 121.806 62.956C121.647 62.4893 121.568 61.9667 121.568 61.388C121.568 60.8187 121.647 60.3007 121.806 59.834C121.965 59.3673 122.184 58.9707 122.464 58.644C122.753 58.308 123.099 58.0513 123.5 57.874C123.901 57.6967 124.345 57.608 124.83 57.608C125.315 57.608 125.754 57.6967 126.146 57.874C126.547 58.0513 126.893 58.308 127.182 58.644C127.471 58.9707 127.695 59.3673 127.854 59.834C128.013 60.3007 128.092 60.8187 128.092 61.388C128.092 61.9667 128.013 62.4893 127.854 62.956C127.695 63.4133 127.471 63.81 127.182 64.146C126.893 64.4727 126.547 64.7247 126.146 64.902C125.754 65.0793 125.315 65.168 124.83 65.168ZM124.83 64.174C125.437 64.174 125.931 63.9873 126.314 63.614C126.697 63.2407 126.888 62.6713 126.888 61.906V60.87C126.888 60.1047 126.697 59.5353 126.314 59.162C125.931 58.7887 125.437 58.602 124.83 58.602C124.223 58.602 123.729 58.7887 123.346 59.162C122.963 59.5353 122.772 60.1047 122.772 60.87V61.906C122.772 62.6713 122.963 63.2407 123.346 63.614C123.729 63.9873 124.223 64.174 124.83 64.174ZM129.27 57.776H130.362L131.132 60.898L131.902 64.062H131.93L132.812 60.898L133.722 57.776H134.716L135.654 60.898L136.55 64.062H136.578L137.32 60.898L138.104 57.776H139.154L137.236 65H135.85L134.842 61.528L134.212 59.33H134.184L133.568 61.528L132.56 65H131.202L129.27 57.776Z" fill="#525252"/>
</g>
<g clip-path="url(#clip7_254_16990)">
<path d="M210.478 65H209.302V55.228H213.194C214.053 55.228 214.72 55.466 215.196 55.942C215.681 56.418 215.924 57.104 215.924 58C215.924 58.7187 215.756 59.3113 215.42 59.778C215.093 60.2353 214.608 60.5387 213.964 60.688L216.204 65H214.874L212.76 60.8H210.478V65ZM213.194 59.792C213.661 59.792 214.02 59.6707 214.272 59.428C214.533 59.1853 214.664 58.84 214.664 58.392V57.664C214.664 57.216 214.533 56.8707 214.272 56.628C214.02 56.3853 213.661 56.264 213.194 56.264H210.478V59.792H213.194ZM220.83 65.168C220.345 65.168 219.901 65.0793 219.5 64.902C219.099 64.7247 218.753 64.4727 218.464 64.146C218.184 63.81 217.965 63.4133 217.806 62.956C217.647 62.4893 217.568 61.9667 217.568 61.388C217.568 60.8187 217.647 60.3007 217.806 59.834C217.965 59.3673 218.184 58.9707 218.464 58.644C218.753 58.308 219.099 58.0513 219.5 57.874C219.901 57.6967 220.345 57.608 220.83 57.608C221.315 57.608 221.754 57.6967 222.146 57.874C222.547 58.0513 222.893 58.308 223.182 58.644C223.471 58.9707 223.695 59.3673 223.854 59.834C224.013 60.3007 224.092 60.8187 224.092 61.388C224.092 61.9667 224.013 62.4893 223.854 62.956C223.695 63.4133 223.471 63.81 223.182 64.146C222.893 64.4727 222.547 64.7247 222.146 64.902C221.754 65.0793 221.315 65.168 220.83 65.168ZM220.83 64.174C221.437 64.174 221.931 63.9873 222.314 63.614C222.697 63.2407 222.888 62.6713 222.888 61.906V60.87C222.888 60.1047 222.697 59.5353 222.314 59.162C221.931 58.7887 221.437 58.602 220.83 58.602C220.223 58.602 219.729 58.7887 219.346 59.162C218.963 59.5353 218.772 60.1047 218.772 60.87V61.906C218.772 62.6713 218.963 63.2407 219.346 63.614C219.729 63.9873 220.223 64.174 220.83 64.174ZM225.27 57.776H226.362L227.132 60.898L227.902 64.062H227.93L228.812 60.898L229.722 57.776H230.716L231.654 60.898L232.55 64.062H232.578L233.32 60.898L234.104 57.776H235.154L233.236 65H231.85L230.842 61.528L230.212 59.33H230.184L229.568 61.528L228.56 65H227.202L225.27 57.776Z" fill="#525252"/>
</g>
<g clip-path="url(#clip8_254_16990)">
<path d="M306.478 65H305.302V55.228H309.194C310.053 55.228 310.72 55.466 311.196 55.942C311.681 56.418 311.924 57.104 311.924 58C311.924 58.7187 311.756 59.3113 311.42 59.778C311.093 60.2353 310.608 60.5387 309.964 60.688L312.204 65H310.874L308.76 60.8H306.478V65ZM309.194 59.792C309.661 59.792 310.02 59.6707 310.272 59.428C310.533 59.1853 310.664 58.84 310.664 58.392V57.664C310.664 57.216 310.533 56.8707 310.272 56.628C310.02 56.3853 309.661 56.264 309.194 56.264H306.478V59.792H309.194ZM316.83 65.168C316.345 65.168 315.901 65.0793 315.5 64.902C315.099 64.7247 314.753 64.4727 314.464 64.146C314.184 63.81 313.965 63.4133 313.806 62.956C313.647 62.4893 313.568 61.9667 313.568 61.388C313.568 60.8187 313.647 60.3007 313.806 59.834C313.965 59.3673 314.184 58.9707 314.464 58.644C314.753 58.308 315.099 58.0513 315.5 57.874C315.901 57.6967 316.345 57.608 316.83 57.608C317.315 57.608 317.754 57.6967 318.146 57.874C318.547 58.0513 318.893 58.308 319.182 58.644C319.471 58.9707 319.695 59.3673 319.854 59.834C320.013 60.3007 320.092 60.8187 320.092 61.388C320.092 61.9667 320.013 62.4893 319.854 62.956C319.695 63.4133 319.471 63.81 319.182 64.146C318.893 64.4727 318.547 64.7247 318.146 64.902C317.754 65.0793 317.315 65.168 316.83 65.168ZM316.83 64.174C317.437 64.174 317.931 63.9873 318.314 63.614C318.697 63.2407 318.888 62.6713 318.888 61.906V60.87C318.888 60.1047 318.697 59.5353 318.314 59.162C317.931 58.7887 317.437 58.602 316.83 58.602C316.223 58.602 315.729 58.7887 315.346 59.162C314.963 59.5353 314.772 60.1047 314.772 60.87V61.906C314.772 62.6713 314.963 63.2407 315.346 63.614C315.729 63.9873 316.223 64.174 316.83 64.174ZM321.27 57.776H322.362L323.132 60.898L323.902 64.062H323.93L324.812 60.898L325.722 57.776H326.716L327.654 60.898L328.55 64.062H328.578L329.32 60.898L330.104 57.776H331.154L329.236 65H327.85L326.842 61.528L326.212 59.33H326.184L325.568 61.528L324.56 65H323.202L321.27 57.776Z" fill="#525252"/>
</g>
<g clip-path="url(#clip9_254_16990)">
<path d="M402.478 65H401.302V55.228H405.194C406.053 55.228 406.72 55.466 407.196 55.942C407.681 56.418 407.924 57.104 407.924 58C407.924 58.7187 407.756 59.3113 407.42 59.778C407.093 60.2353 406.608 60.5387 405.964 60.688L408.204 65H406.874L404.76 60.8H402.478V65ZM405.194 59.792C405.661 59.792 406.02 59.6707 406.272 59.428C406.533 59.1853 406.664 58.84 406.664 58.392V57.664C406.664 57.216 406.533 56.8707 406.272 56.628C406.02 56.3853 405.661 56.264 405.194 56.264H402.478V59.792H405.194ZM412.83 65.168C412.345 65.168 411.901 65.0793 411.5 64.902C411.099 64.7247 410.753 64.4727 410.464 64.146C410.184 63.81 409.965 63.4133 409.806 62.956C409.647 62.4893 409.568 61.9667 409.568 61.388C409.568 60.8187 409.647 60.3007 409.806 59.834C409.965 59.3673 410.184 58.9707 410.464 58.644C410.753 58.308 411.099 58.0513 411.5 57.874C411.901 57.6967 412.345 57.608 412.83 57.608C413.315 57.608 413.754 57.6967 414.146 57.874C414.547 58.0513 414.893 58.308 415.182 58.644C415.471 58.9707 415.695 59.3673 415.854 59.834C416.013 60.3007 416.092 60.8187 416.092 61.388C416.092 61.9667 416.013 62.4893 415.854 62.956C415.695 63.4133 415.471 63.81 415.182 64.146C414.893 64.4727 414.547 64.7247 414.146 64.902C413.754 65.0793 413.315 65.168 412.83 65.168ZM412.83 64.174C413.437 64.174 413.931 63.9873 414.314 63.614C414.697 63.2407 414.888 62.6713 414.888 61.906V60.87C414.888 60.1047 414.697 59.5353 414.314 59.162C413.931 58.7887 413.437 58.602 412.83 58.602C412.223 58.602 411.729 58.7887 411.346 59.162C410.963 59.5353 410.772 60.1047 410.772 60.87V61.906C410.772 62.6713 410.963 63.2407 411.346 63.614C411.729 63.9873 412.223 64.174 412.83 64.174ZM417.27 57.776H418.362L419.132 60.898L419.902 64.062H419.93L420.812 60.898L421.722 57.776H422.716L423.654 60.898L424.55 64.062H424.578L425.32 60.898L426.104 57.776H427.154L425.236 65H423.85L422.842 61.528L422.212 59.33H422.184L421.568 61.528L420.56 65H419.202L417.27 57.776Z" fill="#525252"/>
</g>
<mask id="path-15-inside-3_254_16990" fill="white">
<path d="M0 94H480V154H0V94Z"/>
</mask>
<path d="M0 94H480V154H0V94Z" fill="white" fill-opacity="0.01" style="mix-blend-mode:multiply"/>
<path d="M480 154V153H0V154V155H480V154Z" fill="#E0E0E0" mask="url(#path-15-inside-3_254_16990)"/>
<g clip-path="url(#clip10_254_16990)">
<path d="M18.478 125H17.302V115.228H21.194C22.0527 115.228 22.72 115.466 23.196 115.942C23.6813 116.418 23.924 117.104 23.924 118C23.924 118.719 23.756 119.311 23.42 119.778C23.0933 120.235 22.608 120.539 21.964 120.688L24.204 125H22.874L20.76 120.8H18.478V125ZM21.194 119.792C21.6607 119.792 22.02 119.671 22.272 119.428C22.5333 119.185 22.664 118.84 22.664 118.392V117.664C22.664 117.216 22.5333 116.871 22.272 116.628C22.02 116.385 21.6607 116.264 21.194 116.264H18.478V119.792H21.194ZM28.83 125.168C28.3447 125.168 27.9013 125.079 27.5 124.902C27.0987 124.725 26.7533 124.473 26.464 124.146C26.184 123.81 25.9647 123.413 25.806 122.956C25.6473 122.489 25.568 121.967 25.568 121.388C25.568 120.819 25.6473 120.301 25.806 119.834C25.9647 119.367 26.184 118.971 26.464 118.644C26.7533 118.308 27.0987 118.051 27.5 117.874C27.9013 117.697 28.3447 117.608 28.83 117.608C29.3153 117.608 29.754 117.697 30.146 117.874C30.5473 118.051 30.8927 118.308 31.182 118.644C31.4713 118.971 31.6953 119.367 31.854 119.834C32.0127 120.301 32.092 120.819 32.092 121.388C32.092 121.967 32.0127 122.489 31.854 122.956C31.6953 123.413 31.4713 123.81 31.182 124.146C30.8927 124.473 30.5473 124.725 30.146 124.902C29.754 125.079 29.3153 125.168 28.83 125.168ZM28.83 124.174C29.4367 124.174 29.9313 123.987 30.314 123.614C30.6967 123.241 30.888 122.671 30.888 121.906V120.87C30.888 120.105 30.6967 119.535 30.314 119.162C29.9313 118.789 29.4367 118.602 28.83 118.602C28.2233 118.602 27.7287 118.789 27.346 119.162C26.9633 119.535 26.772 120.105 26.772 120.87V121.906C26.772 122.671 26.9633 123.241 27.346 123.614C27.7287 123.987 28.2233 124.174 28.83 124.174ZM33.2696 117.776H34.3616L35.1316 120.898L35.9016 124.062H35.9296L36.8116 120.898L37.7216 117.776H38.7156L39.6536 120.898L40.5496 124.062H40.5776L41.3196 120.898L42.1036 117.776H43.1536L41.2356 125H39.8496L38.8416 121.528L38.2116 119.33H38.1836L37.5676 121.528L36.5596 125H35.2016L33.2696 117.776Z" fill="#525252"/>
</g>
<g clip-path="url(#clip11_254_16990)">
<path d="M114.478 125H113.302V115.228H117.194C118.053 115.228 118.72 115.466 119.196 115.942C119.681 116.418 119.924 117.104 119.924 118C119.924 118.719 119.756 119.311 119.42 119.778C119.093 120.235 118.608 120.539 117.964 120.688L120.204 125H118.874L116.76 120.8H114.478V125ZM117.194 119.792C117.661 119.792 118.02 119.671 118.272 119.428C118.533 119.185 118.664 118.84 118.664 118.392V117.664C118.664 117.216 118.533 116.871 118.272 116.628C118.02 116.385 117.661 116.264 117.194 116.264H114.478V119.792H117.194ZM124.83 125.168C124.345 125.168 123.901 125.079 123.5 124.902C123.099 124.725 122.753 124.473 122.464 124.146C122.184 123.81 121.965 123.413 121.806 122.956C121.647 122.489 121.568 121.967 121.568 121.388C121.568 120.819 121.647 120.301 121.806 119.834C121.965 119.367 122.184 118.971 122.464 118.644C122.753 118.308 123.099 118.051 123.5 117.874C123.901 117.697 124.345 117.608 124.83 117.608C125.315 117.608 125.754 117.697 126.146 117.874C126.547 118.051 126.893 118.308 127.182 118.644C127.471 118.971 127.695 119.367 127.854 119.834C128.013 120.301 128.092 120.819 128.092 121.388C128.092 121.967 128.013 122.489 127.854 122.956C127.695 123.413 127.471 123.81 127.182 124.146C126.893 124.473 126.547 124.725 126.146 124.902C125.754 125.079 125.315 125.168 124.83 125.168ZM124.83 124.174C125.437 124.174 125.931 123.987 126.314 123.614C126.697 123.241 126.888 122.671 126.888 121.906V120.87C126.888 120.105 126.697 119.535 126.314 119.162C125.931 118.789 125.437 118.602 124.83 118.602C124.223 118.602 123.729 118.789 123.346 119.162C122.963 119.535 122.772 120.105 122.772 120.87V121.906C122.772 122.671 122.963 123.241 123.346 123.614C123.729 123.987 124.223 124.174 124.83 124.174ZM129.27 117.776H130.362L131.132 120.898L131.902 124.062H131.93L132.812 120.898L133.722 117.776H134.716L135.654 120.898L136.55 124.062H136.578L137.32 120.898L138.104 117.776H139.154L137.236 125H135.85L134.842 121.528L134.212 119.33H134.184L133.568 121.528L132.56 125H131.202L129.27 117.776Z" fill="#525252"/>
</g>
<g clip-path="url(#clip12_254_16990)">
<path d="M210.478 125H209.302V115.228H213.194C214.053 115.228 214.72 115.466 215.196 115.942C215.681 116.418 215.924 117.104 215.924 118C215.924 118.719 215.756 119.311 215.42 119.778C215.093 120.235 214.608 120.539 213.964 120.688L216.204 125H214.874L212.76 120.8H210.478V125ZM213.194 119.792C213.661 119.792 214.02 119.671 214.272 119.428C214.533 119.185 214.664 118.84 214.664 118.392V117.664C214.664 117.216 214.533 116.871 214.272 116.628C214.02 116.385 213.661 116.264 213.194 116.264H210.478V119.792H213.194ZM220.83 125.168C220.345 125.168 219.901 125.079 219.5 124.902C219.099 124.725 218.753 124.473 218.464 124.146C218.184 123.81 217.965 123.413 217.806 122.956C217.647 122.489 217.568 121.967 217.568 121.388C217.568 120.819 217.647 120.301 217.806 119.834C217.965 119.367 218.184 118.971 218.464 118.644C218.753 118.308 219.099 118.051 219.5 117.874C219.901 117.697 220.345 117.608 220.83 117.608C221.315 117.608 221.754 117.697 222.146 117.874C222.547 118.051 222.893 118.308 223.182 118.644C223.471 118.971 223.695 119.367 223.854 119.834C224.013 120.301 224.092 120.819 224.092 121.388C224.092 121.967 224.013 122.489 223.854 122.956C223.695 123.413 223.471 123.81 223.182 124.146C222.893 124.473 222.547 124.725 222.146 124.902C221.754 125.079 221.315 125.168 220.83 125.168ZM220.83 124.174C221.437 124.174 221.931 123.987 222.314 123.614C222.697 123.241 222.888 122.671 222.888 121.906V120.87C222.888 120.105 222.697 119.535 222.314 119.162C221.931 118.789 221.437 118.602 220.83 118.602C220.223 118.602 219.729 118.789 219.346 119.162C218.963 119.535 218.772 120.105 218.772 120.87V121.906C218.772 122.671 218.963 123.241 219.346 123.614C219.729 123.987 220.223 124.174 220.83 124.174ZM225.27 117.776H226.362L227.132 120.898L227.902 124.062H227.93L228.812 120.898L229.722 117.776H230.716L231.654 120.898L232.55 124.062H232.578L233.32 120.898L234.104 117.776H235.154L233.236 125H231.85L230.842 121.528L230.212 119.33H230.184L229.568 121.528L228.56 125H227.202L225.27 117.776Z" fill="#525252"/>
</g>
<g clip-path="url(#clip13_254_16990)">
<path d="M306.478 125H305.302V115.228H309.194C310.053 115.228 310.72 115.466 311.196 115.942C311.681 116.418 311.924 117.104 311.924 118C311.924 118.719 311.756 119.311 311.42 119.778C311.093 120.235 310.608 120.539 309.964 120.688L312.204 125H310.874L308.76 120.8H306.478V125ZM309.194 119.792C309.661 119.792 310.02 119.671 310.272 119.428C310.533 119.185 310.664 118.84 310.664 118.392V117.664C310.664 117.216 310.533 116.871 310.272 116.628C310.02 116.385 309.661 116.264 309.194 116.264H306.478V119.792H309.194ZM316.83 125.168C316.345 125.168 315.901 125.079 315.5 124.902C315.099 124.725 314.753 124.473 314.464 124.146C314.184 123.81 313.965 123.413 313.806 122.956C313.647 122.489 313.568 121.967 313.568 121.388C313.568 120.819 313.647 120.301 313.806 119.834C313.965 119.367 314.184 118.971 314.464 118.644C314.753 118.308 315.099 118.051 315.5 117.874C315.901 117.697 316.345 117.608 316.83 117.608C317.315 117.608 317.754 117.697 318.146 117.874C318.547 118.051 318.893 118.308 319.182 118.644C319.471 118.971 319.695 119.367 319.854 119.834C320.013 120.301 320.092 120.819 320.092 121.388C320.092 121.967 320.013 122.489 319.854 122.956C319.695 123.413 319.471 123.81 319.182 124.146C318.893 124.473 318.547 124.725 318.146 124.902C317.754 125.079 317.315 125.168 316.83 125.168ZM316.83 124.174C317.437 124.174 317.931 123.987 318.314 123.614C318.697 123.241 318.888 122.671 318.888 121.906V120.87C318.888 120.105 318.697 119.535 318.314 119.162C317.931 118.789 317.437 118.602 316.83 118.602C316.223 118.602 315.729 118.789 315.346 119.162C314.963 119.535 314.772 120.105 314.772 120.87V121.906C314.772 122.671 314.963 123.241 315.346 123.614C315.729 123.987 316.223 124.174 316.83 124.174ZM321.27 117.776H322.362L323.132 120.898L323.902 124.062H323.93L324.812 120.898L325.722 117.776H326.716L327.654 120.898L328.55 124.062H328.578L329.32 120.898L330.104 117.776H331.154L329.236 125H327.85L326.842 121.528L326.212 119.33H326.184L325.568 121.528L324.56 125H323.202L321.27 117.776Z" fill="#525252"/>
</g>
<g clip-path="url(#clip14_254_16990)">
<path d="M402.478 125H401.302V115.228H405.194C406.053 115.228 406.72 115.466 407.196 115.942C407.681 116.418 407.924 117.104 407.924 118C407.924 118.719 407.756 119.311 407.42 119.778C407.093 120.235 406.608 120.539 405.964 120.688L408.204 125H406.874L404.76 120.8H402.478V125ZM405.194 119.792C405.661 119.792 406.02 119.671 406.272 119.428C406.533 119.185 406.664 118.84 406.664 118.392V117.664C406.664 117.216 406.533 116.871 406.272 116.628C406.02 116.385 405.661 116.264 405.194 116.264H402.478V119.792H405.194ZM412.83 125.168C412.345 125.168 411.901 125.079 411.5 124.902C411.099 124.725 410.753 124.473 410.464 124.146C410.184 123.81 409.965 123.413 409.806 122.956C409.647 122.489 409.568 121.967 409.568 121.388C409.568 120.819 409.647 120.301 409.806 119.834C409.965 119.367 410.184 118.971 410.464 118.644C410.753 118.308 411.099 118.051 411.5 117.874C411.901 117.697 412.345 117.608 412.83 117.608C413.315 117.608 413.754 117.697 414.146 117.874C414.547 118.051 414.893 118.308 415.182 118.644C415.471 118.971 415.695 119.367 415.854 119.834C416.013 120.301 416.092 120.819 416.092 121.388C416.092 121.967 416.013 122.489 415.854 122.956C415.695 123.413 415.471 123.81 415.182 124.146C414.893 124.473 414.547 124.725 414.146 124.902C413.754 125.079 413.315 125.168 412.83 125.168ZM412.83 124.174C413.437 124.174 413.931 123.987 414.314 123.614C414.697 123.241 414.888 122.671 414.888 121.906V120.87C414.888 120.105 414.697 119.535 414.314 119.162C413.931 118.789 413.437 118.602 412.83 118.602C412.223 118.602 411.729 118.789 411.346 119.162C410.963 119.535 410.772 120.105 410.772 120.87V121.906C410.772 122.671 410.963 123.241 411.346 123.614C411.729 123.987 412.223 124.174 412.83 124.174ZM417.27 117.776H418.362L419.132 120.898L419.902 124.062H419.93L420.812 120.898L421.722 117.776H422.716L423.654 120.898L424.55 124.062H424.578L425.32 120.898L426.104 117.776H427.154L425.236 125H423.85L422.842 121.528L422.212 119.33H422.184L421.568 121.528L420.56 125H419.202L417.27 117.776Z" fill="#525252"/>
</g>
<mask id="path-22-inside-4_254_16990" fill="white">
<path d="M0 154H480V214H0V154Z"/>
</mask>
<path d="M0 154H480V214H0V154Z" fill="white" fill-opacity="0.01" style="mix-blend-mode:multiply"/>
<path d="M480 214V213H0V214V215H480V214Z" fill="#E0E0E0" mask="url(#path-22-inside-4_254_16990)"/>
<g clip-path="url(#clip15_254_16990)">
<path d="M18.478 185H17.302V175.228H21.194C22.0527 175.228 22.72 175.466 23.196 175.942C23.6813 176.418 23.924 177.104 23.924 178C23.924 178.719 23.756 179.311 23.42 179.778C23.0933 180.235 22.608 180.539 21.964 180.688L24.204 185H22.874L20.76 180.8H18.478V185ZM21.194 179.792C21.6607 179.792 22.02 179.671 22.272 179.428C22.5333 179.185 22.664 178.84 22.664 178.392V177.664C22.664 177.216 22.5333 176.871 22.272 176.628C22.02 176.385 21.6607 176.264 21.194 176.264H18.478V179.792H21.194ZM28.83 185.168C28.3447 185.168 27.9013 185.079 27.5 184.902C27.0987 184.725 26.7533 184.473 26.464 184.146C26.184 183.81 25.9647 183.413 25.806 182.956C25.6473 182.489 25.568 181.967 25.568 181.388C25.568 180.819 25.6473 180.301 25.806 179.834C25.9647 179.367 26.184 178.971 26.464 178.644C26.7533 178.308 27.0987 178.051 27.5 177.874C27.9013 177.697 28.3447 177.608 28.83 177.608C29.3153 177.608 29.754 177.697 30.146 177.874C30.5473 178.051 30.8927 178.308 31.182 178.644C31.4713 178.971 31.6953 179.367 31.854 179.834C32.0127 180.301 32.092 180.819 32.092 181.388C32.092 181.967 32.0127 182.489 31.854 182.956C31.6953 183.413 31.4713 183.81 31.182 184.146C30.8927 184.473 30.5473 184.725 30.146 184.902C29.754 185.079 29.3153 185.168 28.83 185.168ZM28.83 184.174C29.4367 184.174 29.9313 183.987 30.314 183.614C30.6967 183.241 30.888 182.671 30.888 181.906V180.87C30.888 180.105 30.6967 179.535 30.314 179.162C29.9313 178.789 29.4367 178.602 28.83 178.602C28.2233 178.602 27.7287 178.789 27.346 179.162C26.9633 179.535 26.772 180.105 26.772 180.87V181.906C26.772 182.671 26.9633 183.241 27.346 183.614C27.7287 183.987 28.2233 184.174 28.83 184.174ZM33.2696 177.776H34.3616L35.1316 180.898L35.9016 184.062H35.9296L36.8116 180.898L37.7216 177.776H38.7156L39.6536 180.898L40.5496 184.062H40.5776L41.3196 180.898L42.1036 177.776H43.1536L41.2356 185H39.8496L38.8416 181.528L38.2116 179.33H38.1836L37.5676 181.528L36.5596 185H35.2016L33.2696 177.776Z" fill="#525252"/>
</g>
<g clip-path="url(#clip16_254_16990)">
<path d="M114.478 185H113.302V175.228H117.194C118.053 175.228 118.72 175.466 119.196 175.942C119.681 176.418 119.924 177.104 119.924 178C119.924 178.719 119.756 179.311 119.42 179.778C119.093 180.235 118.608 180.539 117.964 180.688L120.204 185H118.874L116.76 180.8H114.478V185ZM117.194 179.792C117.661 179.792 118.02 179.671 118.272 179.428C118.533 179.185 118.664 178.84 118.664 178.392V177.664C118.664 177.216 118.533 176.871 118.272 176.628C118.02 176.385 117.661 176.264 117.194 176.264H114.478V179.792H117.194ZM124.83 185.168C124.345 185.168 123.901 185.079 123.5 184.902C123.099 184.725 122.753 184.473 122.464 184.146C122.184 183.81 121.965 183.413 121.806 182.956C121.647 182.489 121.568 181.967 121.568 181.388C121.568 180.819 121.647 180.301 121.806 179.834C121.965 179.367 122.184 178.971 122.464 178.644C122.753 178.308 123.099 178.051 123.5 177.874C123.901 177.697 124.345 177.608 124.83 177.608C125.315 177.608 125.754 177.697 126.146 177.874C126.547 178.051 126.893 178.308 127.182 178.644C127.471 178.971 127.695 179.367 127.854 179.834C128.013 180.301 128.092 180.819 128.092 181.388C128.092 181.967 128.013 182.489 127.854 182.956C127.695 183.413 127.471 183.81 127.182 184.146C126.893 184.473 126.547 184.725 126.146 184.902C125.754 185.079 125.315 185.168 124.83 185.168ZM124.83 184.174C125.437 184.174 125.931 183.987 126.314 183.614C126.697 183.241 126.888 182.671 126.888 181.906V180.87C126.888 180.105 126.697 179.535 126.314 179.162C125.931 178.789 125.437 178.602 124.83 178.602C124.223 178.602 123.729 178.789 123.346 179.162C122.963 179.535 122.772 180.105 122.772 180.87V181.906C122.772 182.671 122.963 183.241 123.346 183.614C123.729 183.987 124.223 184.174 124.83 184.174ZM129.27 177.776H130.362L131.132 180.898L131.902 184.062H131.93L132.812 180.898L133.722 177.776H134.716L135.654 180.898L136.55 184.062H136.578L137.32 180.898L138.104 177.776H139.154L137.236 185H135.85L134.842 181.528L134.212 179.33H134.184L133.568 181.528L132.56 185H131.202L129.27 177.776Z" fill="#525252"/>
</g>
<g clip-path="url(#clip17_254_16990)">
<path d="M210.478 185H209.302V175.228H213.194C214.053 175.228 214.72 175.466 215.196 175.942C215.681 176.418 215.924 177.104 215.924 178C215.924 178.719 215.756 179.311 215.42 179.778C215.093 180.235 214.608 180.539 213.964 180.688L216.204 185H214.874L212.76 180.8H210.478V185ZM213.194 179.792C213.661 179.792 214.02 179.671 214.272 179.428C214.533 179.185 214.664 178.84 214.664 178.392V177.664C214.664 177.216 214.533 176.871 214.272 176.628C214.02 176.385 213.661 176.264 213.194 176.264H210.478V179.792H213.194ZM220.83 185.168C220.345 185.168 219.901 185.079 219.5 184.902C219.099 184.725 218.753 184.473 218.464 184.146C218.184 183.81 217.965 183.413 217.806 182.956C217.647 182.489 217.568 181.967 217.568 181.388C217.568 180.819 217.647 180.301 217.806 179.834C217.965 179.367 218.184 178.971 218.464 178.644C218.753 178.308 219.099 178.051 219.5 177.874C219.901 177.697 220.345 177.608 220.83 177.608C221.315 177.608 221.754 177.697 222.146 177.874C222.547 178.051 222.893 178.308 223.182 178.644C223.471 178.971 223.695 179.367 223.854 179.834C224.013 180.301 224.092 180.819 224.092 181.388C224.092 181.967 224.013 182.489 223.854 182.956C223.695 183.413 223.471 183.81 223.182 184.146C222.893 184.473 222.547 184.725 222.146 184.902C221.754 185.079 221.315 185.168 220.83 185.168ZM220.83 184.174C221.437 184.174 221.931 183.987 222.314 183.614C222.697 183.241 222.888 182.671 222.888 181.906V180.87C222.888 180.105 222.697 179.535 222.314 179.162C221.931 178.789 221.437 178.602 220.83 178.602C220.223 178.602 219.729 178.789 219.346 179.162C218.963 179.535 218.772 180.105 218.772 180.87V181.906C218.772 182.671 218.963 183.241 219.346 183.614C219.729 183.987 220.223 184.174 220.83 184.174ZM225.27 177.776H226.362L227.132 180.898L227.902 184.062H227.93L228.812 180.898L229.722 177.776H230.716L231.654 180.898L232.55 184.062H232.578L233.32 180.898L234.104 177.776H235.154L233.236 185H231.85L230.842 181.528L230.212 179.33H230.184L229.568 181.528L228.56 185H227.202L225.27 177.776Z" fill="#525252"/>
</g>
<g clip-path="url(#clip18_254_16990)">
<path d="M306.478 185H305.302V175.228H309.194C310.053 175.228 310.72 175.466 311.196 175.942C311.681 176.418 311.924 177.104 311.924 178C311.924 178.719 311.756 179.311 311.42 179.778C311.093 180.235 310.608 180.539 309.964 180.688L312.204 185H310.874L308.76 180.8H306.478V185ZM309.194 179.792C309.661 179.792 310.02 179.671 310.272 179.428C310.533 179.185 310.664 178.84 310.664 178.392V177.664C310.664 177.216 310.533 176.871 310.272 176.628C310.02 176.385 309.661 176.264 309.194 176.264H306.478V179.792H309.194ZM316.83 185.168C316.345 185.168 315.901 185.079 315.5 184.902C315.099 184.725 314.753 184.473 314.464 184.146C314.184 183.81 313.965 183.413 313.806 182.956C313.647 182.489 313.568 181.967 313.568 181.388C313.568 180.819 313.647 180.301 313.806 179.834C313.965 179.367 314.184 178.971 314.464 178.644C314.753 178.308 315.099 178.051 315.5 177.874C315.901 177.697 316.345 177.608 316.83 177.608C317.315 177.608 317.754 177.697 318.146 177.874C318.547 178.051 318.893 178.308 319.182 178.644C319.471 178.971 319.695 179.367 319.854 179.834C320.013 180.301 320.092 180.819 320.092 181.388C320.092 181.967 320.013 182.489 319.854 182.956C319.695 183.413 319.471 183.81 319.182 184.146C318.893 184.473 318.547 184.725 318.146 184.902C317.754 185.079 317.315 185.168 316.83 185.168ZM316.83 184.174C317.437 184.174 317.931 183.987 318.314 183.614C318.697 183.241 318.888 182.671 318.888 181.906V180.87C318.888 180.105 318.697 179.535 318.314 179.162C317.931 178.789 317.437 178.602 316.83 178.602C316.223 178.602 315.729 178.789 315.346 179.162C314.963 179.535 314.772 180.105 314.772 180.87V181.906C314.772 182.671 314.963 183.241 315.346 183.614C315.729 183.987 316.223 184.174 316.83 184.174ZM321.27 177.776H322.362L323.132 180.898L323.902 184.062H323.93L324.812 180.898L325.722 177.776H326.716L327.654 180.898L328.55 184.062H328.578L329.32 180.898L330.104 177.776H331.154L329.236 185H327.85L326.842 181.528L326.212 179.33H326.184L325.568 181.528L324.56 185H323.202L321.27 177.776Z" fill="#525252"/>
</g>
<g clip-path="url(#clip19_254_16990)">
<path d="M402.478 185H401.302V175.228H405.194C406.053 175.228 406.72 175.466 407.196 175.942C407.681 176.418 407.924 177.104 407.924 178C407.924 178.719 407.756 179.311 407.42 179.778C407.093 180.235 406.608 180.539 405.964 180.688L408.204 185H406.874L404.76 180.8H402.478V185ZM405.194 179.792C405.661 179.792 406.02 179.671 406.272 179.428C406.533 179.185 406.664 178.84 406.664 178.392V177.664C406.664 177.216 406.533 176.871 406.272 176.628C406.02 176.385 405.661 176.264 405.194 176.264H402.478V179.792H405.194ZM412.83 185.168C412.345 185.168 411.901 185.079 411.5 184.902C411.099 184.725 410.753 184.473 410.464 184.146C410.184 183.81 409.965 183.413 409.806 182.956C409.647 182.489 409.568 181.967 409.568 181.388C409.568 180.819 409.647 180.301 409.806 179.834C409.965 179.367 410.184 178.971 410.464 178.644C410.753 178.308 411.099 178.051 411.5 177.874C411.901 177.697 412.345 177.608 412.83 177.608C413.315 177.608 413.754 177.697 414.146 177.874C414.547 178.051 414.893 178.308 415.182 178.644C415.471 178.971 415.695 179.367 415.854 179.834C416.013 180.301 416.092 180.819 416.092 181.388C416.092 181.967 416.013 182.489 415.854 182.956C415.695 183.413 415.471 183.81 415.182 184.146C414.893 184.473 414.547 184.725 414.146 184.902C413.754 185.079 413.315 185.168 412.83 185.168ZM412.83 184.174C413.437 184.174 413.931 183.987 414.314 183.614C414.697 183.241 414.888 182.671 414.888 181.906V180.87C414.888 180.105 414.697 179.535 414.314 179.162C413.931 178.789 413.437 178.602 412.83 178.602C412.223 178.602 411.729 178.789 411.346 179.162C410.963 179.535 410.772 180.105 410.772 180.87V181.906C410.772 182.671 410.963 183.241 411.346 183.614C411.729 183.987 412.223 184.174 412.83 184.174ZM417.27 177.776H418.362L419.132 180.898L419.902 184.062H419.93L420.812 180.898L421.722 177.776H422.716L423.654 180.898L424.55 184.062H424.578L425.32 180.898L426.104 177.776H427.154L425.236 185H423.85L422.842 181.528L422.212 179.33H422.184L421.568 181.528L420.56 185H419.202L417.27 177.776Z" fill="#525252"/>
</g>
<mask id="path-29-inside-5_254_16990" fill="white">
<path d="M0 214H480V274H0V214Z"/>
</mask>
<path d="M0 214H480V274H0V214Z" fill="white" fill-opacity="0.01" style="mix-blend-mode:multiply"/>
<path d="M480 274V273H0V274V275H480V274Z" fill="#E0E0E0" mask="url(#path-29-inside-5_254_16990)"/>
<g clip-path="url(#clip20_254_16990)">
<path d="M18.478 245H17.302V235.228H21.194C22.0527 235.228 22.72 235.466 23.196 235.942C23.6813 236.418 23.924 237.104 23.924 238C23.924 238.719 23.756 239.311 23.42 239.778C23.0933 240.235 22.608 240.539 21.964 240.688L24.204 245H22.874L20.76 240.8H18.478V245ZM21.194 239.792C21.6607 239.792 22.02 239.671 22.272 239.428C22.5333 239.185 22.664 238.84 22.664 238.392V237.664C22.664 237.216 22.5333 236.871 22.272 236.628C22.02 236.385 21.6607 236.264 21.194 236.264H18.478V239.792H21.194ZM28.83 245.168C28.3447 245.168 27.9013 245.079 27.5 244.902C27.0987 244.725 26.7533 244.473 26.464 244.146C26.184 243.81 25.9647 243.413 25.806 242.956C25.6473 242.489 25.568 241.967 25.568 241.388C25.568 240.819 25.6473 240.301 25.806 239.834C25.9647 239.367 26.184 238.971 26.464 238.644C26.7533 238.308 27.0987 238.051 27.5 237.874C27.9013 237.697 28.3447 237.608 28.83 237.608C29.3153 237.608 29.754 237.697 30.146 237.874C30.5473 238.051 30.8927 238.308 31.182 238.644C31.4713 238.971 31.6953 239.367 31.854 239.834C32.0127 240.301 32.092 240.819 32.092 241.388C32.092 241.967 32.0127 242.489 31.854 242.956C31.6953 243.413 31.4713 243.81 31.182 244.146C30.8927 244.473 30.5473 244.725 30.146 244.902C29.754 245.079 29.3153 245.168 28.83 245.168ZM28.83 244.174C29.4367 244.174 29.9313 243.987 30.314 243.614C30.6967 243.241 30.888 242.671 30.888 241.906V240.87C30.888 240.105 30.6967 239.535 30.314 239.162C29.9313 238.789 29.4367 238.602 28.83 238.602C28.2233 238.602 27.7287 238.789 27.346 239.162C26.9633 239.535 26.772 240.105 26.772 240.87V241.906C26.772 242.671 26.9633 243.241 27.346 243.614C27.7287 243.987 28.2233 244.174 28.83 244.174ZM33.2696 237.776H34.3616L35.1316 240.898L35.9016 244.062H35.9296L36.8116 240.898L37.7216 237.776H38.7156L39.6536 240.898L40.5496 244.062H40.5776L41.3196 240.898L42.1036 237.776H43.1536L41.2356 245H39.8496L38.8416 241.528L38.2116 239.33H38.1836L37.5676 241.528L36.5596 245H35.2016L33.2696 237.776Z" fill="#525252"/>
</g>
<g clip-path="url(#clip21_254_16990)">
<path d="M114.478 245H113.302V235.228H117.194C118.053 235.228 118.72 235.466 119.196 235.942C119.681 236.418 119.924 237.104 119.924 238C119.924 238.719 119.756 239.311 119.42 239.778C119.093 240.235 118.608 240.539 117.964 240.688L120.204 245H118.874L116.76 240.8H114.478V245ZM117.194 239.792C117.661 239.792 118.02 239.671 118.272 239.428C118.533 239.185 118.664 238.84 118.664 238.392V237.664C118.664 237.216 118.533 236.871 118.272 236.628C118.02 236.385 117.661 236.264 117.194 236.264H114.478V239.792H117.194ZM124.83 245.168C124.345 245.168 123.901 245.079 123.5 244.902C123.099 244.725 122.753 244.473 122.464 244.146C122.184 243.81 121.965 243.413 121.806 242.956C121.647 242.489 121.568 241.967 121.568 241.388C121.568 240.819 121.647 240.301 121.806 239.834C121.965 239.367 122.184 238.971 122.464 238.644C122.753 238.308 123.099 238.051 123.5 237.874C123.901 237.697 124.345 237.608 124.83 237.608C125.315 237.608 125.754 237.697 126.146 237.874C126.547 238.051 126.893 238.308 127.182 238.644C127.471 238.971 127.695 239.367 127.854 239.834C128.013 240.301 128.092 240.819 128.092 241.388C128.092 241.967 128.013 242.489 127.854 242.956C127.695 243.413 127.471 243.81 127.182 244.146C126.893 244.473 126.547 244.725 126.146 244.902C125.754 245.079 125.315 245.168 124.83 245.168ZM124.83 244.174C125.437 244.174 125.931 243.987 126.314 243.614C126.697 243.241 126.888 242.671 126.888 241.906V240.87C126.888 240.105 126.697 239.535 126.314 239.162C125.931 238.789 125.437 238.602 124.83 238.602C124.223 238.602 123.729 238.789 123.346 239.162C122.963 239.535 122.772 240.105 122.772 240.87V241.906C122.772 242.671 122.963 243.241 123.346 243.614C123.729 243.987 124.223 244.174 124.83 244.174ZM129.27 237.776H130.362L131.132 240.898L131.902 244.062H131.93L132.812 240.898L133.722 237.776H134.716L135.654 240.898L136.55 244.062H136.578L137.32 240.898L138.104 237.776H139.154L137.236 245H135.85L134.842 241.528L134.212 239.33H134.184L133.568 241.528L132.56 245H131.202L129.27 237.776Z" fill="#525252"/>
</g>
<g clip-path="url(#clip22_254_16990)">
<path d="M210.478 245H209.302V235.228H213.194C214.053 235.228 214.72 235.466 215.196 235.942C215.681 236.418 215.924 237.104 215.924 238C215.924 238.719 215.756 239.311 215.42 239.778C215.093 240.235 214.608 240.539 213.964 240.688L216.204 245H214.874L212.76 240.8H210.478V245ZM213.194 239.792C213.661 239.792 214.02 239.671 214.272 239.428C214.533 239.185 214.664 238.84 214.664 238.392V237.664C214.664 237.216 214.533 236.871 214.272 236.628C214.02 236.385 213.661 236.264 213.194 236.264H210.478V239.792H213.194ZM220.83 245.168C220.345 245.168 219.901 245.079 219.5 244.902C219.099 244.725 218.753 244.473 218.464 244.146C218.184 243.81 217.965 243.413 217.806 242.956C217.647 242.489 217.568 241.967 217.568 241.388C217.568 240.819 217.647 240.301 217.806 239.834C217.965 239.367 218.184 238.971 218.464 238.644C218.753 238.308 219.099 238.051 219.5 237.874C219.901 237.697 220.345 237.608 220.83 237.608C221.315 237.608 221.754 237.697 222.146 237.874C222.547 238.051 222.893 238.308 223.182 238.644C223.471 238.971 223.695 239.367 223.854 239.834C224.013 240.301 224.092 240.819 224.092 241.388C224.092 241.967 224.013 242.489 223.854 242.956C223.695 243.413 223.471 243.81 223.182 244.146C222.893 244.473 222.547 244.725 222.146 244.902C221.754 245.079 221.315 245.168 220.83 245.168ZM220.83 244.174C221.437 244.174 221.931 243.987 222.314 243.614C222.697 243.241 222.888 242.671 222.888 241.906V240.87C222.888 240.105 222.697 239.535 222.314 239.162C221.931 238.789 221.437 238.602 220.83 238.602C220.223 238.602 219.729 238.789 219.346 239.162C218.963 239.535 218.772 240.105 218.772 240.87V241.906C218.772 242.671 218.963 243.241 219.346 243.614C219.729 243.987 220.223 244.174 220.83 244.174ZM225.27 237.776H226.362L227.132 240.898L227.902 244.062H227.93L228.812 240.898L229.722 237.776H230.716L231.654 240.898L232.55 244.062H232.578L233.32 240.898L234.104 237.776H235.154L233.236 245H231.85L230.842 241.528L230.212 239.33H230.184L229.568 241.528L228.56 245H227.202L225.27 237.776Z" fill="#525252"/>
</g>
<g clip-path="url(#clip23_254_16990)">
<path d="M306.478 245H305.302V235.228H309.194C310.053 235.228 310.72 235.466 311.196 235.942C311.681 236.418 311.924 237.104 311.924 238C311.924 238.719 311.756 239.311 311.42 239.778C311.093 240.235 310.608 240.539 309.964 240.688L312.204 245H310.874L308.76 240.8H306.478V245ZM309.194 239.792C309.661 239.792 310.02 239.671 310.272 239.428C310.533 239.185 310.664 238.84 310.664 238.392V237.664C310.664 237.216 310.533 236.871 310.272 236.628C310.02 236.385 309.661 236.264 309.194 236.264H306.478V239.792H309.194ZM316.83 245.168C316.345 245.168 315.901 245.079 315.5 244.902C315.099 244.725 314.753 244.473 314.464 244.146C314.184 243.81 313.965 243.413 313.806 242.956C313.647 242.489 313.568 241.967 313.568 241.388C313.568 240.819 313.647 240.301 313.806 239.834C313.965 239.367 314.184 238.971 314.464 238.644C314.753 238.308 315.099 238.051 315.5 237.874C315.901 237.697 316.345 237.608 316.83 237.608C317.315 237.608 317.754 237.697 318.146 237.874C318.547 238.051 318.893 238.308 319.182 238.644C319.471 238.971 319.695 239.367 319.854 239.834C320.013 240.301 320.092 240.819 320.092 241.388C320.092 241.967 320.013 242.489 319.854 242.956C319.695 243.413 319.471 243.81 319.182 244.146C318.893 244.473 318.547 244.725 318.146 244.902C317.754 245.079 317.315 245.168 316.83 245.168ZM316.83 244.174C317.437 244.174 317.931 243.987 318.314 243.614C318.697 243.241 318.888 242.671 318.888 241.906V240.87C318.888 240.105 318.697 239.535 318.314 239.162C317.931 238.789 317.437 238.602 316.83 238.602C316.223 238.602 315.729 238.789 315.346 239.162C314.963 239.535 314.772 240.105 314.772 240.87V241.906C314.772 242.671 314.963 243.241 315.346 243.614C315.729 243.987 316.223 244.174 316.83 244.174ZM321.27 237.776H322.362L323.132 240.898L323.902 244.062H323.93L324.812 240.898L325.722 237.776H326.716L327.654 240.898L328.55 244.062H328.578L329.32 240.898L330.104 237.776H331.154L329.236 245H327.85L326.842 241.528L326.212 239.33H326.184L325.568 241.528L324.56 245H323.202L321.27 237.776Z" fill="#525252"/>
</g>
<g clip-path="url(#clip24_254_16990)">
<path d="M402.478 245H401.302V235.228H405.194C406.053 235.228 406.72 235.466 407.196 235.942C407.681 236.418 407.924 237.104 407.924 238C407.924 238.719 407.756 239.311 407.42 239.778C407.093 240.235 406.608 240.539 405.964 240.688L408.204 245H406.874L404.76 240.8H402.478V245ZM405.194 239.792C405.661 239.792 406.02 239.671 406.272 239.428C406.533 239.185 406.664 238.84 406.664 238.392V237.664C406.664 237.216 406.533 236.871 406.272 236.628C406.02 236.385 405.661 236.264 405.194 236.264H402.478V239.792H405.194ZM412.83 245.168C412.345 245.168 411.901 245.079 411.5 244.902C411.099 244.725 410.753 244.473 410.464 244.146C410.184 243.81 409.965 243.413 409.806 242.956C409.647 242.489 409.568 241.967 409.568 241.388C409.568 240.819 409.647 240.301 409.806 239.834C409.965 239.367 410.184 238.971 410.464 238.644C410.753 238.308 411.099 238.051 411.5 237.874C411.901 237.697 412.345 237.608 412.83 237.608C413.315 237.608 413.754 237.697 414.146 237.874C414.547 238.051 414.893 238.308 415.182 238.644C415.471 238.971 415.695 239.367 415.854 239.834C416.013 240.301 416.092 240.819 416.092 241.388C416.092 241.967 416.013 242.489 415.854 242.956C415.695 243.413 415.471 243.81 415.182 244.146C414.893 244.473 414.547 244.725 414.146 244.902C413.754 245.079 413.315 245.168 412.83 245.168ZM412.83 244.174C413.437 244.174 413.931 243.987 414.314 243.614C414.697 243.241 414.888 242.671 414.888 241.906V240.87C414.888 240.105 414.697 239.535 414.314 239.162C413.931 238.789 413.437 238.602 412.83 238.602C412.223 238.602 411.729 238.789 411.346 239.162C410.963 239.535 410.772 240.105 410.772 240.87V241.906C410.772 242.671 410.963 243.241 411.346 243.614C411.729 243.987 412.223 244.174 412.83 244.174ZM417.27 237.776H418.362L419.132 240.898L419.902 244.062H419.93L420.812 240.898L421.722 237.776H422.716L423.654 240.898L424.55 244.062H424.578L425.32 240.898L426.104 237.776H427.154L425.236 245H423.85L422.842 241.528L422.212 239.33H422.184L421.568 241.528L420.56 245H419.202L417.27 237.776Z" fill="#525252"/>
</g>
<mask id="path-36-inside-6_254_16990" fill="white">
<path d="M0 274H480V334H0V274Z"/>
</mask>
<path d="M0 274H480V334H0V274Z" fill="white" fill-opacity="0.01" style="mix-blend-mode:multiply"/>
<path d="M480 334V333H0V334V335H480V334Z" fill="#E0E0E0" mask="url(#path-36-inside-6_254_16990)"/>
<g clip-path="url(#clip25_254_16990)">
<path d="M18.478 305H17.302V295.228H21.194C22.0527 295.228 22.72 295.466 23.196 295.942C23.6813 296.418 23.924 297.104 23.924 298C23.924 298.719 23.756 299.311 23.42 299.778C23.0933 300.235 22.608 300.539 21.964 300.688L24.204 305H22.874L20.76 300.8H18.478V305ZM21.194 299.792C21.6607 299.792 22.02 299.671 22.272 299.428C22.5333 299.185 22.664 298.84 22.664 298.392V297.664C22.664 297.216 22.5333 296.871 22.272 296.628C22.02 296.385 21.6607 296.264 21.194 296.264H18.478V299.792H21.194ZM28.83 305.168C28.3447 305.168 27.9013 305.079 27.5 304.902C27.0987 304.725 26.7533 304.473 26.464 304.146C26.184 303.81 25.9647 303.413 25.806 302.956C25.6473 302.489 25.568 301.967 25.568 301.388C25.568 300.819 25.6473 300.301 25.806 299.834C25.9647 299.367 26.184 298.971 26.464 298.644C26.7533 298.308 27.0987 298.051 27.5 297.874C27.9013 297.697 28.3447 297.608 28.83 297.608C29.3153 297.608 29.754 297.697 30.146 297.874C30.5473 298.051 30.8927 298.308 31.182 298.644C31.4713 298.971 31.6953 299.367 31.854 299.834C32.0127 300.301 32.092 300.819 32.092 301.388C32.092 301.967 32.0127 302.489 31.854 302.956C31.6953 303.413 31.4713 303.81 31.182 304.146C30.8927 304.473 30.5473 304.725 30.146 304.902C29.754 305.079 29.3153 305.168 28.83 305.168ZM28.83 304.174C29.4367 304.174 29.9313 303.987 30.314 303.614C30.6967 303.241 30.888 302.671 30.888 301.906V300.87C30.888 300.105 30.6967 299.535 30.314 299.162C29.9313 298.789 29.4367 298.602 28.83 298.602C28.2233 298.602 27.7287 298.789 27.346 299.162C26.9633 299.535 26.772 300.105 26.772 300.87V301.906C26.772 302.671 26.9633 303.241 27.346 303.614C27.7287 303.987 28.2233 304.174 28.83 304.174ZM33.2696 297.776H34.3616L35.1316 300.898L35.9016 304.062H35.9296L36.8116 300.898L37.7216 297.776H38.7156L39.6536 300.898L40.5496 304.062H40.5776L41.3196 300.898L42.1036 297.776H43.1536L41.2356 305H39.8496L38.8416 301.528L38.2116 299.33H38.1836L37.5676 301.528L36.5596 305H35.2016L33.2696 297.776Z" fill="#525252"/>
</g>
<g clip-path="url(#clip26_254_16990)">
<path d="M114.478 305H113.302V295.228H117.194C118.053 295.228 118.72 295.466 119.196 295.942C119.681 296.418 119.924 297.104 119.924 298C119.924 298.719 119.756 299.311 119.42 299.778C119.093 300.235 118.608 300.539 117.964 300.688L120.204 305H118.874L116.76 300.8H114.478V305ZM117.194 299.792C117.661 299.792 118.02 299.671 118.272 299.428C118.533 299.185 118.664 298.84 118.664 298.392V297.664C118.664 297.216 118.533 296.871 118.272 296.628C118.02 296.385 117.661 296.264 117.194 296.264H114.478V299.792H117.194ZM124.83 305.168C124.345 305.168 123.901 305.079 123.5 304.902C123.099 304.725 122.753 304.473 122.464 304.146C122.184 303.81 121.965 303.413 121.806 302.956C121.647 302.489 121.568 301.967 121.568 301.388C121.568 300.819 121.647 300.301 121.806 299.834C121.965 299.367 122.184 298.971 122.464 298.644C122.753 298.308 123.099 298.051 123.5 297.874C123.901 297.697 124.345 297.608 124.83 297.608C125.315 297.608 125.754 297.697 126.146 297.874C126.547 298.051 126.893 298.308 127.182 298.644C127.471 298.971 127.695 299.367 127.854 299.834C128.013 300.301 128.092 300.819 128.092 301.388C128.092 301.967 128.013 302.489 127.854 302.956C127.695 303.413 127.471 303.81 127.182 304.146C126.893 304.473 126.547 304.725 126.146 304.902C125.754 305.079 125.315 305.168 124.83 305.168ZM124.83 304.174C125.437 304.174 125.931 303.987 126.314 303.614C126.697 303.241 126.888 302.671 126.888 301.906V300.87C126.888 300.105 126.697 299.535 126.314 299.162C125.931 298.789 125.437 298.602 124.83 298.602C124.223 298.602 123.729 298.789 123.346 299.162C122.963 299.535 122.772 300.105 122.772 300.87V301.906C122.772 302.671 122.963 303.241 123.346 303.614C123.729 303.987 124.223 304.174 124.83 304.174ZM129.27 297.776H130.362L131.132 300.898L131.902 304.062H131.93L132.812 300.898L133.722 297.776H134.716L135.654 300.898L136.55 304.062H136.578L137.32 300.898L138.104 297.776H139.154L137.236 305H135.85L134.842 301.528L134.212 299.33H134.184L133.568 301.528L132.56 305H131.202L129.27 297.776Z" fill="#525252"/>
</g>
<g clip-path="url(#clip27_254_16990)">
<path d="M210.478 305H209.302V295.228H213.194C214.053 295.228 214.72 295.466 215.196 295.942C215.681 296.418 215.924 297.104 215.924 298C215.924 298.719 215.756 299.311 215.42 299.778C215.093 300.235 214.608 300.539 213.964 300.688L216.204 305H214.874L212.76 300.8H210.478V305ZM213.194 299.792C213.661 299.792 214.02 299.671 214.272 299.428C214.533 299.185 214.664 298.84 214.664 298.392V297.664C214.664 297.216 214.533 296.871 214.272 296.628C214.02 296.385 213.661 296.264 213.194 296.264H210.478V299.792H213.194ZM220.83 305.168C220.345 305.168 219.901 305.079 219.5 304.902C219.099 304.725 218.753 304.473 218.464 304.146C218.184 303.81 217.965 303.413 217.806 302.956C217.647 302.489 217.568 301.967 217.568 301.388C217.568 300.819 217.647 300.301 217.806 299.834C217.965 299.367 218.184 298.971 218.464 298.644C218.753 298.308 219.099 298.051 219.5 297.874C219.901 297.697 220.345 297.608 220.83 297.608C221.315 297.608 221.754 297.697 222.146 297.874C222.547 298.051 222.893 298.308 223.182 298.644C223.471 298.971 223.695 299.367 223.854 299.834C224.013 300.301 224.092 300.819 224.092 301.388C224.092 301.967 224.013 302.489 223.854 302.956C223.695 303.413 223.471 303.81 223.182 304.146C222.893 304.473 222.547 304.725 222.146 304.902C221.754 305.079 221.315 305.168 220.83 305.168ZM220.83 304.174C221.437 304.174 221.931 303.987 222.314 303.614C222.697 303.241 222.888 302.671 222.888 301.906V300.87C222.888 300.105 222.697 299.535 222.314 299.162C221.931 298.789 221.437 298.602 220.83 298.602C220.223 298.602 219.729 298.789 219.346 299.162C218.963 299.535 218.772 300.105 218.772 300.87V301.906C218.772 302.671 218.963 303.241 219.346 303.614C219.729 303.987 220.223 304.174 220.83 304.174ZM225.27 297.776H226.362L227.132 300.898L227.902 304.062H227.93L228.812 300.898L229.722 297.776H230.716L231.654 300.898L232.55 304.062H232.578L233.32 300.898L234.104 297.776H235.154L233.236 305H231.85L230.842 301.528L230.212 299.33H230.184L229.568 301.528L228.56 305H227.202L225.27 297.776Z" fill="#525252"/>
</g>
<g clip-path="url(#clip28_254_16990)">
<path d="M306.478 305H305.302V295.228H309.194C310.053 295.228 310.72 295.466 311.196 295.942C311.681 296.418 311.924 297.104 311.924 298C311.924 298.719 311.756 299.311 311.42 299.778C311.093 300.235 310.608 300.539 309.964 300.688L312.204 305H310.874L308.76 300.8H306.478V305ZM309.194 299.792C309.661 299.792 310.02 299.671 310.272 299.428C310.533 299.185 310.664 298.84 310.664 298.392V297.664C310.664 297.216 310.533 296.871 310.272 296.628C310.02 296.385 309.661 296.264 309.194 296.264H306.478V299.792H309.194ZM316.83 305.168C316.345 305.168 315.901 305.079 315.5 304.902C315.099 304.725 314.753 304.473 314.464 304.146C314.184 303.81 313.965 303.413 313.806 302.956C313.647 302.489 313.568 301.967 313.568 301.388C313.568 300.819 313.647 300.301 313.806 299.834C313.965 299.367 314.184 298.971 314.464 298.644C314.753 298.308 315.099 298.051 315.5 297.874C315.901 297.697 316.345 297.608 316.83 297.608C317.315 297.608 317.754 297.697 318.146 297.874C318.547 298.051 318.893 298.308 319.182 298.644C319.471 298.971 319.695 299.367 319.854 299.834C320.013 300.301 320.092 300.819 320.092 301.388C320.092 301.967 320.013 302.489 319.854 302.956C319.695 303.413 319.471 303.81 319.182 304.146C318.893 304.473 318.547 304.725 318.146 304.902C317.754 305.079 317.315 305.168 316.83 305.168ZM316.83 304.174C317.437 304.174 317.931 303.987 318.314 303.614C318.697 303.241 318.888 302.671 318.888 301.906V300.87C318.888 300.105 318.697 299.535 318.314 299.162C317.931 298.789 317.437 298.602 316.83 298.602C316.223 298.602 315.729 298.789 315.346 299.162C314.963 299.535 314.772 300.105 314.772 300.87V301.906C314.772 302.671 314.963 303.241 315.346 303.614C315.729 303.987 316.223 304.174 316.83 304.174ZM321.27 297.776H322.362L323.132 300.898L323.902 304.062H323.93L324.812 300.898L325.722 297.776H326.716L327.654 300.898L328.55 304.062H328.578L329.32 300.898L330.104 297.776H331.154L329.236 305H327.85L326.842 301.528L326.212 299.33H326.184L325.568 301.528L324.56 305H323.202L321.27 297.776Z" fill="#525252"/>
</g>
<g clip-path="url(#clip29_254_16990)">
<path d="M402.478 305H401.302V295.228H405.194C406.053 295.228 406.72 295.466 407.196 295.942C407.681 296.418 407.924 297.104 407.924 298C407.924 298.719 407.756 299.311 407.42 299.778C407.093 300.235 406.608 300.539 405.964 300.688L408.204 305H406.874L404.76 300.8H402.478V305ZM405.194 299.792C405.661 299.792 406.02 299.671 406.272 299.428C406.533 299.185 406.664 298.84 406.664 298.392V297.664C406.664 297.216 406.533 296.871 406.272 296.628C406.02 296.385 405.661 296.264 405.194 296.264H402.478V299.792H405.194ZM412.83 305.168C412.345 305.168 411.901 305.079 411.5 304.902C411.099 304.725 410.753 304.473 410.464 304.146C410.184 303.81 409.965 303.413 409.806 302.956C409.647 302.489 409.568 301.967 409.568 301.388C409.568 300.819 409.647 300.301 409.806 299.834C409.965 299.367 410.184 298.971 410.464 298.644C410.753 298.308 411.099 298.051 411.5 297.874C411.901 297.697 412.345 297.608 412.83 297.608C413.315 297.608 413.754 297.697 414.146 297.874C414.547 298.051 414.893 298.308 415.182 298.644C415.471 298.971 415.695 299.367 415.854 299.834C416.013 300.301 416.092 300.819 416.092 301.388C416.092 301.967 416.013 302.489 415.854 302.956C415.695 303.413 415.471 303.81 415.182 304.146C414.893 304.473 414.547 304.725 414.146 304.902C413.754 305.079 413.315 305.168 412.83 305.168ZM412.83 304.174C413.437 304.174 413.931 303.987 414.314 303.614C414.697 303.241 414.888 302.671 414.888 301.906V300.87C414.888 300.105 414.697 299.535 414.314 299.162C413.931 298.789 413.437 298.602 412.83 298.602C412.223 298.602 411.729 298.789 411.346 299.162C410.963 299.535 410.772 300.105 410.772 300.87V301.906C410.772 302.671 410.963 303.241 411.346 303.614C411.729 303.987 412.223 304.174 412.83 304.174ZM417.27 297.776H418.362L419.132 300.898L419.902 304.062H419.93L420.812 300.898L421.722 297.776H422.716L423.654 300.898L424.55 304.062H424.578L425.32 300.898L426.104 297.776H427.154L425.236 305H423.85L422.842 301.528L422.212 299.33H422.184L421.568 301.528L420.56 305H419.202L417.27 297.776Z" fill="#525252"/>
</g>
<defs>
<clipPath id="clip0_254_16990">
<rect width="96" height="34" fill="white"/>
</clipPath>
<clipPath id="clip1_254_16990">
<rect width="96" height="34" fill="white" transform="translate(96)"/>
</clipPath>
<clipPath id="clip2_254_16990">
<rect width="96" height="34" fill="white" transform="translate(192)"/>
</clipPath>
<clipPath id="clip3_254_16990">
<rect width="96" height="34" fill="white" transform="translate(288)"/>
</clipPath>
<clipPath id="clip4_254_16990">
<rect width="96" height="34" fill="white" transform="translate(384)"/>
</clipPath>
<clipPath id="clip5_254_16990">
<rect width="96" height="60" fill="white" transform="translate(0 34)"/>
</clipPath>
<clipPath id="clip6_254_16990">
<rect width="96" height="60" fill="white" transform="translate(96 34)"/>
</clipPath>
<clipPath id="clip7_254_16990">
<rect width="96" height="60" fill="white" transform="translate(192 34)"/>
</clipPath>
<clipPath id="clip8_254_16990">
<rect width="96" height="60" fill="white" transform="translate(288 34)"/>
</clipPath>
<clipPath id="clip9_254_16990">
<rect width="96" height="60" fill="white" transform="translate(384 34)"/>
</clipPath>
<clipPath id="clip10_254_16990">
<rect width="96" height="60" fill="white" transform="translate(0 94)"/>
</clipPath>
<clipPath id="clip11_254_16990">
<rect width="96" height="60" fill="white" transform="translate(96 94)"/>
</clipPath>
<clipPath id="clip12_254_16990">
<rect width="96" height="60" fill="white" transform="translate(192 94)"/>
</clipPath>
<clipPath id="clip13_254_16990">
<rect width="96" height="60" fill="white" transform="translate(288 94)"/>
</clipPath>
<clipPath id="clip14_254_16990">
<rect width="96" height="60" fill="white" transform="translate(384 94)"/>
</clipPath>
<clipPath id="clip15_254_16990">
<rect width="96" height="60" fill="white" transform="translate(0 154)"/>
</clipPath>
<clipPath id="clip16_254_16990">
<rect width="96" height="60" fill="white" transform="translate(96 154)"/>
</clipPath>
<clipPath id="clip17_254_16990">
<rect width="96" height="60" fill="white" transform="translate(192 154)"/>
</clipPath>
<clipPath id="clip18_254_16990">
<rect width="96" height="60" fill="white" transform="translate(288 154)"/>
</clipPath>
<clipPath id="clip19_254_16990">
<rect width="96" height="60" fill="white" transform="translate(384 154)"/>
</clipPath>
<clipPath id="clip20_254_16990">
<rect width="96" height="60" fill="white" transform="translate(0 214)"/>
</clipPath>
<clipPath id="clip21_254_16990">
<rect width="96" height="60" fill="white" transform="translate(96 214)"/>
</clipPath>
<clipPath id="clip22_254_16990">
<rect width="96" height="60" fill="white" transform="translate(192 214)"/>
</clipPath>
<clipPath id="clip23_254_16990">
<rect width="96" height="60" fill="white" transform="translate(288 214)"/>
</clipPath>
<clipPath id="clip24_254_16990">
<rect width="96" height="60" fill="white" transform="translate(384 214)"/>
</clipPath>
<clipPath id="clip25_254_16990">
<rect width="96" height="60" fill="white" transform="translate(0 274)"/>
</clipPath>
<clipPath id="clip26_254_16990">
<rect width="96" height="60" fill="white" transform="translate(96 274)"/>
</clipPath>
<clipPath id="clip27_254_16990">
<rect width="96" height="60" fill="white" transform="translate(192 274)"/>
</clipPath>
<clipPath id="clip28_254_16990">
<rect width="96" height="60" fill="white" transform="translate(288 274)"/>
</clipPath>
<clipPath id="clip29_254_16990">
<rect width="96" height="60" fill="white" transform="translate(384 274)"/>
</clipPath>
</defs>
</svg>
