<svg width="369" height="40" viewBox="0 0 369 40" fill="none" xmlns="http://www.w3.org/2000/svg">
<g clip-path="url(#clip0_254_17310)">
<mask id="path-1-inside-1_254_17310" fill="white">
<path d="M0 0H93V40H0V0Z"/>
</mask>
<path d="M0 0H93V40H0V0Z" fill="white" fill-opacity="0.01" style="mix-blend-mode:multiply"/>
<path d="M93 40V38H0V40V42H93V40Z" fill="#0F62FE" mask="url(#path-1-inside-1_254_17310)"/>
<g clip-path="url(#clip1_254_17310)">
<path d="M20.984 16.866V25H19.136V16.866H16.364V15.228H23.756V16.866H20.984ZM29.7087 25C29.3167 25 29.0041 24.888 28.7707 24.664C28.5467 24.4307 28.4067 24.1227 28.3507 23.74H28.2667C28.1454 24.216 27.8981 24.5753 27.5247 24.818C27.1514 25.0513 26.6894 25.168 26.1387 25.168C25.3921 25.168 24.8181 24.972 24.4167 24.58C24.0154 24.188 23.8147 23.6653 23.8147 23.012C23.8147 22.256 24.0854 21.696 24.6267 21.332C25.1681 20.9587 25.9381 20.772 26.9367 20.772H28.1827V20.24C28.1827 19.8293 28.0754 19.512 27.8607 19.288C27.6461 19.064 27.3007 18.952 26.8247 18.952C26.4047 18.952 26.0641 19.0453 25.8027 19.232C25.5507 19.4093 25.3361 19.624 25.1587 19.876L24.0947 18.924C24.3654 18.504 24.7247 18.168 25.1727 17.916C25.6207 17.6547 26.2134 17.524 26.9507 17.524C27.9401 17.524 28.6914 17.748 29.2047 18.196C29.7181 18.644 29.9747 19.288 29.9747 20.128V23.572H30.7027V25H29.7087ZM26.7407 23.866C27.1421 23.866 27.4827 23.7773 27.7627 23.6C28.0427 23.4227 28.1827 23.1613 28.1827 22.816V21.85H27.0347C26.1014 21.85 25.6347 22.1487 25.6347 22.746V22.984C25.6347 23.2827 25.7281 23.5067 25.9147 23.656C26.1107 23.796 26.3861 23.866 26.7407 23.866ZM32.313 14.64H34.105V18.896H34.161C34.2917 18.476 34.539 18.1447 34.903 17.902C35.267 17.65 35.6917 17.524 36.177 17.524C37.1104 17.524 37.8197 17.8553 38.305 18.518C38.7997 19.1713 39.047 20.1093 39.047 21.332C39.047 22.564 38.7997 23.5113 38.305 24.174C37.8197 24.8367 37.1104 25.168 36.177 25.168C35.6917 25.168 35.267 25.042 34.903 24.79C34.5484 24.538 34.301 24.202 34.161 23.782H34.105V25H32.313V14.64ZM35.603 23.684C36.0697 23.684 36.4477 23.53 36.737 23.222C37.0264 22.914 37.171 22.4987 37.171 21.976V20.716C37.171 20.1933 37.0264 19.778 36.737 19.47C36.4477 19.1527 36.0697 18.994 35.603 18.994C35.1737 18.994 34.8144 19.1013 34.525 19.316C34.245 19.5307 34.105 19.8153 34.105 20.17V22.494C34.105 22.8767 34.245 23.1707 34.525 23.376C34.8144 23.5813 35.1737 23.684 35.603 23.684ZM46.1282 25C45.5122 25 45.0595 24.846 44.7702 24.538C44.4808 24.23 44.3362 23.796 44.3362 23.236V14.64H46.1282V23.572H47.0942V25H46.1282ZM53.9874 25C53.5954 25 53.2827 24.888 53.0494 24.664C52.8254 24.4307 52.6854 24.1227 52.6294 23.74H52.5454C52.4241 24.216 52.1767 24.5753 51.8034 24.818C51.4301 25.0513 50.9681 25.168 50.4174 25.168C49.6707 25.168 49.0967 24.972 48.6954 24.58C48.2941 24.188 48.0934 23.6653 48.0934 23.012C48.0934 22.256 48.3641 21.696 48.9054 21.332C49.4467 20.9587 50.2167 20.772 51.2154 20.772H52.4614V20.24C52.4614 19.8293 52.3541 19.512 52.1394 19.288C51.9247 19.064 51.5794 18.952 51.1034 18.952C50.6834 18.952 50.3427 19.0453 50.0814 19.232C49.8294 19.4093 49.6147 19.624 49.4374 19.876L48.3734 18.924C48.6441 18.504 49.0034 18.168 49.4514 17.916C49.8994 17.6547 50.4921 17.524 51.2294 17.524C52.2187 17.524 52.9701 17.748 53.4834 18.196C53.9967 18.644 54.2534 19.288 54.2534 20.128V23.572H54.9814V25H53.9874ZM51.0194 23.866C51.4207 23.866 51.7614 23.7773 52.0414 23.6C52.3214 23.4227 52.4614 23.1613 52.4614 22.816V21.85H51.3134C50.3801 21.85 49.9134 22.1487 49.9134 22.746V22.984C49.9134 23.2827 50.0067 23.5067 50.1934 23.656C50.3894 23.796 50.6647 23.866 51.0194 23.866ZM56.5917 14.64H58.3837V18.896H58.4397C58.5704 18.476 58.8177 18.1447 59.1817 17.902C59.5457 17.65 59.9704 17.524 60.4557 17.524C61.389 17.524 62.0984 17.8553 62.5837 18.518C63.0784 19.1713 63.3257 20.1093 63.3257 21.332C63.3257 22.564 63.0784 23.5113 62.5837 24.174C62.0984 24.8367 61.389 25.168 60.4557 25.168C59.9704 25.168 59.5457 25.042 59.1817 24.79C58.827 24.538 58.5797 24.202 58.4397 23.782H58.3837V25H56.5917V14.64ZM59.8817 23.684C60.3484 23.684 60.7264 23.53 61.0157 23.222C61.305 22.914 61.4497 22.4987 61.4497 21.976V20.716C61.4497 20.1933 61.305 19.778 61.0157 19.47C60.7264 19.1527 60.3484 18.994 59.8817 18.994C59.4524 18.994 59.093 19.1013 58.8037 19.316C58.5237 19.5307 58.3837 19.8153 58.3837 20.17V22.494C58.3837 22.8767 58.5237 23.1707 58.8037 23.376C59.093 23.5813 59.4524 23.684 59.8817 23.684ZM68.1002 25.168C67.5589 25.168 67.0736 25.0793 66.6442 24.902C66.2242 24.7153 65.8649 24.4587 65.5662 24.132C65.2769 23.796 65.0529 23.3947 64.8942 22.928C64.7356 22.452 64.6562 21.92 64.6562 21.332C64.6562 20.7533 64.7309 20.2307 64.8802 19.764C65.0389 19.2973 65.2629 18.9007 65.5522 18.574C65.8416 18.238 66.1962 17.9813 66.6162 17.804C67.0362 17.6173 67.5122 17.524 68.0442 17.524C68.6136 17.524 69.1082 17.622 69.5282 17.818C69.9482 18.014 70.2936 18.28 70.5642 18.616C70.8349 18.952 71.0356 19.344 71.1662 19.792C71.3062 20.2307 71.3762 20.702 71.3762 21.206V21.794H66.5182V21.976C66.5182 22.508 66.6676 22.9373 66.9662 23.264C67.2649 23.5813 67.7082 23.74 68.2962 23.74C68.7442 23.74 69.1082 23.6467 69.3882 23.46C69.6776 23.2733 69.9342 23.0353 70.1582 22.746L71.1242 23.824C70.8256 24.244 70.4149 24.5753 69.8922 24.818C69.3789 25.0513 68.7816 25.168 68.1002 25.168ZM68.0722 18.868C67.5962 18.868 67.2182 19.0267 66.9382 19.344C66.6582 19.6613 66.5182 20.072 66.5182 20.576V20.688H69.5142V20.562C69.5142 20.058 69.3882 19.652 69.1362 19.344C68.8936 19.0267 68.5389 18.868 68.0722 18.868ZM74.9049 25C74.2889 25 73.8362 24.846 73.5469 24.538C73.2575 24.23 73.1129 23.796 73.1129 23.236V14.64H74.9049V23.572H75.8709V25H74.9049Z" fill="#161616"/>
</g>
<mask id="path-4-inside-2_254_17310" fill="white">
<path d="M94 0H185V40H94V0Z"/>
</mask>
<path d="M94 0H185V40H94V0Z" fill="white" fill-opacity="0.01" style="mix-blend-mode:multiply"/>
<path d="M185 40V38H94V40V42H185V40Z" fill="#C6C6C6" mask="url(#path-4-inside-2_254_17310)"/>
<g clip-path="url(#clip2_254_17310)">
<path d="M114.592 16.264V25H113.416V16.264H110.308V15.228H117.7V16.264H114.592ZM123.627 25C123.207 25 122.904 24.888 122.717 24.664C122.54 24.44 122.428 24.16 122.381 23.824H122.311C122.153 24.272 121.891 24.608 121.527 24.832C121.163 25.056 120.729 25.168 120.225 25.168C119.46 25.168 118.863 24.972 118.433 24.58C118.013 24.188 117.803 23.656 117.803 22.984C117.803 22.3027 118.051 21.78 118.545 21.416C119.049 21.052 119.829 20.87 120.883 20.87H122.311V20.156C122.311 19.6427 122.171 19.2507 121.891 18.98C121.611 18.7093 121.182 18.574 120.603 18.574C120.165 18.574 119.796 18.672 119.497 18.868C119.208 19.064 118.965 19.3253 118.769 19.652L118.097 19.022C118.293 18.63 118.606 18.2987 119.035 18.028C119.465 17.748 120.006 17.608 120.659 17.608C121.537 17.608 122.218 17.8227 122.703 18.252C123.189 18.6813 123.431 19.2787 123.431 20.044V24.02H124.257V25H123.627ZM120.407 24.216C120.687 24.216 120.944 24.1833 121.177 24.118C121.411 24.0527 121.611 23.9593 121.779 23.838C121.947 23.7167 122.078 23.5767 122.171 23.418C122.265 23.2593 122.311 23.0867 122.311 22.9V21.71H120.827C120.183 21.71 119.712 21.8033 119.413 21.99C119.124 22.1767 118.979 22.4473 118.979 22.802V23.096C118.979 23.4507 119.105 23.726 119.357 23.922C119.619 24.118 119.969 24.216 120.407 24.216ZM126.016 14.64H127.136V18.952H127.192C127.379 18.4947 127.649 18.1587 128.004 17.944C128.368 17.72 128.802 17.608 129.306 17.608C129.754 17.608 130.16 17.6967 130.524 17.874C130.888 18.0513 131.196 18.3033 131.448 18.63C131.709 18.9567 131.905 19.3533 132.036 19.82C132.176 20.2867 132.246 20.8093 132.246 21.388C132.246 21.9667 132.176 22.4893 132.036 22.956C131.905 23.4227 131.709 23.8193 131.448 24.146C131.196 24.4727 130.888 24.7247 130.524 24.902C130.16 25.0793 129.754 25.168 129.306 25.168C128.326 25.168 127.621 24.72 127.192 23.824H127.136V25H126.016V14.64ZM128.998 24.16C129.633 24.16 130.132 23.964 130.496 23.572C130.86 23.1707 131.042 22.648 131.042 22.004V20.772C131.042 20.128 130.86 19.61 130.496 19.218C130.132 18.8167 129.633 18.616 128.998 18.616C128.746 18.616 128.503 18.6533 128.27 18.728C128.046 18.7933 127.85 18.8867 127.682 19.008C127.514 19.1293 127.379 19.2787 127.276 19.456C127.183 19.624 127.136 19.806 127.136 20.002V22.69C127.136 22.9233 127.183 23.1333 127.276 23.32C127.379 23.4973 127.514 23.6513 127.682 23.782C127.85 23.9033 128.046 23.9967 128.27 24.062C128.503 24.1273 128.746 24.16 128.998 24.16ZM138.956 25C138.564 25 138.265 24.8927 138.06 24.678C137.864 24.454 137.766 24.174 137.766 23.838V14.64H138.886V24.02H139.95V25H138.956ZM146.99 25C146.57 25 146.267 24.888 146.08 24.664C145.903 24.44 145.791 24.16 145.744 23.824H145.674C145.515 24.272 145.254 24.608 144.89 24.832C144.526 25.056 144.092 25.168 143.588 25.168C142.823 25.168 142.225 24.972 141.796 24.58C141.376 24.188 141.166 23.656 141.166 22.984C141.166 22.3027 141.413 21.78 141.908 21.416C142.412 21.052 143.191 20.87 144.246 20.87H145.674V20.156C145.674 19.6427 145.534 19.2507 145.254 18.98C144.974 18.7093 144.545 18.574 143.966 18.574C143.527 18.574 143.159 18.672 142.86 18.868C142.571 19.064 142.328 19.3253 142.132 19.652L141.46 19.022C141.656 18.63 141.969 18.2987 142.398 18.028C142.827 17.748 143.369 17.608 144.022 17.608C144.899 17.608 145.581 17.8227 146.066 18.252C146.551 18.6813 146.794 19.2787 146.794 20.044V24.02H147.62V25H146.99ZM143.77 24.216C144.05 24.216 144.307 24.1833 144.54 24.118C144.773 24.0527 144.974 23.9593 145.142 23.838C145.31 23.7167 145.441 23.5767 145.534 23.418C145.627 23.2593 145.674 23.0867 145.674 22.9V21.71H144.19C143.546 21.71 143.075 21.8033 142.776 21.99C142.487 22.1767 142.342 22.4473 142.342 22.802V23.096C142.342 23.4507 142.468 23.726 142.72 23.922C142.981 24.118 143.331 24.216 143.77 24.216ZM149.379 14.64H150.499V18.952H150.555C150.741 18.4947 151.012 18.1587 151.367 17.944C151.731 17.72 152.165 17.608 152.669 17.608C153.117 17.608 153.523 17.6967 153.887 17.874C154.251 18.0513 154.559 18.3033 154.811 18.63C155.072 18.9567 155.268 19.3533 155.399 19.82C155.539 20.2867 155.609 20.8093 155.609 21.388C155.609 21.9667 155.539 22.4893 155.399 22.956C155.268 23.4227 155.072 23.8193 154.811 24.146C154.559 24.4727 154.251 24.7247 153.887 24.902C153.523 25.0793 153.117 25.168 152.669 25.168C151.689 25.168 150.984 24.72 150.555 23.824H150.499V25H149.379V14.64ZM152.361 24.16C152.995 24.16 153.495 23.964 153.859 23.572C154.223 23.1707 154.405 22.648 154.405 22.004V20.772C154.405 20.128 154.223 19.61 153.859 19.218C153.495 18.8167 152.995 18.616 152.361 18.616C152.109 18.616 151.866 18.6533 151.633 18.728C151.409 18.7933 151.213 18.8867 151.045 19.008C150.877 19.1293 150.741 19.2787 150.639 19.456C150.545 19.624 150.499 19.806 150.499 20.002V22.69C150.499 22.9233 150.545 23.1333 150.639 23.32C150.741 23.4973 150.877 23.6513 151.045 23.782C151.213 23.9033 151.409 23.9967 151.633 24.062C151.866 24.1273 152.109 24.16 152.361 24.16ZM160.376 25.168C159.881 25.168 159.433 25.0793 159.032 24.902C158.64 24.7247 158.299 24.4727 158.01 24.146C157.73 23.81 157.51 23.4133 157.352 22.956C157.202 22.4893 157.128 21.9667 157.128 21.388C157.128 20.8187 157.202 20.3007 157.352 19.834C157.51 19.3673 157.73 18.9707 158.01 18.644C158.299 18.308 158.64 18.0513 159.032 17.874C159.433 17.6967 159.881 17.608 160.376 17.608C160.861 17.608 161.295 17.6967 161.678 17.874C162.06 18.0513 162.387 18.2987 162.658 18.616C162.928 18.924 163.134 19.2927 163.274 19.722C163.423 20.1513 163.498 20.6227 163.498 21.136V21.668H158.304V22.004C158.304 22.312 158.35 22.6013 158.444 22.872C158.546 23.1333 158.686 23.362 158.864 23.558C159.05 23.754 159.274 23.908 159.536 24.02C159.806 24.132 160.11 24.188 160.446 24.188C160.903 24.188 161.3 24.0807 161.636 23.866C161.981 23.6513 162.247 23.3433 162.434 22.942L163.232 23.516C162.998 24.0107 162.634 24.412 162.14 24.72C161.645 25.0187 161.057 25.168 160.376 25.168ZM160.376 18.546C160.068 18.546 159.788 18.602 159.536 18.714C159.284 18.8167 159.064 18.966 158.878 19.162C158.7 19.358 158.56 19.5913 158.458 19.862C158.355 20.1233 158.304 20.4127 158.304 20.73V20.828H162.294V20.674C162.294 20.03 162.116 19.5167 161.762 19.134C161.416 18.742 160.954 18.546 160.376 18.546ZM166.693 25C166.301 25 166.003 24.8927 165.797 24.678C165.601 24.454 165.503 24.174 165.503 23.838V14.64H166.623V24.02H167.687V25H166.693Z" fill="#525252"/>
</g>
<mask id="path-7-inside-3_254_17310" fill="white">
<path d="M186 0H277V40H186V0Z"/>
</mask>
<path d="M186 0H277V40H186V0Z" fill="white" fill-opacity="0.01" style="mix-blend-mode:multiply"/>
<path d="M277 40V38H186V40V42H277V40Z" fill="#C6C6C6" mask="url(#path-7-inside-3_254_17310)"/>
<g clip-path="url(#clip3_254_17310)">
<path d="M206.592 16.264V25H205.416V16.264H202.308V15.228H209.7V16.264H206.592ZM215.627 25C215.207 25 214.904 24.888 214.717 24.664C214.54 24.44 214.428 24.16 214.381 23.824H214.311C214.153 24.272 213.891 24.608 213.527 24.832C213.163 25.056 212.729 25.168 212.225 25.168C211.46 25.168 210.863 24.972 210.433 24.58C210.013 24.188 209.803 23.656 209.803 22.984C209.803 22.3027 210.051 21.78 210.545 21.416C211.049 21.052 211.829 20.87 212.883 20.87H214.311V20.156C214.311 19.6427 214.171 19.2507 213.891 18.98C213.611 18.7093 213.182 18.574 212.603 18.574C212.165 18.574 211.796 18.672 211.497 18.868C211.208 19.064 210.965 19.3253 210.769 19.652L210.097 19.022C210.293 18.63 210.606 18.2987 211.035 18.028C211.465 17.748 212.006 17.608 212.659 17.608C213.537 17.608 214.218 17.8227 214.703 18.252C215.189 18.6813 215.431 19.2787 215.431 20.044V24.02H216.257V25H215.627ZM212.407 24.216C212.687 24.216 212.944 24.1833 213.177 24.118C213.411 24.0527 213.611 23.9593 213.779 23.838C213.947 23.7167 214.078 23.5767 214.171 23.418C214.265 23.2593 214.311 23.0867 214.311 22.9V21.71H212.827C212.183 21.71 211.712 21.8033 211.413 21.99C211.124 22.1767 210.979 22.4473 210.979 22.802V23.096C210.979 23.4507 211.105 23.726 211.357 23.922C211.619 24.118 211.969 24.216 212.407 24.216ZM218.016 14.64H219.136V18.952H219.192C219.379 18.4947 219.649 18.1587 220.004 17.944C220.368 17.72 220.802 17.608 221.306 17.608C221.754 17.608 222.16 17.6967 222.524 17.874C222.888 18.0513 223.196 18.3033 223.448 18.63C223.709 18.9567 223.905 19.3533 224.036 19.82C224.176 20.2867 224.246 20.8093 224.246 21.388C224.246 21.9667 224.176 22.4893 224.036 22.956C223.905 23.4227 223.709 23.8193 223.448 24.146C223.196 24.4727 222.888 24.7247 222.524 24.902C222.16 25.0793 221.754 25.168 221.306 25.168C220.326 25.168 219.621 24.72 219.192 23.824H219.136V25H218.016V14.64ZM220.998 24.16C221.633 24.16 222.132 23.964 222.496 23.572C222.86 23.1707 223.042 22.648 223.042 22.004V20.772C223.042 20.128 222.86 19.61 222.496 19.218C222.132 18.8167 221.633 18.616 220.998 18.616C220.746 18.616 220.503 18.6533 220.27 18.728C220.046 18.7933 219.85 18.8867 219.682 19.008C219.514 19.1293 219.379 19.2787 219.276 19.456C219.183 19.624 219.136 19.806 219.136 20.002V22.69C219.136 22.9233 219.183 23.1333 219.276 23.32C219.379 23.4973 219.514 23.6513 219.682 23.782C219.85 23.9033 220.046 23.9967 220.27 24.062C220.503 24.1273 220.746 24.16 220.998 24.16ZM230.956 25C230.564 25 230.265 24.8927 230.06 24.678C229.864 24.454 229.766 24.174 229.766 23.838V14.64H230.886V24.02H231.95V25H230.956ZM238.99 25C238.57 25 238.267 24.888 238.08 24.664C237.903 24.44 237.791 24.16 237.744 23.824H237.674C237.515 24.272 237.254 24.608 236.89 24.832C236.526 25.056 236.092 25.168 235.588 25.168C234.823 25.168 234.225 24.972 233.796 24.58C233.376 24.188 233.166 23.656 233.166 22.984C233.166 22.3027 233.413 21.78 233.908 21.416C234.412 21.052 235.191 20.87 236.246 20.87H237.674V20.156C237.674 19.6427 237.534 19.2507 237.254 18.98C236.974 18.7093 236.545 18.574 235.966 18.574C235.527 18.574 235.159 18.672 234.86 18.868C234.571 19.064 234.328 19.3253 234.132 19.652L233.46 19.022C233.656 18.63 233.969 18.2987 234.398 18.028C234.827 17.748 235.369 17.608 236.022 17.608C236.899 17.608 237.581 17.8227 238.066 18.252C238.551 18.6813 238.794 19.2787 238.794 20.044V24.02H239.62V25H238.99ZM235.77 24.216C236.05 24.216 236.307 24.1833 236.54 24.118C236.773 24.0527 236.974 23.9593 237.142 23.838C237.31 23.7167 237.441 23.5767 237.534 23.418C237.627 23.2593 237.674 23.0867 237.674 22.9V21.71H236.19C235.546 21.71 235.075 21.8033 234.776 21.99C234.487 22.1767 234.342 22.4473 234.342 22.802V23.096C234.342 23.4507 234.468 23.726 234.72 23.922C234.981 24.118 235.331 24.216 235.77 24.216ZM241.379 14.64H242.499V18.952H242.555C242.741 18.4947 243.012 18.1587 243.367 17.944C243.731 17.72 244.165 17.608 244.669 17.608C245.117 17.608 245.523 17.6967 245.887 17.874C246.251 18.0513 246.559 18.3033 246.811 18.63C247.072 18.9567 247.268 19.3533 247.399 19.82C247.539 20.2867 247.609 20.8093 247.609 21.388C247.609 21.9667 247.539 22.4893 247.399 22.956C247.268 23.4227 247.072 23.8193 246.811 24.146C246.559 24.4727 246.251 24.7247 245.887 24.902C245.523 25.0793 245.117 25.168 244.669 25.168C243.689 25.168 242.984 24.72 242.555 23.824H242.499V25H241.379V14.64ZM244.361 24.16C244.995 24.16 245.495 23.964 245.859 23.572C246.223 23.1707 246.405 22.648 246.405 22.004V20.772C246.405 20.128 246.223 19.61 245.859 19.218C245.495 18.8167 244.995 18.616 244.361 18.616C244.109 18.616 243.866 18.6533 243.633 18.728C243.409 18.7933 243.213 18.8867 243.045 19.008C242.877 19.1293 242.741 19.2787 242.639 19.456C242.545 19.624 242.499 19.806 242.499 20.002V22.69C242.499 22.9233 242.545 23.1333 242.639 23.32C242.741 23.4973 242.877 23.6513 243.045 23.782C243.213 23.9033 243.409 23.9967 243.633 24.062C243.866 24.1273 244.109 24.16 244.361 24.16ZM252.376 25.168C251.881 25.168 251.433 25.0793 251.032 24.902C250.64 24.7247 250.299 24.4727 250.01 24.146C249.73 23.81 249.51 23.4133 249.352 22.956C249.202 22.4893 249.128 21.9667 249.128 21.388C249.128 20.8187 249.202 20.3007 249.352 19.834C249.51 19.3673 249.73 18.9707 250.01 18.644C250.299 18.308 250.64 18.0513 251.032 17.874C251.433 17.6967 251.881 17.608 252.376 17.608C252.861 17.608 253.295 17.6967 253.678 17.874C254.06 18.0513 254.387 18.2987 254.658 18.616C254.928 18.924 255.134 19.2927 255.274 19.722C255.423 20.1513 255.498 20.6227 255.498 21.136V21.668H250.304V22.004C250.304 22.312 250.35 22.6013 250.444 22.872C250.546 23.1333 250.686 23.362 250.864 23.558C251.05 23.754 251.274 23.908 251.536 24.02C251.806 24.132 252.11 24.188 252.446 24.188C252.903 24.188 253.3 24.0807 253.636 23.866C253.981 23.6513 254.247 23.3433 254.434 22.942L255.232 23.516C254.998 24.0107 254.634 24.412 254.14 24.72C253.645 25.0187 253.057 25.168 252.376 25.168ZM252.376 18.546C252.068 18.546 251.788 18.602 251.536 18.714C251.284 18.8167 251.064 18.966 250.878 19.162C250.7 19.358 250.56 19.5913 250.458 19.862C250.355 20.1233 250.304 20.4127 250.304 20.73V20.828H254.294V20.674C254.294 20.03 254.116 19.5167 253.762 19.134C253.416 18.742 252.954 18.546 252.376 18.546ZM258.693 25C258.301 25 258.003 24.8927 257.797 24.678C257.601 24.454 257.503 24.174 257.503 23.838V14.64H258.623V24.02H259.687V25H258.693Z" fill="#525252"/>
</g>
<mask id="path-10-inside-4_254_17310" fill="white">
<path d="M278 0H369V40H278V0Z"/>
</mask>
<path d="M278 0H369V40H278V0Z" fill="white" fill-opacity="0.01" style="mix-blend-mode:multiply"/>
<path d="M369 40V38H278V40V42H369V40Z" fill="#C6C6C6" mask="url(#path-10-inside-4_254_17310)"/>
<g clip-path="url(#clip4_254_17310)">
<path d="M298.592 16.264V25H297.416V16.264H294.308V15.228H301.7V16.264H298.592ZM307.627 25C307.207 25 306.904 24.888 306.717 24.664C306.54 24.44 306.428 24.16 306.381 23.824H306.311C306.153 24.272 305.891 24.608 305.527 24.832C305.163 25.056 304.729 25.168 304.225 25.168C303.46 25.168 302.863 24.972 302.433 24.58C302.013 24.188 301.803 23.656 301.803 22.984C301.803 22.3027 302.051 21.78 302.545 21.416C303.049 21.052 303.829 20.87 304.883 20.87H306.311V20.156C306.311 19.6427 306.171 19.2507 305.891 18.98C305.611 18.7093 305.182 18.574 304.603 18.574C304.165 18.574 303.796 18.672 303.497 18.868C303.208 19.064 302.965 19.3253 302.769 19.652L302.097 19.022C302.293 18.63 302.606 18.2987 303.035 18.028C303.465 17.748 304.006 17.608 304.659 17.608C305.537 17.608 306.218 17.8227 306.703 18.252C307.189 18.6813 307.431 19.2787 307.431 20.044V24.02H308.257V25H307.627ZM304.407 24.216C304.687 24.216 304.944 24.1833 305.177 24.118C305.411 24.0527 305.611 23.9593 305.779 23.838C305.947 23.7167 306.078 23.5767 306.171 23.418C306.265 23.2593 306.311 23.0867 306.311 22.9V21.71H304.827C304.183 21.71 303.712 21.8033 303.413 21.99C303.124 22.1767 302.979 22.4473 302.979 22.802V23.096C302.979 23.4507 303.105 23.726 303.357 23.922C303.619 24.118 303.969 24.216 304.407 24.216ZM310.016 14.64H311.136V18.952H311.192C311.379 18.4947 311.649 18.1587 312.004 17.944C312.368 17.72 312.802 17.608 313.306 17.608C313.754 17.608 314.16 17.6967 314.524 17.874C314.888 18.0513 315.196 18.3033 315.448 18.63C315.709 18.9567 315.905 19.3533 316.036 19.82C316.176 20.2867 316.246 20.8093 316.246 21.388C316.246 21.9667 316.176 22.4893 316.036 22.956C315.905 23.4227 315.709 23.8193 315.448 24.146C315.196 24.4727 314.888 24.7247 314.524 24.902C314.16 25.0793 313.754 25.168 313.306 25.168C312.326 25.168 311.621 24.72 311.192 23.824H311.136V25H310.016V14.64ZM312.998 24.16C313.633 24.16 314.132 23.964 314.496 23.572C314.86 23.1707 315.042 22.648 315.042 22.004V20.772C315.042 20.128 314.86 19.61 314.496 19.218C314.132 18.8167 313.633 18.616 312.998 18.616C312.746 18.616 312.503 18.6533 312.27 18.728C312.046 18.7933 311.85 18.8867 311.682 19.008C311.514 19.1293 311.379 19.2787 311.276 19.456C311.183 19.624 311.136 19.806 311.136 20.002V22.69C311.136 22.9233 311.183 23.1333 311.276 23.32C311.379 23.4973 311.514 23.6513 311.682 23.782C311.85 23.9033 312.046 23.9967 312.27 24.062C312.503 24.1273 312.746 24.16 312.998 24.16ZM322.956 25C322.564 25 322.265 24.8927 322.06 24.678C321.864 24.454 321.766 24.174 321.766 23.838V14.64H322.886V24.02H323.95V25H322.956ZM330.99 25C330.57 25 330.267 24.888 330.08 24.664C329.903 24.44 329.791 24.16 329.744 23.824H329.674C329.515 24.272 329.254 24.608 328.89 24.832C328.526 25.056 328.092 25.168 327.588 25.168C326.823 25.168 326.225 24.972 325.796 24.58C325.376 24.188 325.166 23.656 325.166 22.984C325.166 22.3027 325.413 21.78 325.908 21.416C326.412 21.052 327.191 20.87 328.246 20.87H329.674V20.156C329.674 19.6427 329.534 19.2507 329.254 18.98C328.974 18.7093 328.545 18.574 327.966 18.574C327.527 18.574 327.159 18.672 326.86 18.868C326.571 19.064 326.328 19.3253 326.132 19.652L325.46 19.022C325.656 18.63 325.969 18.2987 326.398 18.028C326.827 17.748 327.369 17.608 328.022 17.608C328.899 17.608 329.581 17.8227 330.066 18.252C330.551 18.6813 330.794 19.2787 330.794 20.044V24.02H331.62V25H330.99ZM327.77 24.216C328.05 24.216 328.307 24.1833 328.54 24.118C328.773 24.0527 328.974 23.9593 329.142 23.838C329.31 23.7167 329.441 23.5767 329.534 23.418C329.627 23.2593 329.674 23.0867 329.674 22.9V21.71H328.19C327.546 21.71 327.075 21.8033 326.776 21.99C326.487 22.1767 326.342 22.4473 326.342 22.802V23.096C326.342 23.4507 326.468 23.726 326.72 23.922C326.981 24.118 327.331 24.216 327.77 24.216ZM333.379 14.64H334.499V18.952H334.555C334.741 18.4947 335.012 18.1587 335.367 17.944C335.731 17.72 336.165 17.608 336.669 17.608C337.117 17.608 337.523 17.6967 337.887 17.874C338.251 18.0513 338.559 18.3033 338.811 18.63C339.072 18.9567 339.268 19.3533 339.399 19.82C339.539 20.2867 339.609 20.8093 339.609 21.388C339.609 21.9667 339.539 22.4893 339.399 22.956C339.268 23.4227 339.072 23.8193 338.811 24.146C338.559 24.4727 338.251 24.7247 337.887 24.902C337.523 25.0793 337.117 25.168 336.669 25.168C335.689 25.168 334.984 24.72 334.555 23.824H334.499V25H333.379V14.64ZM336.361 24.16C336.995 24.16 337.495 23.964 337.859 23.572C338.223 23.1707 338.405 22.648 338.405 22.004V20.772C338.405 20.128 338.223 19.61 337.859 19.218C337.495 18.8167 336.995 18.616 336.361 18.616C336.109 18.616 335.866 18.6533 335.633 18.728C335.409 18.7933 335.213 18.8867 335.045 19.008C334.877 19.1293 334.741 19.2787 334.639 19.456C334.545 19.624 334.499 19.806 334.499 20.002V22.69C334.499 22.9233 334.545 23.1333 334.639 23.32C334.741 23.4973 334.877 23.6513 335.045 23.782C335.213 23.9033 335.409 23.9967 335.633 24.062C335.866 24.1273 336.109 24.16 336.361 24.16ZM344.376 25.168C343.881 25.168 343.433 25.0793 343.032 24.902C342.64 24.7247 342.299 24.4727 342.01 24.146C341.73 23.81 341.51 23.4133 341.352 22.956C341.202 22.4893 341.128 21.9667 341.128 21.388C341.128 20.8187 341.202 20.3007 341.352 19.834C341.51 19.3673 341.73 18.9707 342.01 18.644C342.299 18.308 342.64 18.0513 343.032 17.874C343.433 17.6967 343.881 17.608 344.376 17.608C344.861 17.608 345.295 17.6967 345.678 17.874C346.06 18.0513 346.387 18.2987 346.658 18.616C346.928 18.924 347.134 19.2927 347.274 19.722C347.423 20.1513 347.498 20.6227 347.498 21.136V21.668H342.304V22.004C342.304 22.312 342.35 22.6013 342.444 22.872C342.546 23.1333 342.686 23.362 342.864 23.558C343.05 23.754 343.274 23.908 343.536 24.02C343.806 24.132 344.11 24.188 344.446 24.188C344.903 24.188 345.3 24.0807 345.636 23.866C345.981 23.6513 346.247 23.3433 346.434 22.942L347.232 23.516C346.998 24.0107 346.634 24.412 346.14 24.72C345.645 25.0187 345.057 25.168 344.376 25.168ZM344.376 18.546C344.068 18.546 343.788 18.602 343.536 18.714C343.284 18.8167 343.064 18.966 342.878 19.162C342.7 19.358 342.56 19.5913 342.458 19.862C342.355 20.1233 342.304 20.4127 342.304 20.73V20.828H346.294V20.674C346.294 20.03 346.116 19.5167 345.762 19.134C345.416 18.742 344.954 18.546 344.376 18.546ZM350.693 25C350.301 25 350.003 24.8927 349.797 24.678C349.601 24.454 349.503 24.174 349.503 23.838V14.64H350.623V24.02H351.687V25H350.693Z" fill="#525252"/>
</g>
</g>
<defs>
<clipPath id="clip0_254_17310">
<rect width="369" height="40" fill="white"/>
</clipPath>
<clipPath id="clip1_254_17310">
<rect width="61" height="18" fill="white" transform="translate(16 11)"/>
</clipPath>
<clipPath id="clip2_254_17310">
<rect width="59" height="18" fill="white" transform="translate(110 11)"/>
</clipPath>
<clipPath id="clip3_254_17310">
<rect width="59" height="18" fill="white" transform="translate(202 11)"/>
</clipPath>
<clipPath id="clip4_254_17310">
<rect width="59" height="18" fill="white" transform="translate(294 11)"/>
</clipPath>
</defs>
</svg>
