<svg width="44" height="32" viewBox="0 0 44 32" fill="none" xmlns="http://www.w3.org/2000/svg">
<rect x="0.5" y="0.5" width="43" height="31.001" rx="15.5" fill="#D0E2FF"/>
<rect x="0.5" y="0.5" width="43" height="31.001" rx="15.5" stroke="#78A9FF"/>
<path d="M15.936 12.512V20H14.928V12.512H12.264V11.624H18.6V12.512H15.936ZM23.8634 20C23.5034 20 23.2434 19.904 23.0834 19.712C22.9314 19.52 22.8354 19.28 22.7954 18.992H22.7354C22.5994 19.376 22.3754 19.664 22.0634 19.856C21.7514 20.048 21.3794 20.144 20.9474 20.144C20.2914 20.144 19.7794 19.976 19.4114 19.64C19.0514 19.304 18.8714 18.848 18.8714 18.272C18.8714 17.688 19.0834 17.24 19.5074 16.928C19.9394 16.616 20.6074 16.46 21.5114 16.46H22.7354V15.848C22.7354 15.408 22.6154 15.072 22.3754 14.84C22.1354 14.608 21.7674 14.492 21.2714 14.492C20.8954 14.492 20.5794 14.576 20.3234 14.744C20.0754 14.912 19.8674 15.136 19.6994 15.416L19.1234 14.876C19.2914 14.54 19.5594 14.256 19.9274 14.024C20.2954 13.784 20.7594 13.664 21.3194 13.664C22.0714 13.664 22.6554 13.848 23.0714 14.216C23.4874 14.584 23.6954 15.096 23.6954 15.752V19.16H24.4034V20H23.8634ZM21.1034 19.328C21.3434 19.328 21.5634 19.3 21.7634 19.244C21.9634 19.188 22.1354 19.108 22.2794 19.004C22.4234 18.9 22.5354 18.78 22.6154 18.644C22.6954 18.508 22.7354 18.36 22.7354 18.2V17.18H21.4634C20.9114 17.18 20.5074 17.26 20.2514 17.42C20.0034 17.58 19.8794 17.812 19.8794 18.116V18.368C19.8794 18.672 19.9874 18.908 20.2034 19.076C20.4274 19.244 20.7274 19.328 21.1034 19.328ZM31.3136 20.684C31.3136 21.324 31.0616 21.792 30.5576 22.088C30.0616 22.392 29.3136 22.544 28.3136 22.544C27.3456 22.544 26.6496 22.412 26.2256 22.148C25.8016 21.884 25.5896 21.508 25.5896 21.02C25.5896 20.684 25.6776 20.42 25.8536 20.228C26.0296 20.044 26.2696 19.908 26.5736 19.82V19.688C26.2056 19.512 26.0216 19.224 26.0216 18.824C26.0216 18.512 26.1216 18.276 26.3216 18.116C26.5216 17.948 26.7776 17.824 27.0896 17.744V17.696C26.7216 17.52 26.4336 17.268 26.2256 16.94C26.0256 16.612 25.9256 16.232 25.9256 15.8C25.9256 15.488 25.9816 15.2 26.0936 14.936C26.2056 14.672 26.3616 14.448 26.5616 14.264C26.7696 14.072 27.0136 13.924 27.2936 13.82C27.5816 13.716 27.9016 13.664 28.2536 13.664C28.6936 13.664 29.0856 13.744 29.4296 13.904V13.796C29.4296 13.556 29.4856 13.36 29.5976 13.208C29.7096 13.048 29.8936 12.968 30.1496 12.968H31.0736V13.808H29.8976V14.204C30.1216 14.396 30.2936 14.628 30.4136 14.9C30.5416 15.164 30.6056 15.464 30.6056 15.8C30.6056 16.112 30.5496 16.4 30.4376 16.664C30.3256 16.928 30.1656 17.156 29.9576 17.348C29.7576 17.532 29.5136 17.676 29.2256 17.78C28.9376 17.884 28.6176 17.936 28.2656 17.936C28.0656 17.936 27.8656 17.916 27.6656 17.876C27.4576 17.932 27.2696 18.016 27.1016 18.128C26.9336 18.232 26.8496 18.38 26.8496 18.572C26.8496 18.756 26.9376 18.88 27.1136 18.944C27.2896 19.008 27.5176 19.04 27.7976 19.04H29.1176C29.8856 19.04 30.4416 19.188 30.7856 19.484C31.1376 19.772 31.3136 20.172 31.3136 20.684ZM30.4136 20.756C30.4136 20.508 30.3176 20.308 30.1256 20.156C29.9416 20.012 29.6096 19.94 29.1296 19.94H27.0656C26.6816 20.116 26.4896 20.396 26.4896 20.78C26.4896 21.052 26.5896 21.284 26.7896 21.476C26.9976 21.668 27.3456 21.764 27.8336 21.764H28.7216C29.2576 21.764 29.6736 21.68 29.9696 21.512C30.2656 21.344 30.4136 21.092 30.4136 20.756ZM28.2656 17.168C28.6736 17.168 28.9976 17.072 29.2376 16.88C29.4776 16.68 29.5976 16.376 29.5976 15.968V15.632C29.5976 15.224 29.4776 14.924 29.2376 14.732C28.9976 14.532 28.6736 14.432 28.2656 14.432C27.8576 14.432 27.5336 14.532 27.2936 14.732C27.0536 14.924 26.9336 15.224 26.9336 15.632V15.968C26.9336 16.376 27.0536 16.68 27.2936 16.88C27.5336 17.072 27.8576 17.168 28.2656 17.168Z" fill="#0043CE"/>
<rect width="16.002" height="0.001" transform="translate(13.999 23)" fill="white" fill-opacity="0.01" style="mix-blend-mode:multiply"/>
</svg>
