<svg width="288" height="186" viewBox="0 0 288 186" fill="none" xmlns="http://www.w3.org/2000/svg">
<rect width="288" height="186.001" fill="white" fill-opacity="0.01"/>
<path d="M6.36 179.209H2.124V183.001H1.116V174.625H2.124V178.321H6.36V174.625H7.368V183.001H6.36V179.209ZM12.1524 183.145C11.7284 183.145 11.3444 183.069 11.0004 182.917C10.6644 182.765 10.3724 182.549 10.1244 182.269C9.88437 181.981 9.69637 181.641 9.56037 181.249C9.43237 180.849 9.36837 180.401 9.36837 179.905C9.36837 179.417 9.43237 178.973 9.56037 178.573C9.69637 178.173 9.88437 177.833 10.1244 177.553C10.3724 177.265 10.6644 177.045 11.0004 176.893C11.3444 176.741 11.7284 176.665 12.1524 176.665C12.5684 176.665 12.9404 176.741 13.2684 176.893C13.5964 177.045 13.8764 177.257 14.1084 177.529C14.3404 177.793 14.5164 178.109 14.6364 178.477C14.7644 178.845 14.8284 179.249 14.8284 179.689V180.145H10.3764V180.433C10.3764 180.697 10.4164 180.945 10.4964 181.177C10.5844 181.401 10.7044 181.597 10.8564 181.765C11.0164 181.933 11.2084 182.065 11.4324 182.161C11.6644 182.257 11.9244 182.305 12.2124 182.305C12.6044 182.305 12.9444 182.213 13.2324 182.029C13.5284 181.845 13.7564 181.581 13.9164 181.237L14.6004 181.729C14.4004 182.153 14.0884 182.497 13.6644 182.761C13.2404 183.017 12.7364 183.145 12.1524 183.145ZM12.1524 177.469C11.8884 177.469 11.6484 177.517 11.4324 177.613C11.2164 177.701 11.0284 177.829 10.8684 177.997C10.7164 178.165 10.5964 178.365 10.5084 178.597C10.4204 178.821 10.3764 179.069 10.3764 179.341V179.425H13.7964V179.293C13.7964 178.741 13.6444 178.301 13.3404 177.973C13.0444 177.637 12.6484 177.469 12.1524 177.469ZM17.7503 183.001C17.4143 183.001 17.1583 182.909 16.9823 182.725C16.8143 182.533 16.7303 182.293 16.7303 182.005V174.121H17.6903V182.161H18.6023V183.001H17.7503ZM20.3198 176.809H21.2798V177.817H21.3278C21.4878 177.425 21.7198 177.137 22.0238 176.953C22.3358 176.761 22.7078 176.665 23.1398 176.665C23.5238 176.665 23.8718 176.741 24.1838 176.893C24.4958 177.045 24.7598 177.261 24.9758 177.541C25.1998 177.821 25.3678 178.161 25.4798 178.561C25.5998 178.961 25.6598 179.409 25.6598 179.905C25.6598 180.401 25.5998 180.849 25.4798 181.249C25.3678 181.649 25.1998 181.989 24.9758 182.269C24.7598 182.549 24.4958 182.765 24.1838 182.917C23.8718 183.069 23.5238 183.145 23.1398 183.145C22.2998 183.145 21.6958 182.761 21.3278 181.993H21.2798V185.401H20.3198V176.809ZM22.8758 182.281C23.4198 182.281 23.8478 182.113 24.1598 181.777C24.4718 181.433 24.6278 180.985 24.6278 180.433V179.377C24.6278 178.825 24.4718 178.381 24.1598 178.045C23.8478 177.701 23.4198 177.529 22.8758 177.529C22.6598 177.529 22.4518 177.561 22.2518 177.625C22.0598 177.681 21.8918 177.761 21.7478 177.865C21.6038 177.969 21.4878 178.097 21.3998 178.249C21.3198 178.393 21.2798 178.549 21.2798 178.717V181.021C21.2798 181.221 21.3198 181.401 21.3998 181.561C21.4878 181.713 21.6038 181.845 21.7478 181.957C21.8918 182.061 22.0598 182.141 22.2518 182.197C22.4518 182.253 22.6598 182.281 22.8758 182.281ZM29.9288 183.145C29.5048 183.145 29.1208 183.069 28.7768 182.917C28.4408 182.765 28.1488 182.549 27.9008 182.269C27.6608 181.981 27.4728 181.641 27.3368 181.249C27.2088 180.849 27.1448 180.401 27.1448 179.905C27.1448 179.417 27.2088 178.973 27.3368 178.573C27.4728 178.173 27.6608 177.833 27.9008 177.553C28.1488 177.265 28.4408 177.045 28.7768 176.893C29.1208 176.741 29.5048 176.665 29.9288 176.665C30.3448 176.665 30.7168 176.741 31.0448 176.893C31.3728 177.045 31.6528 177.257 31.8848 177.529C32.1168 177.793 32.2928 178.109 32.4128 178.477C32.5408 178.845 32.6048 179.249 32.6048 179.689V180.145H28.1528V180.433C28.1528 180.697 28.1928 180.945 28.2728 181.177C28.3608 181.401 28.4808 181.597 28.6328 181.765C28.7928 181.933 28.9848 182.065 29.2088 182.161C29.4408 182.257 29.7008 182.305 29.9888 182.305C30.3808 182.305 30.7208 182.213 31.0088 182.029C31.3048 181.845 31.5328 181.581 31.6928 181.237L32.3768 181.729C32.1768 182.153 31.8648 182.497 31.4408 182.761C31.0168 183.017 30.5128 183.145 29.9288 183.145ZM29.9288 177.469C29.6648 177.469 29.4248 177.517 29.2088 177.613C28.9928 177.701 28.8048 177.829 28.6448 177.997C28.4928 178.165 28.3728 178.365 28.2848 178.597C28.1968 178.821 28.1528 179.069 28.1528 179.341V179.425H31.5728V179.293C31.5728 178.741 31.4208 178.301 31.1168 177.973C30.8208 177.637 30.4248 177.469 29.9288 177.469ZM34.5067 183.001V176.809H35.4667V177.949H35.5267C35.6387 177.653 35.8387 177.389 36.1267 177.157C36.4147 176.925 36.8107 176.809 37.3147 176.809H37.6867V177.769H37.1227C36.6027 177.769 36.1947 177.869 35.8987 178.069C35.6107 178.261 35.4667 178.505 35.4667 178.801V183.001H34.5067ZM43.7569 183.001C43.4209 183.001 43.1649 182.909 42.9889 182.725C42.8209 182.533 42.7369 182.285 42.7369 181.981V177.649H41.7169V176.809H42.2929C42.5009 176.809 42.6409 176.769 42.7129 176.689C42.7929 176.601 42.8329 176.453 42.8329 176.245V175.093H43.6969V176.809H45.0529V177.649H43.6969V182.161H44.9569V183.001H43.7569ZM49.1971 183.145C48.7731 183.145 48.3891 183.069 48.0451 182.917C47.7091 182.765 47.4171 182.549 47.1691 182.269C46.9291 181.981 46.7411 181.641 46.6051 181.249C46.4771 180.849 46.4131 180.401 46.4131 179.905C46.4131 179.417 46.4771 178.973 46.6051 178.573C46.7411 178.173 46.9291 177.833 47.1691 177.553C47.4171 177.265 47.7091 177.045 48.0451 176.893C48.3891 176.741 48.7731 176.665 49.1971 176.665C49.6131 176.665 49.9851 176.741 50.3131 176.893C50.6411 177.045 50.9211 177.257 51.1531 177.529C51.3851 177.793 51.5611 178.109 51.6811 178.477C51.8091 178.845 51.8731 179.249 51.8731 179.689V180.145H47.4211V180.433C47.4211 180.697 47.4611 180.945 47.5411 181.177C47.6291 181.401 47.7491 181.597 47.9011 181.765C48.0611 181.933 48.2531 182.065 48.4771 182.161C48.7091 182.257 48.9691 182.305 49.2571 182.305C49.6491 182.305 49.9891 182.213 50.2771 182.029C50.5731 181.845 50.8011 181.581 50.9611 181.237L51.6451 181.729C51.4451 182.153 51.1331 182.497 50.7091 182.761C50.2851 183.017 49.7811 183.145 49.1971 183.145ZM49.1971 177.469C48.9331 177.469 48.6931 177.517 48.4771 177.613C48.2611 177.701 48.0731 177.829 47.9131 177.997C47.7611 178.165 47.6411 178.365 47.5531 178.597C47.4651 178.821 47.4211 179.069 47.4211 179.341V179.425H50.8411V179.293C50.8411 178.741 50.6891 178.301 50.3851 177.973C50.0891 177.637 49.6931 177.469 49.1971 177.469ZM52.8664 183.001L55.1584 179.881L52.9624 176.809H54.0904L55.6624 179.113H55.6984L57.3304 176.809H58.3984L56.2144 179.809L58.4464 183.001H57.3184L55.7104 180.577H55.6744L53.9344 183.001H52.8664ZM61.4044 183.001C61.0684 183.001 60.8124 182.909 60.6364 182.725C60.4684 182.533 60.3844 182.285 60.3844 181.981V177.649H59.3644V176.809H59.9404C60.1484 176.809 60.2884 176.769 60.3604 176.689C60.4404 176.601 60.4804 176.453 60.4804 176.245V175.093H61.3444V176.809H62.7004V177.649H61.3444V182.161H62.6044V183.001H61.4044Z" fill="#525252"/>
<mask id="path-2-inside-1_254_17794" fill="white">
<path d="M0 165.999H288V23.999H0V165.999Z"/>
</mask>
<path d="M0 165.999H288V23.999H0V165.999Z" fill="#F4F4F4"/>
<path d="M0 165.999V164.999H288V165.999V166.999H0V165.999Z" fill="#8D8D8D" mask="url(#path-2-inside-1_254_17794)"/>
<path d="M17.302 55V45.228H21.194C22.0713 45.228 22.7433 45.48 23.21 45.984C23.686 46.4787 23.924 47.16 23.924 48.028C23.924 48.896 23.686 49.582 23.21 50.086C22.7433 50.5807 22.0713 50.828 21.194 50.828H18.478V55H17.302ZM18.478 49.792H21.194C21.6607 49.792 22.02 49.6707 22.272 49.428C22.5333 49.1853 22.664 48.84 22.664 48.392V47.664C22.664 47.216 22.5333 46.8707 22.272 46.628C22.02 46.3853 21.6607 46.264 21.194 46.264H18.478V49.792ZM27.0302 55C26.6382 55 26.3396 54.8927 26.1342 54.678C25.9382 54.454 25.8402 54.174 25.8402 53.838V44.64H26.9602V54.02H28.0242V55H27.0302ZM35.0647 55C34.6447 55 34.3414 54.888 34.1547 54.664C33.9774 54.44 33.8654 54.16 33.8187 53.824H33.7487C33.59 54.272 33.3287 54.608 32.9647 54.832C32.6007 55.056 32.1667 55.168 31.6627 55.168C30.8974 55.168 30.3 54.972 29.8707 54.58C29.4507 54.188 29.2407 53.656 29.2407 52.984C29.2407 52.3027 29.488 51.78 29.9827 51.416C30.4867 51.052 31.266 50.87 32.3207 50.87H33.7487V50.156C33.7487 49.6427 33.6087 49.2507 33.3287 48.98C33.0487 48.7093 32.6194 48.574 32.0407 48.574C31.602 48.574 31.2334 48.672 30.9347 48.868C30.6454 49.064 30.4027 49.3253 30.2067 49.652L29.5347 49.022C29.7307 48.63 30.0434 48.2987 30.4727 48.028C30.902 47.748 31.4434 47.608 32.0967 47.608C32.974 47.608 33.6554 47.8227 34.1407 48.252C34.626 48.6813 34.8687 49.2787 34.8687 50.044V54.02H35.6947V55H35.0647ZM31.8447 54.216C32.1247 54.216 32.3814 54.1833 32.6147 54.118C32.848 54.0527 33.0487 53.9593 33.2167 53.838C33.3847 53.7167 33.5154 53.5767 33.6087 53.418C33.702 53.2593 33.7487 53.0867 33.7487 52.9V51.71H32.2647C31.6207 51.71 31.1494 51.8033 30.8507 51.99C30.5614 52.1767 30.4167 52.4473 30.4167 52.802V53.096C30.4167 53.4507 30.5427 53.726 30.7947 53.922C31.056 54.118 31.406 54.216 31.8447 54.216ZM40.1412 55.168C39.6372 55.168 39.1845 55.0793 38.7832 54.902C38.3819 54.7247 38.0412 54.4727 37.7612 54.146C37.4905 53.8193 37.2805 53.4227 37.1312 52.956C36.9912 52.4893 36.9212 51.9667 36.9212 51.388C36.9212 50.8093 36.9912 50.2867 37.1312 49.82C37.2805 49.3533 37.4905 48.9567 37.7612 48.63C38.0412 48.3033 38.3819 48.0513 38.7832 47.874C39.1845 47.6967 39.6372 47.608 40.1412 47.608C40.8599 47.608 41.4339 47.7667 41.8632 48.084C42.3019 48.392 42.6285 48.798 42.8432 49.302L41.9052 49.778C41.7745 49.4047 41.5599 49.1153 41.2612 48.91C40.9625 48.7047 40.5892 48.602 40.1412 48.602C39.8052 48.602 39.5112 48.658 39.2592 48.77C39.0072 48.8727 38.7972 49.022 38.6292 49.218C38.4612 49.4047 38.3352 49.6333 38.2512 49.904C38.1672 50.1653 38.1252 50.4547 38.1252 50.772V52.004C38.1252 52.6387 38.2932 53.1613 38.6292 53.572C38.9745 53.9733 39.4785 54.174 40.1412 54.174C41.0465 54.174 41.6999 53.754 42.1012 52.914L42.9132 53.46C42.6799 53.9827 42.3299 54.398 41.8632 54.706C41.4059 55.014 40.8319 55.168 40.1412 55.168ZM47.2882 55.168C46.7935 55.168 46.3455 55.0793 45.9442 54.902C45.5522 54.7247 45.2115 54.4727 44.9222 54.146C44.6422 53.81 44.4229 53.4133 44.2642 52.956C44.1149 52.4893 44.0402 51.9667 44.0402 51.388C44.0402 50.8187 44.1149 50.3007 44.2642 49.834C44.4229 49.3673 44.6422 48.9707 44.9222 48.644C45.2115 48.308 45.5522 48.0513 45.9442 47.874C46.3455 47.6967 46.7935 47.608 47.2882 47.608C47.7735 47.608 48.2075 47.6967 48.5902 47.874C48.9729 48.0513 49.2995 48.2987 49.5702 48.616C49.8409 48.924 50.0462 49.2927 50.1862 49.722C50.3355 50.1513 50.4102 50.6227 50.4102 51.136V51.668H45.2162V52.004C45.2162 52.312 45.2629 52.6013 45.3562 52.872C45.4589 53.1333 45.5989 53.362 45.7762 53.558C45.9629 53.754 46.1869 53.908 46.4482 54.02C46.7189 54.132 47.0222 54.188 47.3582 54.188C47.8155 54.188 48.2122 54.0807 48.5482 53.866C48.8935 53.6513 49.1595 53.3433 49.3462 52.942L50.1442 53.516C49.9109 54.0107 49.5469 54.412 49.0522 54.72C48.5575 55.0187 47.9695 55.168 47.2882 55.168ZM47.2882 48.546C46.9802 48.546 46.7002 48.602 46.4482 48.714C46.1962 48.8167 45.9769 48.966 45.7902 49.162C45.6129 49.358 45.4729 49.5913 45.3702 49.862C45.2675 50.1233 45.2162 50.4127 45.2162 50.73V50.828H49.2062V50.674C49.2062 50.03 49.0289 49.5167 48.6742 49.134C48.3289 48.742 47.8669 48.546 47.2882 48.546ZM52.4158 44.64H53.5358V48.952H53.5918C53.7691 48.5413 54.0164 48.2147 54.3338 47.972C54.6604 47.7293 55.0944 47.608 55.6358 47.608C56.3824 47.608 56.9704 47.8507 57.3998 48.336C57.8384 48.812 58.0578 49.4887 58.0578 50.366V55H56.9378V50.562C56.9378 49.2647 56.3918 48.616 55.2998 48.616C55.0758 48.616 54.8564 48.644 54.6418 48.7C54.4364 48.756 54.2498 48.84 54.0818 48.952C53.9138 49.064 53.7784 49.2087 53.6758 49.386C53.5824 49.554 53.5358 49.7547 53.5358 49.988V55H52.4158V44.64ZM63.2628 55.168C62.7775 55.168 62.3341 55.0793 61.9328 54.902C61.5315 54.7247 61.1861 54.4727 60.8968 54.146C60.6168 53.81 60.3975 53.4133 60.2388 52.956C60.0801 52.4893 60.0008 51.9667 60.0008 51.388C60.0008 50.8187 60.0801 50.3007 60.2388 49.834C60.3975 49.3673 60.6168 48.9707 60.8968 48.644C61.1861 48.308 61.5315 48.0513 61.9328 47.874C62.3341 47.6967 62.7775 47.608 63.2628 47.608C63.7481 47.608 64.1868 47.6967 64.5788 47.874C64.9801 48.0513 65.3255 48.308 65.6148 48.644C65.9041 48.9707 66.1281 49.3673 66.2868 49.834C66.4455 50.3007 66.5248 50.8187 66.5248 51.388C66.5248 51.9667 66.4455 52.4893 66.2868 52.956C66.1281 53.4133 65.9041 53.81 65.6148 54.146C65.3255 54.4727 64.9801 54.7247 64.5788 54.902C64.1868 55.0793 63.7481 55.168 63.2628 55.168ZM63.2628 54.174C63.8695 54.174 64.3641 53.9873 64.7468 53.614C65.1295 53.2407 65.3208 52.6713 65.3208 51.906V50.87C65.3208 50.1047 65.1295 49.5353 64.7468 49.162C64.3641 48.7887 63.8695 48.602 63.2628 48.602C62.6561 48.602 62.1615 48.7887 61.7788 49.162C61.3961 49.5353 61.2048 50.1047 61.2048 50.87V51.906C61.2048 52.6713 61.3961 53.2407 61.7788 53.614C62.1615 53.9873 62.6561 54.174 63.2628 54.174ZM69.7168 55C69.3248 55 69.0261 54.8927 68.8208 54.678C68.6248 54.454 68.5268 54.174 68.5268 53.838V44.64H69.6468V54.02H70.7108V55H69.7168ZM77.1212 53.824H77.0652C76.6266 54.72 75.9219 55.168 74.9512 55.168C74.5032 55.168 74.0972 55.0793 73.7332 54.902C73.3692 54.7247 73.0566 54.4727 72.7952 54.146C72.5432 53.8193 72.3472 53.4227 72.2072 52.956C72.0766 52.4893 72.0112 51.9667 72.0112 51.388C72.0112 50.8093 72.0766 50.2867 72.2072 49.82C72.3472 49.3533 72.5432 48.9567 72.7952 48.63C73.0566 48.3033 73.3692 48.0513 73.7332 47.874C74.0972 47.6967 74.5032 47.608 74.9512 47.608C75.4552 47.608 75.8846 47.72 76.2392 47.944C76.6032 48.1587 76.8786 48.4947 77.0652 48.952H77.1212V44.64H78.2412V55H77.1212V53.824ZM75.2592 54.16C75.5112 54.16 75.7492 54.1273 75.9732 54.062C76.2066 53.9967 76.4072 53.9033 76.5752 53.782C76.7432 53.6513 76.8739 53.4973 76.9672 53.32C77.0699 53.1333 77.1212 52.9233 77.1212 52.69V50.002C77.1212 49.806 77.0699 49.624 76.9672 49.456C76.8739 49.2787 76.7432 49.1293 76.5752 49.008C76.4072 48.8867 76.2066 48.7933 75.9732 48.728C75.7492 48.6533 75.5112 48.616 75.2592 48.616C74.6246 48.616 74.1252 48.8167 73.7612 49.218C73.3972 49.61 73.2152 50.128 73.2152 50.772V52.004C73.2152 52.648 73.3972 53.1707 73.7612 53.572C74.1252 53.964 74.6246 54.16 75.2592 54.16ZM83.4983 55.168C83.0037 55.168 82.5557 55.0793 82.1543 54.902C81.7623 54.7247 81.4217 54.4727 81.1323 54.146C80.8523 53.81 80.633 53.4133 80.4743 52.956C80.325 52.4893 80.2503 51.9667 80.2503 51.388C80.2503 50.8187 80.325 50.3007 80.4743 49.834C80.633 49.3673 80.8523 48.9707 81.1323 48.644C81.4217 48.308 81.7623 48.0513 82.1543 47.874C82.5557 47.6967 83.0037 47.608 83.4983 47.608C83.9837 47.608 84.4177 47.6967 84.8003 47.874C85.183 48.0513 85.5097 48.2987 85.7803 48.616C86.051 48.924 86.2563 49.2927 86.3963 49.722C86.5457 50.1513 86.6203 50.6227 86.6203 51.136V51.668H81.4263V52.004C81.4263 52.312 81.473 52.6013 81.5663 52.872C81.669 53.1333 81.809 53.362 81.9863 53.558C82.173 53.754 82.397 53.908 82.6583 54.02C82.929 54.132 83.2323 54.188 83.5683 54.188C84.0257 54.188 84.4223 54.0807 84.7583 53.866C85.1037 53.6513 85.3697 53.3433 85.5563 52.942L86.3543 53.516C86.121 54.0107 85.757 54.412 85.2623 54.72C84.7677 55.0187 84.1797 55.168 83.4983 55.168ZM83.4983 48.546C83.1903 48.546 82.9103 48.602 82.6583 48.714C82.4063 48.8167 82.187 48.966 82.0003 49.162C81.823 49.358 81.683 49.5913 81.5803 49.862C81.4777 50.1233 81.4263 50.4127 81.4263 50.73V50.828H85.4163V50.674C85.4163 50.03 85.239 49.5167 84.8843 49.134C84.539 48.742 84.077 48.546 83.4983 48.546ZM88.6259 55V47.776H89.7459V49.106H89.8159C89.9466 48.7607 90.1799 48.4527 90.5159 48.182C90.8519 47.9113 91.3139 47.776 91.9019 47.776H92.3359V48.896H91.6779C91.0713 48.896 90.5953 49.0127 90.2499 49.246C89.9139 49.47 89.7459 49.7547 89.7459 50.1V55H88.6259ZM98.9912 55C98.5992 55 98.3005 54.8927 98.0952 54.678C97.8992 54.454 97.8012 54.1647 97.8012 53.81V48.756H96.6112V47.776H97.2832C97.5258 47.776 97.6892 47.7293 97.7732 47.636C97.8665 47.5333 97.9132 47.3607 97.9132 47.118V45.774H98.9212V47.776H100.503V48.756H98.9212V54.02H100.391V55H98.9912ZM105.125 55.168C104.63 55.168 104.182 55.0793 103.781 54.902C103.389 54.7247 103.048 54.4727 102.759 54.146C102.479 53.81 102.259 53.4133 102.101 52.956C101.951 52.4893 101.877 51.9667 101.877 51.388C101.877 50.8187 101.951 50.3007 102.101 49.834C102.259 49.3673 102.479 48.9707 102.759 48.644C103.048 48.308 103.389 48.0513 103.781 47.874C104.182 47.6967 104.63 47.608 105.125 47.608C105.61 47.608 106.044 47.6967 106.427 47.874C106.809 48.0513 107.136 48.2987 107.407 48.616C107.677 48.924 107.883 49.2927 108.023 49.722C108.172 50.1513 108.247 50.6227 108.247 51.136V51.668H103.053V52.004C103.053 52.312 103.099 52.6013 103.193 52.872C103.295 53.1333 103.435 53.362 103.613 53.558C103.799 53.754 104.023 53.908 104.285 54.02C104.555 54.132 104.859 54.188 105.195 54.188C105.652 54.188 106.049 54.0807 106.385 53.866C106.73 53.6513 106.996 53.3433 107.183 52.942L107.981 53.516C107.747 54.0107 107.383 54.412 106.889 54.72C106.394 55.0187 105.806 55.168 105.125 55.168ZM105.125 48.546C104.817 48.546 104.537 48.602 104.285 48.714C104.033 48.8167 103.813 48.966 103.627 49.162C103.449 49.358 103.309 49.5913 103.207 49.862C103.104 50.1233 103.053 50.4127 103.053 50.73V50.828H107.043V50.674C107.043 50.03 106.865 49.5167 106.511 49.134C106.165 48.742 105.703 48.546 105.125 48.546ZM109.192 55L111.866 51.36L109.304 47.776H110.62L112.454 50.464H112.496L114.4 47.776H115.646L113.098 51.276L115.702 55H114.386L112.51 52.172H112.468L110.438 55H109.192ZM118.94 55C118.548 55 118.249 54.8927 118.044 54.678C117.848 54.454 117.75 54.1647 117.75 53.81V48.756H116.56V47.776H117.232C117.475 47.776 117.638 47.7293 117.722 47.636C117.815 47.5333 117.862 47.3607 117.862 47.118V45.774H118.87V47.776H120.452V48.756H118.87V54.02H120.34V55H118.94Z" fill="#A8A8A8"/>
<rect width="0.001" height="142.001" transform="translate(287.999 24)" fill="white" fill-opacity="0.01"/>
<rect width="8" height="8" transform="translate(278 156.001)" fill="white" fill-opacity="0.01"/>
<path d="M282.5 163.501L285.5 160.501M278.5 163.501L285.5 156.501" stroke="#525252"/>
<path d="M1.116 13V4.624H2.124V12.112H5.688V13H1.116ZM11.84 13C11.48 13 11.22 12.904 11.06 12.712C10.908 12.52 10.812 12.28 10.772 11.992H10.712C10.576 12.376 10.352 12.664 10.04 12.856C9.728 13.048 9.356 13.144 8.924 13.144C8.268 13.144 7.756 12.976 7.388 12.64C7.028 12.304 6.848 11.848 6.848 11.272C6.848 10.688 7.06 10.24 7.484 9.928C7.916 9.616 8.584 9.46 9.488 9.46H10.712V8.848C10.712 8.408 10.592 8.072 10.352 7.84C10.112 7.608 9.744 7.492 9.248 7.492C8.872 7.492 8.556 7.576 8.3 7.744C8.052 7.912 7.844 8.136 7.676 8.416L7.1 7.876C7.268 7.54 7.536 7.256 7.904 7.024C8.272 6.784 8.736 6.664 9.296 6.664C10.048 6.664 10.632 6.848 11.048 7.216C11.464 7.584 11.672 8.096 11.672 8.752V12.16H12.38V13H11.84ZM9.08 12.328C9.32 12.328 9.54 12.3 9.74 12.244C9.94 12.188 10.112 12.108 10.256 12.004C10.4 11.9 10.512 11.78 10.592 11.644C10.672 11.508 10.712 11.36 10.712 11.2V10.18H9.44C8.888 10.18 8.484 10.26 8.228 10.42C7.98 10.58 7.856 10.812 7.856 11.116V11.368C7.856 11.672 7.964 11.908 8.18 12.076C8.404 12.244 8.704 12.328 9.08 12.328ZM14.0702 4.12H15.0302V7.816H15.0782C15.2382 7.424 15.4702 7.136 15.7742 6.952C16.0862 6.76 16.4582 6.664 16.8902 6.664C17.2742 6.664 17.6222 6.74 17.9342 6.892C18.2462 7.044 18.5102 7.26 18.7262 7.54C18.9502 7.82 19.1182 8.16 19.2302 8.56C19.3502 8.96 19.4102 9.408 19.4102 9.904C19.4102 10.4 19.3502 10.848 19.2302 11.248C19.1182 11.648 18.9502 11.988 18.7262 12.268C18.5102 12.548 18.2462 12.764 17.9342 12.916C17.6222 13.068 17.2742 13.144 16.8902 13.144C16.0502 13.144 15.4462 12.76 15.0782 11.992H15.0302V13H14.0702V4.12ZM16.6262 12.28C17.1702 12.28 17.5982 12.112 17.9102 11.776C18.2222 11.432 18.3782 10.984 18.3782 10.432V9.376C18.3782 8.824 18.2222 8.38 17.9102 8.044C17.5982 7.7 17.1702 7.528 16.6262 7.528C16.4102 7.528 16.2022 7.56 16.0022 7.624C15.8102 7.68 15.6422 7.76 15.4982 7.864C15.3542 7.968 15.2382 8.096 15.1502 8.248C15.0702 8.392 15.0302 8.548 15.0302 8.716V11.02C15.0302 11.22 15.0702 11.4 15.1502 11.56C15.2382 11.712 15.3542 11.844 15.4982 11.956C15.6422 12.06 15.8102 12.14 16.0022 12.196C16.2022 12.252 16.4102 12.28 16.6262 12.28ZM23.6791 13.144C23.2551 13.144 22.8711 13.068 22.5271 12.916C22.1911 12.764 21.8991 12.548 21.6511 12.268C21.4111 11.98 21.2231 11.64 21.0871 11.248C20.9591 10.848 20.8951 10.4 20.8951 9.904C20.8951 9.416 20.9591 8.972 21.0871 8.572C21.2231 8.172 21.4111 7.832 21.6511 7.552C21.8991 7.264 22.1911 7.044 22.5271 6.892C22.8711 6.74 23.2551 6.664 23.6791 6.664C24.0951 6.664 24.4671 6.74 24.7951 6.892C25.1231 7.044 25.4031 7.256 25.6351 7.528C25.8671 7.792 26.0431 8.108 26.1631 8.476C26.2911 8.844 26.3551 9.248 26.3551 9.688V10.144H21.9031V10.432C21.9031 10.696 21.9431 10.944 22.0231 11.176C22.1111 11.4 22.2311 11.596 22.3831 11.764C22.5431 11.932 22.7351 12.064 22.9591 12.16C23.1911 12.256 23.4511 12.304 23.7391 12.304C24.1311 12.304 24.4711 12.212 24.7591 12.028C25.0551 11.844 25.2831 11.58 25.4431 11.236L26.1271 11.728C25.9271 12.152 25.6151 12.496 25.1911 12.76C24.7671 13.016 24.2631 13.144 23.6791 13.144ZM23.6791 7.468C23.4151 7.468 23.1751 7.516 22.9591 7.612C22.7431 7.7 22.5551 7.828 22.3951 7.996C22.2431 8.164 22.1231 8.364 22.0351 8.596C21.9471 8.82 21.9031 9.068 21.9031 9.34V9.424H25.3231V9.292C25.3231 8.74 25.1711 8.3 24.8671 7.972C24.5711 7.636 24.1751 7.468 23.6791 7.468ZM29.277 13C28.941 13 28.685 12.908 28.509 12.724C28.341 12.532 28.257 12.292 28.257 12.004V4.12H29.217V12.16H30.129V13H29.277Z" fill="#525252"/>
<path d="M256.599 13.144C255.599 13.144 254.867 12.764 254.403 12.004C253.947 11.244 253.719 10.18 253.719 8.812C253.719 7.444 253.947 6.38 254.403 5.62C254.867 4.86 255.599 4.48 256.599 4.48C257.599 4.48 258.327 4.86 258.783 5.62C259.247 6.38 259.479 7.444 259.479 8.812C259.479 10.18 259.247 11.244 258.783 12.004C258.327 12.764 257.599 13.144 256.599 13.144ZM256.599 12.268C256.927 12.268 257.207 12.2 257.439 12.064C257.671 11.928 257.859 11.736 258.003 11.488C258.147 11.24 258.251 10.948 258.315 10.612C258.387 10.276 258.423 9.904 258.423 9.496V8.128C258.423 7.72 258.387 7.348 258.315 7.012C258.251 6.676 258.147 6.384 258.003 6.136C257.859 5.888 257.671 5.696 257.439 5.56C257.207 5.424 256.927 5.356 256.599 5.356C256.271 5.356 255.991 5.424 255.759 5.56C255.527 5.696 255.339 5.888 255.195 6.136C255.051 6.384 254.943 6.676 254.871 7.012C254.807 7.348 254.775 7.72 254.775 8.128V9.496C254.775 9.904 254.807 10.276 254.871 10.612C254.943 10.948 255.051 11.24 255.195 11.488C255.339 11.736 255.527 11.928 255.759 12.064C255.991 12.2 256.271 12.268 256.599 12.268ZM260.622 14.812L263.754 4.12H264.618L261.486 14.812H260.622ZM266.484 13V12.112H268.824V5.368H268.74L266.628 7.336L266.04 6.7L268.26 4.624H269.832V12.112H271.992V13H266.484ZM276.543 13.144C275.543 13.144 274.811 12.764 274.347 12.004C273.891 11.244 273.663 10.18 273.663 8.812C273.663 7.444 273.891 6.38 274.347 5.62C274.811 4.86 275.543 4.48 276.543 4.48C277.543 4.48 278.271 4.86 278.727 5.62C279.191 6.38 279.423 7.444 279.423 8.812C279.423 10.18 279.191 11.244 278.727 12.004C278.271 12.764 277.543 13.144 276.543 13.144ZM276.543 12.268C276.871 12.268 277.151 12.2 277.383 12.064C277.615 11.928 277.803 11.736 277.947 11.488C278.091 11.24 278.195 10.948 278.259 10.612C278.331 10.276 278.367 9.904 278.367 9.496V8.128C278.367 7.72 278.331 7.348 278.259 7.012C278.195 6.676 278.091 6.384 277.947 6.136C277.803 5.888 277.615 5.696 277.383 5.56C277.151 5.424 276.871 5.356 276.543 5.356C276.215 5.356 275.935 5.424 275.703 5.56C275.471 5.696 275.283 5.888 275.139 6.136C274.995 6.384 274.887 6.676 274.815 7.012C274.751 7.348 274.719 7.72 274.719 8.128V9.496C274.719 9.904 274.751 10.276 274.815 10.612C274.887 10.948 274.995 11.24 275.139 11.488C275.283 11.736 275.471 11.928 275.703 12.064C275.935 12.2 276.215 12.268 276.543 12.268ZM284.059 13.144C283.059 13.144 282.327 12.764 281.863 12.004C281.407 11.244 281.179 10.18 281.179 8.812C281.179 7.444 281.407 6.38 281.863 5.62C282.327 4.86 283.059 4.48 284.059 4.48C285.059 4.48 285.787 4.86 286.243 5.62C286.707 6.38 286.939 7.444 286.939 8.812C286.939 10.18 286.707 11.244 286.243 12.004C285.787 12.764 285.059 13.144 284.059 13.144ZM284.059 12.268C284.387 12.268 284.667 12.2 284.899 12.064C285.131 11.928 285.319 11.736 285.463 11.488C285.607 11.24 285.711 10.948 285.775 10.612C285.847 10.276 285.883 9.904 285.883 9.496V8.128C285.883 7.72 285.847 7.348 285.775 7.012C285.711 6.676 285.607 6.384 285.463 6.136C285.319 5.888 285.131 5.696 284.899 5.56C284.667 5.424 284.387 5.356 284.059 5.356C283.731 5.356 283.451 5.424 283.219 5.56C282.987 5.696 282.799 5.888 282.655 6.136C282.511 6.384 282.403 6.676 282.331 7.012C282.267 7.348 282.235 7.72 282.235 8.128V9.496C282.235 9.904 282.267 10.276 282.331 10.612C282.403 10.948 282.511 11.24 282.655 11.488C282.799 11.736 282.987 11.928 283.219 12.064C283.451 12.2 283.731 12.268 284.059 12.268Z" fill="#525252"/>
</svg>
